{
.appVersion = "3134";
.formatVersion = 3;
classes = (
{
automatic = 1;

glyphs = (
{
glyphname = .notdef;
lastChange = "2026-06-08 17:23:39 +0000";
layers = (
{
layerId = m01;
shapes = (
{
closed = 1;
nodes = (
(65,504,l),
(251,264,l),
(436,504,l)
);
},
{
closed = 1;
nodes = (
(50,512,l),
(450,512,l),
(450,0,l),
(50,0,l)
);
},
{
closed = 1;
nodes = (
(256,257,l),
(442,16,l),
(442,497,l)
);
},
{
closed = 1;
nodes = (
(245,257,l),
(58,499,l),
(58,15,l)
);
},
{
closed = 1;
nodes = (
(438,8,l),
(251,250,l),
(63,8,l)
);
}
);
width = 550;
}
);
note = ".notdef";
},
{
color = 5;
glyphname = exclam;
lastChange = "2026-06-09 07:26:45 +0000";
layers = (
{
hints = (
{
horizontal = 1;
place = (10, 151);
place = (10, 151);
type = Stem;
},
{
horizontal = 1;
place = (700, 52);
place = (700, 52);
type = Stem;
},
{
place = (105, 151);
place = (105, 151);
type = Stem;
},
{
place = (74, 49);
place = (74, 49);
type = Stem;
}
);
layerId = m01;
shapes = (
{
closed = 1;
nodes = (
(223,678,l),
(139,195,l),
(171,195,l),
(368,707,l),
(202,698,l),
(197,677,l)
);
},
{
closed = 1;
nodes = (
(179,75,o),
(154,100,o),
(122,100,cs),
(92,100,o),
(66,73,o),
(66,43,cs),
(66,12,o),
(93,-14,o),
(122,-14,cs),
(154,-14,o),
(179,12,o),
(179,42,cs)
);
}
);
width = 314;
}
);
note = exclam;
unicode = 33;
},
{
color = 5;
glyphname = numbersign;
lastChange = "2026-06-09 07:26:45 +0000";
layers = (
{
hints = (
{
horizontal = 1;
place = (-58, 21);
target = up;
type = BottomGhost;
},
{
horizontal = 1;
place = (162, -23);
place = (162, -23);
type = Stem;
},
{
horizontal = 1;
place = (362, -23);
place = (362, -23);
type = Stem;
},
{
place = (-41, 450);
place = (-41, 450);
type = Stem;
}
);
layerId = m01;
shapes = (
{
closed = 1;
nodes = (
(541,455,l),
(420,455,l),
(470,675,l),
(436,675,l),
(385,455,l),
(242,455,l),
(293,675,l),
(258,675,l),
(206,455,l),
(80,455,l),
(78,420,l),
(199,420,l),
(160,255,l),
(35,255,l),
(33,220,l),
(153,220,l),
(98,0,l),
(133,0,l),
(189,220,l),
(331,220,l),
(276,0,l),
(311,0,l),
(366,220,l),
(493,220,l),
(495,255,l),
(373,255,l),
(413,420,l),
(538,420,l)
);
},
{
closed = 1;
nodes = (
(338,255,l),
(195,255,l),
(235,420,l),
(378,420,l)
);
}
);
width = 512;
}
);
note = numbersign;
unicode = 35;
},
{
color = 5;
glyphname = dollar;
lastChange = "2026-06-09 07:26:45 +0000";
layers = (
{
hints = (
{
horizontal = 1;
place = (107, 145);
place = (107, 145);
type = Stem;
},
{
horizontal = 1;
place = (609, 308);
place = (609, 308);
type = Stem;
},
{
place = (169, 145);
place = (169, 145);
type = Stem;
},
{
place = (336, 147);
place = (336, 147);
type = Stem;
},
{
place = (396, 147);
place = (396, 147);
type = Stem;
},
{
place = (521, 207);
place = (521, 207);
type = Stem;
},
{
place = (529, 145);
place = (529, 145);
type = Stem;
},
{
horizontal = 1;
place = (790, 144);
place = (790, 144);
type = Stem;
},
{
place = (172, 204);
place = (172, 204);
type = Stem;
},
{
horizontal = 1;
place = (111, 21);
target = up;
type = BottomGhost;
},
{
horizontal = 1;
place = (120, 21);
target = up;
type = BottomGhost;
}
);
layerId = m01;
shapes = (
{
closed = 1;
nodes = (
(128,-73,l),
(155,-73,l),
(172,-12,l),
(178,-13,o),
(186,-13,o),
(194,-13,cs),
(204,-13,l),
(188,-73,l),
(215,-73,l),
(232,-11,l),
(355,3,o),
(479,105,o),
(479,225,cs),
(479,310,o),
(418,341,o),
(340,376,c),
(421,665,l),
(483,648,o),
(498,591,o),
(478,489,c),
(503,489,l),
(555,677,l),
(530,677,l),
(519,662,o),
(513,657,o),
(501,657,cs),
(482,657,o),
(468,677,o),
(427,688,c),
(446,754,l),
(419,754,l),
(401,693,l),
(390,694,o),
(380,694,o),
(369,694,c),
(386,754,l),
(359,754,l),
(341,691,l),
(233,678,o),
(123,594,o),
(123,481,cs),
(123,411,o),
(173,368,o),
(241,334,c),
(152,15,l),
(86,25,o),
(42,68,o),
(62,200,c),
(37,200,l),
(-19,0,l),
(6,0,l),
(15,23,o),
(28,27,o),
(41,27,cs),
(60,27,o),
(85,0,o),
(145,-9,c)
);
},
{
closed = 1;
nodes = (
(316,387,l),
(313,389,l),
(303,393,o),
(295,397,o),
(287,401,c),
(362,669,l),
(371,670,o),
(384,671,o),
(395,669,c)
);
},
{
closed = 1;
nodes = (
(264,415,l),
(227,439,o),
(212,471,o),
(212,505,cs),
(212,571,o),
(268,642,o),
(333,663,c)
);
},
{
closed = 1;
nodes = (
(295,310,l),
(212,13,l),
(204,12,o),
(198,12,o),
(191,12,cs),
(178,12,l),
(265,323,l),
(271,320,o),
(278,317,o),
(284,315,c)
);
},
{
closed = 1;
nodes = (
(318,298,l),
(364,272,o),
(385,242,o),
(385,203,cs),
(385,123,o),
(315,40,o),
(240,19,c)
);
}
);
width = 525;
}
);
note = dollar;
unicode = 36;
},
{
color = 5;
glyphname = ampersand;
lastChange = "2026-06-10 19:16:36 +0000";
layers = (
{
hints = (
{
horizontal = 1;
place = (41, 78);
place = (41, 78);
type = Stem;
},
{
horizontal = 1;
place = (396, 77);
place = (396, 77);
type = Stem;
},
{
horizontal = 1;
place = (740, 78);
place = (740, 78);
type = Stem;
},
{
place = (173, 119);
place = (173, 119);
type = Stem;
},
{
place = (432, 115);
place = (432, 115);
type = Stem;
},
{
place = (707, 109);
place = (707, 109);
type = Stem;
},
{
place = (91, 140);
place = (91, 140);
type = Stem;
},
{
horizontal = 1;
place = (40, 86);
place = (40, 86);
type = Stem;
},
{
place = (630, 185);
place = (630, 185);
type = Stem;
}
);
layerId = m01;
shapes = (
{
closed = 1;
nodes = (
(556,224,o),
(523,184,o),
(488,147,c),
(335,404,l),
(440,463,o),
(513,502,o),
(536,588,cs),
(555,658,o),
(503,712,o),
(417,712,cs),
(317,712,o),
(229,642,o),
(206,553,cs),
(189,491,o),
(206,440,o),
(239,383,c),
(113,323,o),
(46,262,o),
(22,174,cs),
(-7,65,o),
(63,-12,o),
(192,-12,cs),
(273,-12,o),
(351,12,o),
(422,63,c),
(435,39,ls),
(454,4,o),
(492,-13,o),
(530,-13,cs),
(550,-13,o),
(569,-8,o),
(586,0,cs),
(631,19,o),
(683,76,o),
(674,118,cs),
(669,138,o),
(652,152,o),
(631,152,cs),
(613,152,o),
(592,142,o),
(574,117,c),
(628,85,o),
(602,33,o),
(588,24,cs),
(583,21,o),
(579,20,o),
(575,20,cs),
(558,20,o),
(546,42,o),
(527,77,cs),
(498,131,l),
(531,167,o),
(562,207,o),
(588,251,cs),
(637,335,o),
(653,343,o),
(738,343,c),
(745,367,l),
(527,367,l),
(520,343,l),
(605,343,o),
(601,318,o),
(578,270,cs)
);
},
{
closed = 1;
nodes = (
(452,507,o),
(404,464,o),
(323,425,c),
(295,480,o),
(266,534,o),
(280,583,cs),
(297,648,o),
(356,687,o),
(402,687,cs),
(478,687,o),
(487,637,o),
(472,580,cs)
);
},
{
closed = 1;
nodes = (
(411,79,l),
(361,43,o),
(291,13,o),
(234,13,cs),
(151,13,o),
(84,82,o),
(112,185,cs),
(137,279,o),
(179,321,o),
(250,361,c)
);
}
);
width = 743;
}
);
note = ampersand;
unicode = 38;
},
{
color = 5;
glyphname = quotesingle;
lastChange = "2026-06-09 07:26:45 +0000";
layers = (
{
hints = (
{
horizontal = 1;
place = (279, 12);
place = (279, 12);
type = Stem;
},
{
place = (-120, -138);
place = (-120, -138);
type = Stem;
}
);
layerId = m01;
shapes = (
{
closed = 1;
nodes = (
(124,520,l),
(145,520,l),
(212,704,l),
(220,728,o),
(216,730,o),
(200,730,c),
(175,730,l)
);
}
);
width = 124;
}
);
note = quotesingle;
unicode = 39;
},
{
color = 5;
glyphname = parenleft;
lastChange = "2026-06-09 07:26:45 +0000";
layers = (
{
hints = (
{
horizontal = 1;
place = (-179, 888);
place = (-179, 888);
type = Stem;
},
{
place = (31, 65);
place = (31, 65);
type = Stem;
}
);
layerId = m01;
shapes = (
{
closed = 1;
nodes = (
(195,-137,l),
(73,-43,o),
(87,92,o),
(149,314,cs),
(199,495,o),
(280,665,o),
(441,744,c),
(437,761,l),
(247,681,o),
(110,502,o),
(56,309,cs),
(1,111,o),
(34,-67,o),
(180,-153,c)
);
}
);
width = 333;
}
);
note = parenleft;
unicode = 40;
},
{
color = 5;
glyphname = parenright;
lastChange = "2026-06-09 07:26:45 +0000";
layers = (
{
hints = (
{
horizontal = 1;
place = (122, 1189);
place = (122, 1189);
type = Stem;
},
{
place = (470, 366);
place = (470, 366);
type = Stem;
}
);
layerId = m01;
shapes = (
{
closed = 1;
nodes = (
(-62,-153,l),
(132,-67,o),
(265,111,o),
(320,309,cs),
(374,502,o),
(337,681,o),
(191,761,c),
(179,744,l),
(296,665,o),
(281,495,o),
(231,314,cs),
(169,92,o),
(107,-43,o),
(-67,-137,c)
);
}
);
width = 333;
}
);
note = parenright;
unicode = 41;
},
{
color = 5;
glyphname = asterisk;
lastChange = "2026-06-09 07:26:45 +0000";
layers = (
{
hints = (
{
horizontal = 1;
place = (272, -59);
place = (272, -59);
type = Stem;
},
{
horizontal = 1;
place = (407, -59);
place = (407, -59);
type = Stem;
},
{
place = (-143, -71);
place = (-143, -71);
type = Stem;
},
{
place = (-44, -59);
place = (-44, -59);
type = Stem;
},
{
place = (91, -59);
place = (91, -59);
type = Stem;
},
{
place = (207, -71);
place = (207, -71);
type = Stem;
}
);
layerId = m01;
shapes = (
{
closed = 1;
nodes = (
(233,524,o),
(261,544,o),
(291,544,cs),
(310,544,o),
(329,536,o),
(344,521,c),
(289,489,o),
(258,432,o),
(258,384,cs),
(258,334,o),
(294,307,o),
(332,307,cs),
(373,307,o),
(394,337,o),
(401,373,c),
(326,386,o),
(320,456,o),
(362,495,c),
(394,440,o),
(451,409,o),
(498,409,cs),
(548,409,o),
(575,445,o),
(575,483,cs),
(575,524,o),
(545,545,o),
(509,552,c),
(501,507,o),
(473,487,o),
(443,487,cs),
(424,487,o),
(403,496,o),
(388,512,c),
(441,544,o),
(471,600,o),
(471,646,cs),
(471,696,o),
(435,723,o),
(397,723,cs),
(356,723,o),
(335,693,o),
(328,657,c),
(401,644,o),
(409,578,o),
(371,539,c),
(338,592,o),
(283,622,o),
(236,622,cs),
(186,622,o),
(159,586,o),
(159,548,cs),
(159,507,o),
(189,486,o),
(225,479,c)
);
}
);
width = 500;
}
);
note = asterisk;
unicode = 42;
},
{
color = 5;
glyphname = plus;
lastChange = "2026-06-09 07:26:45 +0000";
layers = (
{
hints = (
{
horizontal = 1;
place = (276, 67);
place = (276, 67);
type = Stem;
},
{
place = (286, 67);
place = (286, 67);
type = Stem;
}
);
layerId = m01;
shapes = (
{
closed = 1;
nodes = (
(524,311,l),
(309,311,l),
(309,527,l),
(258,527,l),
(258,311,l),
(43,311,l),
(43,260,l),
(258,260,l),
(258,43,l),
(309,43,l),
(309,260,l),
(524,260,l)
);
}
);
width = 535;
}
);
note = plus;
unicode = 43;
},
{
color = 5;
glyphname = comma;
lastChange = "2026-06-09 07:26:45 +0000";
layers = (
{
hints = (
{
horizontal = 1;
place = (66, 410);
place = (66, 410);
type = Stem;
},
{
place = (278, 260);
place = (278, 260);
type = Stem;
}
);
layerId = m01;
shapes = (
{
closed = 1;
nodes = (
(-72,-100,l),
(7,-94,o),
(67,-39,o),
(81,15,cs),
(94,64,o),
(66,99,o),
(30,109,cs),
(-10,119,o),
(-38,96,o),
(-54,63,c),
(26,26,o),
(-4,-61,o),
(-74,-74,c)
);
}
);
width = 250;
}
);
note = comma;
unicode = 44;
},
{
color = 5;
glyphname = period;
lastChange = "2026-06-09 07:26:45 +0000";
layers = (
{
hints = (
{
horizontal = 1;
place = (118, 259);
place = (118, 259);
type = Stem;
},
{
place = (194, 259);
place = (194, 259);
type = Stem;
}
);
layerId = m01;
shapes = (
{
closed = 1;
nodes = (
(99,75,o),
(74,100,o),
(42,100,cs),
(12,100,o),
(-14,73,o),
(-14,43,cs),
(-14,12,o),
(13,-14,o),
(42,-14,cs),
(74,-14,o),
(99,12,o),
(99,42,cs)
);
}
);
width = 200;
}
);
note = period;
unicode = 46;
},
{
color = 5;
glyphname = slash;
lastChange = "2026-06-09 07:26:45 +0000";
layers = (
{
hints = (
{
horizontal = 1;
place = (827, -20);
target = down;
type = TopGhost;
},
{
place = (113, 444);
place = (113, 444);
type = Stem;
}
);
layerId = m01;
shapes = (
{
closed = 1;
nodes = (
(285,748,l),
(-7,-48,l),
(32,-48,l),
(324,748,l)
);
}
);
width = 250;
}
);
note = slash;
unicode = 47;
},
{
color = 5;
glyphname = zero;
lastChange = "2026-06-08 18:14:28 +0000";
layers = (
{
hints = (
{
horizontal = 1;
place = (-123, -88);
place = (-123, -88);
type = Stem;
},
{
horizontal = 1;
place = (578, -89);
place = (578, -89);
type = Stem;
},
{
place = (-71, -9);
place = (-71, -9);
type = Stem;
},
{
place = (300, -7);
place = (300, -7);
type = Stem;
}
);
layerId = m01;
shapes = (
{
closed = 1;
nodes = (
(589,571,o),
(544,712,o),
(391,712,cs),
(246,712,o),
(111,557,o),
(52,349,cs),
(-7,137,o),
(32,-12,o),
(193,-12,cs),
(341,-12,o),
(475,160,o),
(527,348,cs)
);
},
{
closed = 1;
nodes = (
(370,156,o),
(290,11,o),
(193,11,cs),
(99,11,o),
(98,148,o),
(150,334,cs),
(204,527,o),
(280,690,o),
(385,690,cs),
(482,690,o),
(484,565,o),
(422,344,cs)
);
}
);
width = 513;
}
);
note = zero;
unicode = 48;
},
{
color = 5;
glyphname = one;
lastChange = "2026-06-08 18:14:28 +0000";
layers = (
{
hints = (
{
horizontal = 1;
place = (11, 34);
place = (11, 34);
type = Stem;
},
{
horizontal = 1;
place = (721, -20);
target = down;
type = TopGhost;
},
{
place = (222, 105);
place = (222, 105);
type = Stem;
}
);
layerId = m01;
shapes = (
{
closed = 1;
nodes = (
(327,612,l),
(281,572,o),
(248,545,o),
(193,507,c),
(181,522,l),
(247,571,o),
(313,625,o),
(396,710,c),
(446,703,l),
(290,143,ls),
(265,54,o),
(274,23,o),
(345,23,c),
(339,0,l),
(66,0,l),
(72,23,l),
(143,23,o),
(171,54,o),
(196,143,cs)
);
}
);
width = 500;
}
);
note = one;
unicode = 49;
},
{
color = 5;
glyphname = two;
lastChange = "2026-06-08 18:14:28 +0000";
layers = (
{
hints = (
{
horizontal = 1;
place = (-52, 35);
place = (-52, 35);
type = Stem;
},
{
horizontal = 1;
place = (638, -30);
place = (638, -30);
type = Stem;
},
{
place = (14, 37);
place = (14, 37);
type = Stem;
},
{
place = (393, -27);
place = (393, -27);
type = Stem;
},
{
place = (312, 51);
place = (312, 51);
type = Stem;
}
);
layerId = m01;
shapes = (
{
closed = 1;
nodes = (
(454,690,o),
(460,617,o),
(433,520,cs),
(409,434,o),
(358,336,o),
(256,249,cs),
(212,212,ls),
(160,168,o),
(51,79,o),
(-4,40,c),
(-15,0,l),
(394,0,l),
(439,161,l),
(414,161,l),
(391,90,o),
(355,87,o),
(290,87,cs),
(103,87,l),
(288,233,ls),
(425,338,o),
(509,422,o),
(536,521,cs),
(569,637,o),
(503,712,o),
(375,712,cs),
(292,712,o),
(178,673,o),
(152,580,cs),
(139,534,o),
(169,507,o),
(204,507,cs),
(217,507,o),
(230,511,o),
(243,518,c),
(220,596,o),
(284,690,o),
(369,690,cs)
);
}
);
width = 500;
}
);
note = two;
unicode = 50;
},
{
color = 5;
glyphname = three;
lastChange = "2026-06-08 18:14:28 +0000";
layers = (
{
hints = (
{
horizontal = 1;
place = (-32, 2);
place = (-32, 2);
type = Stem;
},
{
horizontal = 1;
place = (360, 6);
place = (360, 6);
type = Stem;
},
{
horizontal = 1;
place = (593, 67);
place = (593, 67);
type = Stem;
},
{
place = (53, 5);
place = (53, 5);
type = Stem;
},
{
place = (363, 83);
place = (363, 83);
type = Stem;
},
{
place = (28, 71);
place = (28, 71);
type = Stem;
}
);
layerId = m01;
shapes = (
{
closed = 1;
nodes = (
(563,660,l),
(574,700,l),
(192,700,l),
(145,530,l),
(170,530,l),
(184,580,o),
(194,613,o),
(241,613,cs),
(477,613,l),
(214,384,l),
(227,365,l),
(243,373,o),
(257,380,o),
(288,380,cs),
(364,380,o),
(393,308,o),
(363,199,cs),
(330,84,o),
(261,10,o),
(162,10,cs),
(77,10,o),
(67,105,o),
(129,177,c),
(120,184,o),
(109,188,o),
(96,188,cs),
(61,188,o),
(17,161,o),
(4,115,cs),
(-20,29,o),
(69,-12,o),
(160,-12,cs),
(298,-12,o),
(433,83,o),
(466,201,cs),
(500,322,o),
(439,406,o),
(336,406,cs),
(307,406,o),
(282,401,o),
(255,391,c)
);
}
);
width = 500;
}
);
note = three;
unicode = 51;
},
{
color = 5;
glyphname = four;
lastChange = "2026-06-08 18:14:28 +0000";
layers = (
{
hints = (
{
horizontal = 1;
place = (-46, -23);
place = (-46, -23);
type = Stem;
},
{
horizontal = 1;
place = (128, -16);
place = (128, -16);
type = Stem;
},
{
horizontal = 1;
place = (661, -20);
target = down;
type = TopGhost;
},
{
place = (229, 50);
place = (229, 50);
type = Stem;
}
);
layerId = m01;
shapes = (
{
closed = 1;
nodes = (
(256,174,l),
(23,174,l),
(429,707,l),
(519,707,l),
(71,204,l),
(264,204,l),
(299,329,l),
(317,329,o),
(352,358,o),
(367,412,c),
(418,412,l),
(360,204,l),
(454,204,l),
(446,174,l),
(352,174,l),
(338,125,ls),
(318,54,o),
(327,23,o),
(388,23,c),
(382,0,l),
(127,0,l),
(133,23,l),
(194,23,o),
(222,54,o),
(242,125,cs)
);
}
);
width = 500;
}
);
note = four;
unicode = 52;
},
{
color = 5;
glyphname = five;
lastChange = "2026-06-08 18:14:28 +0000";
layers = (
{
hints = (
{
horizontal = 1;
place = (-3, 31);
place = (-3, 31);
type = Stem;
},
{
horizontal = 1;
place = (424, 39);
place = (424, 39);
type = Stem;
},
{
horizontal = 1;
place = (720, -20);
target = down;
type = TopGhost;
},
{
place = (56, 100);
place = (56, 100);
type = Stem;
},
{
place = (383, 111);
place = (383, 111);
type = Stem;
},
{
horizontal = 1;
place = (610, 89);
place = (610, 89);
type = Stem;
},
{
horizontal = 1;
place = (718, -20);
target = down;
type = TopGhost;
}
);
layerId = m01;
shapes = (
{
closed = 1;
nodes = (
(302,-12,o),
(433,107,o),
(467,230,cs),
(502,356,o),
(447,445,o),
(314,445,cs),
(255,445,o),
(189,423,o),
(151,382,c),
(233,620,l),
(264,607,o),
(299,601,o),
(337,601,cs),
(410,601,o),
(486,627,o),
(553,670,c),
(555,709,l),
(510,690,o),
(462,681,o),
(413,681,cs),
(359,681,o),
(298,690,o),
(269,711,c),
(235,705,l),
(109,342,l),
(119,340,o),
(129,337,o),
(137,332,c),
(189,387,o),
(242,415,o),
(290,415,cs),
(372,415,o),
(398,347,o),
(362,220,cs),
(329,99,o),
(270,10,o),
(164,10,cs),
(79,10,o),
(69,105,o),
(131,177,c),
(122,184,o),
(111,188,o),
(98,188,cs),
(63,188,o),
(19,161,o),
(6,115,cs),
(-18,29,o),
(71,-12,o),
(162,-12,cs)
);
}
);
width = 500;
}
);
note = five;
unicode = 53;
},
{
color = 5;
glyphname = six;
lastChange = "2026-06-08 18:14:28 +0000";
layers = (
{
hints = (
{
horizontal = 1;
place = (-128, -93);
place = (-128, -93);
type = Stem;
},
{
horizontal = 1;
place = (294, -93);
place = (294, -93);
type = Stem;
},
{
horizontal = 1;
place = (572, -90);
place = (572, -90);
type = Stem;
},
{
place = (-61, -18);
place = (-61, -18);
type = Stem;
},
{
place = (263, -25);
place = (263, -25);
type = Stem;
},
{
place = (294, -13);
place = (294, -13);
type = Stem;
}
);
layerId = m01;
shapes = (
{
closed = 1;
nodes = (
(458,687,o),
(477,615,o),
(423,551,c),
(433,543,o),
(445,538,o),
(459,538,cs),
(492,538,o),
(530,561,o),
(542,604,cs),
(564,685,o),
(474,712,o),
(411,712,cs),
(245,712,o),
(101,508,o),
(43,302,cs),
(-7,121,o),
(32,-13,o),
(180,-13,cs),
(317,-13,o),
(441,89,o),
(479,224,cs),
(511,341,o),
(451,431,o),
(332,431,cs),
(264,431,o),
(190,392,o),
(148,329,c),
(206,539,o),
(288,687,o),
(390,687,cs)
);
},
{
closed = 1;
nodes = (
(151,312,o),
(224,409,o),
(307,409,cs),
(394,409,o),
(405,325,o),
(371,205,cs),
(332,63,o),
(274,9,o),
(190,9,cs),
(113,9,o),
(84,70,o),
(125,217,cs)
);
}
);
width = 500;
}
);
note = six;
unicode = 54;
},
{
color = 5;
glyphname = seven;
lastChange = "2026-06-08 18:14:28 +0000";
layers = (
{
hints = (
{
horizontal = 1;
place = (-102, 21);
target = up;
type = BottomGhost;
},
{
horizontal = 1;
place = (511, -15);
place = (511, -15);
type = Stem;
},
{
place = (-49, -77);
place = (-49, -77);
type = Stem;
}
);
layerId = m01;
shapes = (
{
closed = 1;
nodes = (
(574,700,l),
(192,700,l),
(145,530,l),
(170,530,l),
(184,580,o),
(214,613,o),
(261,613,cs),
(504,613,l),
(66,0,l),
(146,0,l),
(563,660,l)
);
}
);
width = 500;
}
);
note = seven;
unicode = 55;
},
{
color = 5;
glyphname = eight;
lastChange = "2026-06-08 18:14:28 +0000";
layers = (
{
hints = (
{
horizontal = 1;
place = (-39, -2);
place = (-39, -2);
type = Stem;
},
{
horizontal = 1;
place = (660, -2);
place = (660, -2);
type = Stem;
},
{
place = (24, 39);
place = (24, 39);
type = Stem;
},
{
place = (379, 60);
place = (379, 60);
type = Stem;
},
{
place = (49, 56);
place = (49, 56);
type = Stem;
},
{
place = (370, 35);
place = (370, 35);
type = Stem;
}
);
layerId = m01;
shapes = (
{
closed = 1;
nodes = (
(490,281,o),
(450,349,o),
(350,390,c),
(446,418,o),
(511,477,o),
(532,551,cs),
(558,645,o),
(494,712,o),
(393,712,cs),
(283,712,o),
(173,637,o),
(142,528,cs),
(120,449,o),
(158,383,o),
(231,352,c),
(127,326,o),
(41,254,o),
(15,162,cs),
(-14,59,o),
(47,-12,o),
(180,-12,cs),
(316,-12,o),
(430,66,o),
(465,191,cs)
);
},
{
closed = 1;
nodes = (
(448,472,o),
(399,424,o),
(326,399,c),
(227,448,o),
(211,477,o),
(233,554,cs),
(255,633,o),
(321,687,o),
(383,687,cs),
(461,687,o),
(494,637,o),
(470,550,cs)
);
},
{
closed = 1;
nodes = (
(351,93,o),
(276,13,o),
(192,13,cs),
(102,13,o),
(54,64,o),
(81,161,cs),
(106,250,o),
(173,318,o),
(258,343,c),
(324,316,o),
(405,288,o),
(371,165,cs)
);
}
);
width = 500;
}
);
note = eight;
unicode = 56;
},
{
color = 5;
glyphname = nine;
lastChange = "2026-06-09 07:19:49 +0000";
layers = (
{
hints = (
{
horizontal = 1;
place = (-103, -65);
place = (-103, -65);
type = Stem;
},
{
horizontal = 1;
place = (178, -68);
place = (178, -68);
type = Stem;
},
{
horizontal = 1;
place = (600, -68);
place = (600, -68);
type = Stem;
},
{
place = (-3, 0);
place = (-3, 0);
type = Stem;
},
{
place = (314, 7);
place = (314, 7);
type = Stem;
},
{
place = (-46, 12);
place = (-46, 12);
type = Stem;
}
);
layerId = m01;
shapes = (
{
closed = 1;
nodes = (
(130,12,o),
(111,84,o),
(165,148,c),
(156,156,o),
(143,161,o),
(129,161,cs),
(96,161,o),
(59,138,o),
(47,95,cs),
(24,14,o),
(114,-13,o),
(177,-13,cs),
(343,-13,o),
(487,191,o),
(545,397,cs),
(595,578,o),
(556,712,o),
(408,712,cs),
(271,712,o),
(147,610,o),
(110,475,cs),
(77,358,o),
(137,268,o),
(256,268,cs),
(324,268,o),
(398,307,o),
(440,370,c),
(382,160,o),
(300,12,o),
(198,12,cs)
);
},
{
closed = 1;
nodes = (
(437,387,o),
(364,290,o),
(281,290,cs),
(194,290,o),
(183,374,o),
(217,494,cs),
(257,636,o),
(315,690,o),
(399,690,cs),
(476,690,o),
(505,629,o),
(464,482,cs)
);
}
);
width = 549;
}
);
note = nine;
unicode = 57;
},
{
color = 5;
glyphname = colon;
lastChange = "2026-06-09 07:26:45 +0000";
layers = (
{
hints = (
{
horizontal = 1;
place = (91, 232);
place = (91, 232);
type = Stem;
},
{
horizontal = 1;
place = (438, 234);
place = (438, 234);
type = Stem;
},
{
place = (168, 233);
place = (168, 233);
type = Stem;
}
);
layerId = m01;
shapes = (
{
closed = 1;
nodes = (
(175,75,o),
(150,100,o),
(118,100,cs),
(88,100,o),
(62,73,o),
(62,43,cs),
(62,12,o),
(89,-14,o),
(118,-14,cs),
(150,-14,o),
(175,12,o),
(175,42,cs)
);
},
{
closed = 1;
nodes = (
(275,422,o),
(250,447,o),
(218,447,cs),
(188,447,o),
(162,420,o),
(162,390,cs),
(162,359,o),
(189,333,o),
(218,333,cs),
(250,333,o),
(275,359,o),
(275,389,cs)
);
}
);
width = 333;
}
);
note = colon;
unicode = 58;
},
{
color = 5;
glyphname = semicolon;
lastChange = "2026-06-09 07:26:45 +0000";
layers = (
{
hints = (
{
horizontal = 1;
place = (457, 253);
place = (457, 253);
type = Stem;
},
{
place = (250, 202);
place = (250, 202);
type = Stem;
},
{
place = (188, 251);
place = (188, 251);
type = Stem;
}
);
layerId = m01;
shapes = (
{
closed = 1;
nodes = (
(38,-100,l),
(117,-94,o),
(177,-39,o),
(191,15,cs),
(204,64,o),
(176,99,o),
(140,109,cs),
(100,119,o),
(72,96,o),
(56,63,c),
(136,26,o),
(106,-61,o),
(36,-74,c)
);
},
{
closed = 1;
nodes = (
(264,422,o),
(239,447,o),
(207,447,cs),
(177,447,o),
(151,420,o),
(151,390,cs),
(151,359,o),
(178,333,o),
(207,333,cs),
(239,333,o),
(264,359,o),
(264,389,cs)
);
}
);
width = 333;
}
);
note = semicolon;
unicode = 59;
},
{
color = 5;
glyphname = less;
lastChange = "2026-06-09 07:26:45 +0000";
layers = (
{
hints = (
{
horizontal = 1;
place = (-139, 542);
place = (-139, 542);
type = Stem;
},
{
place = (-76, 361);
place = (-76, 361);
type = Stem;
}
);
layerId = m01;
shapes = (
{
closed = 1;
nodes = (
(470,0,l),
(143,271,l),
(622,543,l),
(634,589,l),
(95,284,l),
(88,258,l),
(457,-46,l)
);
}
);
width = 616;
}
);
note = less;
unicode = 60;
},
{
color = 5;
glyphname = greater;
lastChange = "2026-06-09 07:26:45 +0000";
layers = (
{
hints = (
{
horizontal = 1;
place = (10, 691);
place = (10, 691);
type = Stem;
},
{
place = (92, 510);
place = (92, 510);
type = Stem;
}
);
layerId = m01;
shapes = (
{
closed = 1;
nodes = (
(6,-46,l),
(545,258,l),
(552,284,l),
(183,589,l),
(171,543,l),
(498,271,l),
(19,0,l)
);
}
);
width = 615;
}
);
note = greater;
unicode = 62;
},
{
color = 5;
glyphname = question;
lastChange = "2026-06-09 07:26:45 +0000";
layers = (
{
hints = (
{
horizontal = 1;
place = (-142, -1);
place = (-142, -1);
type = Stem;
},
{
horizontal = 1;
place = (560, -106);
place = (560, -106);
type = Stem;
},
{
place = (-94, -51);
place = (-94, -51);
type = Stem;
},
{
place = (40, -104);
place = (40, -104);
type = Stem;
},
{
place = (166, -39);
place = (166, -39);
type = Stem;
},
{
place = (-8, 0);
place = (-8, 0);
type = Stem;
}
);
layerId = m01;
shapes = (
{
closed = 1;
nodes = (
(417,688,o),
(437,661,o),
(437,617,cs),
(437,461,o),
(261,417,o),
(219,269,cs),
(211,240,o),
(204,211,o),
(198,182,c),
(220,182,l),
(222,193,o),
(225,204,o),
(228,215,cs),
(274,380,o),
(522,424,o),
(522,599,cs),
(522,676,o),
(455,710,o),
(378,710,cs),
(308,710,o),
(173,663,o),
(173,576,cs),
(173,552,o),
(191,534,o),
(216,534,cs),
(227,534,o),
(239,538,o),
(252,545,c),
(250,552,o),
(248,560,o),
(248,571,cs),
(248,624,o),
(307,688,o),
(368,688,cs)
);
},
{
closed = 1;
nodes = (
(239,75,o),
(214,100,o),
(182,100,cs),
(152,100,o),
(126,73,o),
(126,43,cs),
(126,12,o),
(153,-14,o),
(182,-14,cs),
(214,-14,o),
(239,12,o),
(239,42,cs)
);
}
);
width = 500;
}
);
note = question;
unicode = 63;
},
{
color = 5;
glyphname = at;
lastChange = "2026-06-08 18:14:28 +0000";
layers = (
{
layerId = m01;
shapes = (
{
closed = 1;
nodes = (
(571,386,o),
(497,279,o),
(481,256,cs),
(456,224,o),
(419,182,o),
(369,182,cs),
(311,182,o),
(311,241,o),
(323,282,cs),
(349,376,o),
(458,516,o),
(539,516,cs),
(585,516,o),
(597,478,o),
(589,449,cs)
);
},
{
closed = 1;
nodes = (
(648,529,l),
(611,466,l),
(616,536,o),
(557,540,o),
(535,540,cs),
(439,540,o),
(291,428,o),
(255,301,cs),
(234,224,o),
(271,158,o),
(351,158,cs),
(403,158,o),
(455,187,o),
(499,247,c),
(493,219,o),
(485,158,o),
(573,158,cs),
(685,158,o),
(827,297,o),
(865,434,cs),
(912,601,o),
(813,729,o),
(615,729,cs),
(384,729,o),
(148,553,o),
(88,340,cs),
(28,123,o),
(167,-14,o),
(374,-14,cs),
(523,-14,o),
(628,45,o),
(694,84,c),
(686,102,l),
(578,33,o),
(473,7,o),
(389,7,cs),
(166,7,o),
(63,152,o),
(115,338,cs),
(166,522,o),
(378,708,o),
(612,708,cs),
(809,708,o),
(886,580,o),
(845,433,cs),
(809,303,o),
(676,183,o),
(589,183,cs),
(558,183,o),
(536,199,o),
(547,239,cs),
(550,250,o),
(557,268,o),
(573,297,cs),
(706,529,l),
(706,529,l)
);
}
);
width = 869;
}
);
note = at;
unicode = 64;
},
{
color = 5;
glyphname = A;
lastChange = "2026-06-09 07:54:44 +0000";
layers = (
{
anchors = (
{
name = bottom;
pos = (240,0);
},
{
name = ogonek;
pos = (493,0);
},
{
name = top;
pos = (619,760);
}
);
hints = (
{
horizontal = 1;
place = (93, 116);
place = (93, 116);
type = Stem;
},
{
horizontal = 1;
place = (339, 120);
place = (339, 120);
type = Stem;
},
{
horizontal = 1;
place = (811, -20);
target = down;
type = TopGhost;
},
{
place = (100, 770);
place = (100, 770);
type = Stem;
},
{
place = (100, 212);
place = (100, 212);
type = Stem;
}
);
layerId = m01;
shapes = (
{
closed = 1;
nodes = (
(260,273,l),
(491,560,l),
(466,273,l)
);
},
{
closed = 1;
nodes = (
(454,139,ls),
(445,38,o),
(428,23,o),
(357,23,c),
(347,0,l),
(615,0,l),
(625,23,l),
(559,23,o),
(558,43,o),
(568,161,cs),
(613,718,l),
(586,718,l),
(127,145,ls),
(38,33,o),
(19,23,o),
(-52,23,c),
(-62,0,l),
(138,0,l),
(148,23,l),
(77,23,o),
(70,45,o),
(162,155,cs),
(238,246,l),
(464,246,l)
);
}
);
width = 677;
}
);
note = A;
unicode = 65;
},
{
color = 5;
glyphname = B;
lastChange = "2026-06-09 07:54:44 +0000";
layers = (
{
anchors = (
{
name = bottom;
pos = (301,0);
},
{
name = top;
pos = (509,760);
}
);
hints = (
{
horizontal = 1;
place = (79, 102);
place = (79, 102);
type = Stem;
},
{
horizontal = 1;
place = (435, 102);
place = (435, 102);
type = Stem;
},
{
horizontal = 1;
place = (759, 104);
place = (759, 104);
type = Stem;
},
{
place = (212, 179);
place = (212, 179);
type = Stem;
},
{
place = (562, 192);
place = (562, 192);
type = Stem;
},
{
place = (539, 184);
place = (539, 184);
type = Stem;
},
{
horizontal = 1;
place = (82, 103);
place = (82, 103);
type = Stem;
},
{
horizontal = 1;
place = (758, 104);
place = (758, 104);
type = Stem;
}
);
layerId = m01;
shapes = (
{
closed = 1;
nodes = (
(331,375,o),
(306,376,o),
(281,379,c),
(371,675,l),
(394,676,o),
(423,678,o),
(443,678,cs),
(522,678,o),
(563,658,o),
(563,587,cs),
(563,477,o),
(482,375,o),
(356,375,cs)
);
},
{
closed = 1;
nodes = (
(243,19,o),
(209,21,o),
(179,32,c),
(187,60,o),
(193,84,o),
(202,113,cs),
(274,355,l),
(312,353,o),
(355,352,o),
(401,354,c),
(452,346,o),
(484,303,o),
(484,233,cs),
(484,129,o),
(402,19,o),
(281,19,cs)
);
},
{
closed = 1;
nodes = (
(183,676,l),
(254,676,o),
(264,645,o),
(237,556,cs),
(113,143,ls),
(86,54,o),
(58,23,o),
(-13,23,c),
(-20,0,l),
(27,0,o),
(75,1,o),
(118,1,cs),
(156,1,o),
(255,-2,o),
(292,-2,cs),
(440,-2,o),
(597,81,o),
(597,237,cs),
(597,317,o),
(544,361,o),
(455,367,c),
(561,386,o),
(673,466,o),
(673,573,cs),
(673,661,o),
(607,701,o),
(504,701,cs),
(450,701,o),
(395,698,o),
(329,698,cs),
(275,698,o),
(232,700,o),
(190,700,c)
);
}
);
width = 652;
}
);
note = B;
unicode = 66;
},
{
color = 5;
glyphname = C;
lastChange = "2026-06-09 07:54:44 +0000";
layers = (
{
anchors = (
{
name = bottom;
pos = (341,0);
},
{
name = top;
pos = (536,760);
}
);
hints = (
{
horizontal = 1;
place = (-65, -27);
place = (-65, -27);
type = Stem;
},
{
horizontal = 1;
place = (639, -28);
place = (639, -28);
type = Stem;
},
{
place = (-9, 65);
place = (-9, 65);
type = Stem;
},
{
place = (497, -27);
place = (497, -27);
type = Stem;
},
{
place = (510, -27);
place = (510, -27);
type = Stem;
},
{
horizontal = 1;
place = (459, 137);
place = (459, 137);
type = Stem;
},
{
horizontal = 1;
place = (-52, 21);
target = up;
type = BottomGhost;
}
);
layerId = m01;
shapes = (
{
closed = 1;
nodes = (
(576,200,l),
(523,44,o),
(442,12,o),
(356,12,cs),
(245,12,o),
(192,87,o),
(192,246,cs),
(192,418,o),
(282,690,o),
(488,690,cs),
(595,690,o),
(646,632,o),
(629,510,c),
(654,510,l),
(694,698,l),
(669,698,l),
(659,683,o),
(651,678,o),
(642,678,cs),
(617,678,o),
(574,714,o),
(487,714,cs),
(257,714,o),
(78,492,o),
(78,275,cs),
(78,92,o),
(170,-13,o),
(331,-13,cs),
(427,-13,o),
(489,27,o),
(513,27,cs),
(526,27,o),
(536,23,o),
(534,0,c),
(559,0,l),
(601,200,l)
);
}
);
width = 659;
}
);
note = C;
unicode = 67;
},
{
color = 5;
glyphname = D;
lastChange = "2026-06-13 19:33:27 +0000";
layers = (
{
anchors = (
{
name = bottom;
pos = (229,0);
},
{
name = top;
pos = (520,760);
}
);
hints = (
{
horizontal = 1;
place = (300, 321);
place = (300, 321);
type = Stem;
},
{
horizontal = 1;
place = (977, 321);
place = (977, 321);
type = Stem;
},
{
place = (426, 396);
place = (426, 396);
type = Stem;
},
{
place = (864, 409);
place = (864, 409);
type = Stem;
},
{
horizontal = 1;
place = (297, 320);
place = (297, 320);
type = Stem;
}
);
layerId = m01;
shapes = (
{
closed = 1;
nodes = (
(237,19,o),
(205,24,o),
(176,32,c),
(364,673,l),
(398,676,o),
(427,678,o),
(457,678,cs),
(572,678,o),
(641,632,o),
(638,494,cs),
(633,299,o),
(510,19,o),
(273,19,cs)
);
},
{
closed = 1;
nodes = (
(178,676,l),
(249,676,o),
(259,645,o),
(233,556,cs),
(112,143,ls),
(86,54,o),
(58,23,o),
(-13,23,c),
(-20,0,l),
(27,0,o),
(69,1,o),
(119,1,cs),
(163,1,o),
(209,-2,o),
(265,-2,cs),
(530,-2,o),
(734,212,o),
(741,460,cs),
(745,625,o),
(642,700,o),
(469,700,cs),
(399,700,o),
(363,698,o),
(304,698,cs),
(264,698,o),
(226,699,o),
(185,700,c)
);
}
);
width = 726;
}
);
note = D;
unicode = 68;
},
{
color = 5;
glyphname = E;
lastChange = "2026-06-09 07:54:44 +0000";
layers = (
{
anchors = (
{
name = bottom;
pos = (288,0);
},
{
name = ogonek;
pos = (515,0);
},
{
name = top;
pos = (504,760);
}
);
hints = (
{
horizontal = 1;
place = (283, 306);
place = (283, 306);
type = Stem;
},
{
horizontal = 1;
place = (629, 308);
place = (629, 308);
type = Stem;
},
{
horizontal = 1;
place = (960, 306);
place = (960, 306);
type = Stem;
},
{
place = (414, 379);
place = (414, 379);
type = Stem;
},
{
place = (696, 309);
place = (696, 309);
type = Stem;
},
{
place = (821, 308);
place = (821, 308);
type = Stem;
},
{
place = (851, 303);
place = (851, 303);
type = Stem;
}
);
layerId = m01;
shapes = (
{
closed = 1;
nodes = (
(-20,0,l),
(527,0,l),
(590,223,l),
(564,223,l),
(515,74,o),
(429,23,o),
(269,23,cs),
(235,23,o),
(209,24,o),
(177,25,c),
(185,65,o),
(196,105,o),
(209,150,cs),
(264,346,l),
(311,346,ls),
(398,346,o),
(443,336,o),
(415,222,c),
(441,222,l),
(518,491,l),
(492,491,l),
(465,407,o),
(428,371,o),
(360,371,cs),
(272,371,l),
(358,677,l),
(556,671,o),
(656,693,o),
(621,507,c),
(647,507,l),
(664,572,o),
(683,636,o),
(700,700,c),
(178,700,l),
(172,676,l),
(243,676,o),
(253,645,o),
(228,556,cs),
(110,143,ls),
(85,54,o),
(57,23,o),
(-14,23,c)
);
}
);
width = 621;
}
);
note = E;
unicode = 69;
},
{
color = 5;
glyphname = F;
lastChange = "2026-06-09 07:54:44 +0000";
layers = (
{
anchors = (
{
name = bottom;
pos = (116,0);
},
{
name = top;
pos = (468,760);
}
);
hints = (
{
horizontal = 1;
place = (282, 305);
place = (282, 305);
type = Stem;
},
{
horizontal = 1;
place = (626, 307);
place = (626, 307);
type = Stem;
},
{
horizontal = 1;
place = (965, 305);
place = (965, 305);
type = Stem;
},
{
place = (409, 379);
place = (409, 379);
type = Stem;
},
{
place = (691, 308);
place = (691, 308);
type = Stem;
},
{
place = (815, 309);
place = (815, 309);
type = Stem;
}
);
layerId = m01;
shapes = (
{
closed = 1;
nodes = (
(267,344,l),
(357,344,ls),
(414,344,o),
(442,310,o),
(417,220,c),
(443,220,l),
(522,489,l),
(496,489,l),
(468,400,o),
(427,369,o),
(356,369,cs),
(275,369,l),
(366,677,l),
(566,671,o),
(662,693,o),
(626,507,c),
(653,507,l),
(709,700,l),
(186,700,l),
(179,676,l),
(250,676,o),
(260,645,o),
(234,556,cs),
(112,143,ls),
(86,54,o),
(57,23,o),
(-14,23,c),
(-20,0,l),
(256,0,l),
(262,23,l),
(191,23,o),
(182,54,o),
(208,143,cs)
);
}
);
width = 612;
}
);
note = F;
unicode = 70;
},
{
color = 5;
glyphname = G;
lastChange = "2026-06-09 07:54:44 +0000";
layers = (
{
anchors = (
{
name = bottom;
pos = (294,0);
},
{
name = top;
pos = (564,760);
}
);
hints = (
{
horizontal = 1;
place = (-23, 17);
place = (-23, 17);
type = Stem;
},
{
horizontal = 1;
place = (247, 15);
place = (247, 15);
type = Stem;
},
{
horizontal = 1;
place = (681, 15);
place = (681, 15);
type = Stem;
},
{
place = (44, 106);
place = (44, 106);
type = Stem;
},
{
place = (565, 16);
place = (565, 16);
type = Stem;
},
{
horizontal = 1;
place = (501, 179);
place = (501, 179);
type = Stem;
},
{
place = (509, 85);
place = (509, 85);
type = Stem;
}
);
layerId = m01;
shapes = (
{
closed = 1;
nodes = (
(547,31,l),
(533,34,o),
(521,35,o),
(510,35,cs),
(485,35,o),
(463,29,o),
(432,18,cs),
(395,5,o),
(345,-13,o),
(285,-13,cs),
(146,-13,o),
(64,79,o),
(64,227,cs),
(64,450,o),
(283,714,o),
(523,714,cs),
(615,714,o),
(656,678,o),
(683,678,cs),
(693,678,o),
(705,682,o),
(714,698,c),
(739,698,l),
(682,510,l),
(657,510,l),
(685,632,o),
(621,690,o),
(523,690,cs),
(299,690,o),
(170,370,o),
(170,185,cs),
(170,73,o),
(214,13,o),
(299,13,cs),
(387,13,o),
(465,46,o),
(491,151,cs),
(496,171,ls),
(512,235,o),
(501,256,o),
(421,256,c),
(428,280,l),
(679,280,l),
(672,256,l),
(630,256,o),
(614,247,o),
(594,183,cs)
);
}
);
width = 704;
}
);
note = G;
unicode = 71;
},
{
color = 5;
glyphname = H;
lastChange = "2026-06-09 07:54:44 +0000";
layers = (
{
anchors = (
{
name = bottom;
pos = (308,0);
},
{
name = top;
pos = (524,760);
}
);
hints = (
{
horizontal = 1;
place = (281, 304);
place = (281, 304);
type = Stem;
},
{
horizontal = 1;
place = (629, 307);
place = (629, 307);
type = Stem;
},
{
horizontal = 1;
place = (964, 304);
place = (964, 304);
type = Stem;
},
{
place = (408, 378);
place = (408, 378);
type = Stem;
},
{
place = (800, 378);
place = (800, 378);
type = Stem;
}
);
layerId = m01;
shapes = (
{
closed = 1;
nodes = (
(257,348,l),
(553,348,l),
(493,143,ls),
(467,54,o),
(439,23,o),
(368,23,c),
(362,0,l),
(639,0,l),
(645,23,l),
(574,23,o),
(564,54,o),
(590,143,cs),
(710,556,ls),
(736,645,o),
(765,676,o),
(836,676,c),
(842,700,l),
(565,700,l),
(559,676,l),
(630,676,o),
(638,645,o),
(613,556,cs),
(561,374,l),
(265,374,l),
(317,556,l),
(343,645,o),
(372,676,o),
(443,676,c),
(449,700,l),
(173,700,l),
(167,676,l),
(238,676,o),
(247,645,o),
(221,556,cs),
(101,143,ls),
(75,54,o),
(47,23,o),
(-24,23,c),
(-30,0,l),
(246,0,l),
(252,23,l),
(181,23,o),
(171,54,o),
(197,143,cs)
);
}
);
width = 745;
}
);
note = H;
unicode = 72;
},
{
color = 5;
glyphname = I;
lastChange = "2026-06-09 07:54:44 +0000";
layers = (
{
anchors = (
{
name = bottom;
pos = (110,0);
},
{
name = ogonek;
pos = (196,0);
},
{
name = top;
pos = (331,760);
}
);
hints = (
{
horizontal = 1;
place = (309, 332);
place = (309, 332);
type = Stem;
},
{
horizontal = 1;
place = (986, 332);
place = (986, 332);
type = Stem;
},
{
place = (439, 411);
place = (439, 411);
type = Stem;
}
);
layerId = m01;
shapes = (
{
closed = 1;
nodes = (
(164,676,l),
(235,676,o),
(246,645,o),
(220,556,cs),
(101,143,ls),
(75,54,o),
(48,23,o),
(-23,23,c),
(-30,0,l),
(251,0,l),
(258,23,l),
(187,23,o),
(176,54,o),
(202,143,cs),
(321,556,ls),
(347,645,o),
(374,676,o),
(445,676,c),
(452,700,l),
(171,700,l)
);
}
);
width = 355;
}
);
note = I;
unicode = 73;
},
{
color = 5;
glyphname = J;
lastChange = "2026-06-09 07:54:44 +0000";
layers = (
{
anchors = (
{
name = bottom;
pos = (62,-118);
},
{
name = top;
pos = (430,760);
}
);
hints = (
{
horizontal = 1;
place = (172, 314);
place = (172, 314);
type = Stem;
},
{
horizontal = 1;
place = (967, 313);
place = (967, 313);
type = Stem;
},
{
place = (265, 369);
place = (265, 369);
type = Stem;
},
{
place = (455, 391);
place = (455, 391);
type = Stem;
}
);
layerId = m01;
shapes = (
{
closed = 1;
nodes = (
(170,46,ls),
(138,-57,o),
(111,-94,o),
(71,-94,cs),
(44,-94,o),
(29,-75,o),
(29,-50,cs),
(29,-26,o),
(46,-2,o),
(80,27,c),
(70,40,o),
(52,46,o),
(33,46,cs),
(-12,46,o),
(-46,13,o),
(-46,-32,cs),
(-46,-90,o),
(10,-118,o),
(62,-118,cs),
(157,-118,o),
(242,-47,o),
(284,87,cs),
(430,556,ls),
(458,645,o),
(486,676,o),
(557,676,c),
(565,700,l),
(284,700,l),
(276,676,l),
(347,676,o),
(357,645,o),
(329,556,cs)
);
}
);
width = 468;
}
);
note = J;
unicode = 74;
},
{
color = 5;
glyphname = K;
lastChange = "2026-06-09 07:54:44 +0000";
layers = (
{
anchors = (
{
name = bottom;
pos = (322,0);
},
{
name = top;
pos = (535,760);
}
);
hints = (
{
horizontal = 1;
place = (312, 335);
place = (312, 335);
type = Stem;
},
{
horizontal = 1;
place = (989, 335);
place = (989, 335);
type = Stem;
},
{
place = (432, 411);
place = (432, 411);
type = Stem;
}
);
layerId = m01;
shapes = (
{
closed = 1;
nodes = (
(237,271,l),
(321,343,l),
(444,71,ls),
(457,43,o),
(436,23,o),
(377,23,c),
(370,0,l),
(654,0,l),
(661,23,l),
(585,23,o),
(577,44,o),
(560,84,cs),
(415,426,l),
(596,584,l),
(687,667,o),
(706,676,o),
(786,676,c),
(793,700,l),
(575,700,l),
(568,676,l),
(634,676,o),
(638,648,o),
(587,604,cs),
(250,312,l),
(322,556,ls),
(348,645,o),
(375,676,o),
(446,676,c),
(453,700,l),
(176,700,l),
(169,676,l),
(240,676,o),
(249,645,o),
(223,556,cs),
(101,143,ls),
(75,54,o),
(48,23,o),
(-23,23,c),
(-30,0,l),
(246,0,l),
(253,23,l),
(182,23,o),
(173,54,o),
(199,143,cs)
);
}
);
width = 760;
}
);
note = K;
unicode = 75;
},
{
color = 5;
glyphname = L;
lastChange = "2026-06-09 07:54:44 +0000";
layers = (
{
anchors = (
{
name = bottom;
pos = (255,0);
},
{
name = caron;
pos = (501,485);
},
{
name = top;
pos = (371,760);
}
);
hints = (
{
horizontal = 1;
place = (327, 350);
place = (327, 350);
type = Stem;
},
{
horizontal = 1;
place = (1004, 350);
place = (1004, 350);
type = Stem;
},
{
place = (454, 424);
place = (454, 424);
type = Stem;
},
{
place = (874, 350);
place = (874, 350);
type = Stem;
}
);
layerId = m01;
shapes = (
{
closed = 1;
nodes = (
(207,104,ls),
(199,76,o),
(192,50,o),
(186,26,c),
(217,24,o),
(236,23,o),
(270,23,cs),
(283,23,o),
(309,23,o),
(322,24,cs),
(440,33,o),
(521,98,o),
(565,222,c),
(591,222,l),
(520,0,l),
(-10,0,l),
(-4,22,l),
(67,22,o),
(95,53,o),
(121,142,cs),
(241,555,ls),
(267,644,o),
(257,675,o),
(186,675,c),
(193,700,l),
(470,700,l),
(463,675,l),
(392,675,o),
(364,644,o),
(338,555,cs)
);
}
);
width = 635;
}
);
note = L;
unicode = 76;
},
{
color = 5;
glyphname = M;
lastChange = "2026-06-09 07:54:44 +0000";
layers = (
{
anchors = (
{
name = bottom;
pos = (330,0);
},
{
name = top;
pos = (591,760);
}
);
hints = (
{
horizontal = 1;
place = (247, 270);
place = (247, 270);
type = Stem;
},
{
horizontal = 1;
place = (924, 270);
place = (924, 270);
type = Stem;
},
{
place = (382, 272);
place = (382, 272);
type = Stem;
},
{
place = (875, 345);
place = (875, 345);
type = Stem;
}
);
layerId = m01;
shapes = (
{
closed = 1;
nodes = (
(114,143,ls),
(88,54,o),
(58,23,o),
(-13,23,c),
(-20,0,l),
(188,0,l),
(195,23,l),
(124,23,o),
(113,54,o),
(139,143,cs),
(281,624,l),
(321,3,l),
(337,3,l),
(755,644,l),
(607,143,ls),
(581,54,o),
(553,23,o),
(482,23,c),
(475,0,l),
(752,0,l),
(759,23,l),
(688,23,o),
(678,54,o),
(704,143,cs),
(825,556,ls),
(851,645,o),
(879,676,o),
(951,676,c),
(959,700,l),
(766,700,l),
(418,170,l),
(382,700,l),
(189,700,l),
(181,676,l),
(253,676,o),
(261,645,o),
(235,556,cs)
);
}
);
width = 872;
}
);
note = M;
unicode = 77;
},
{
color = 5;
glyphname = N;
lastChange = "2026-06-09 07:54:44 +0000";
layers = (
{
anchors = (
{
name = bottom;
pos = (323,0);
},
{
name = top;
pos = (534,760);
}
);
hints = (
{
horizontal = 1;
place = (277, 300);
place = (277, 300);
type = Stem;
},
{
horizontal = 1;
place = (954, 300);
place = (954, 300);
type = Stem;
},
{
place = (402, 302);
place = (402, 302);
type = Stem;
},
{
place = (839, 302);
place = (839, 302);
type = Stem;
},
{
horizontal = 1;
place = (265, 21);
target = up;
type = BottomGhost;
}
);
layerId = m01;
shapes = (
{
closed = 1;
nodes = (
(560,180,l),
(370,700,l),
(182,700,l),
(175,676,l),
(247,676,o),
(255,645,o),
(230,556,cs),
(113,143,ls),
(88,54,o),
(58,23,o),
(-13,23,c),
(-20,0,l),
(188,0,l),
(195,23,l),
(124,23,o),
(113,54,o),
(138,143,cs),
(277,635,l),
(510,-12,l),
(531,-12,l),
(692,557,ls),
(717,646,o),
(746,677,o),
(817,677,c),
(823,700,l),
(615,700,l),
(609,677,l),
(680,677,o),
(692,646,o),
(667,557,cs)
);
}
);
width = 736;
}
);
note = N;
unicode = 78;
},
{
color = 5;
glyphname = O;
lastChange = "2026-06-13 19:26:42 +0000";
layers = (
{
anchors = (
{
name = bottom;
pos = (349,0);
},
{
name = top;
pos = (590,760);
}
);
hints = (
{
horizontal = 1;
place = (32, 70);
place = (32, 70);
type = Stem;
},
{
horizontal = 1;
place = (735, 69);
place = (735, 69);
type = Stem;
},
{
place = (98, 160);
place = (98, 160);
type = Stem;
},
{
place = (665, 160);
place = (665, 160);
type = Stem;
}
);
layerId = m01;
shapes = (
{
closed = 1;
nodes = (
(806,603,o),
(700,714,o),
(548,714,cs),
(304,714,o),
(64,493,o),
(64,245,cs),
(64,92,o),
(171,-13,o),
(328,-13,cs),
(566,-13,o),
(806,213,o),
(806,454,cs)
);
},
{
closed = 1;
nodes = (
(253,12,o),
(179,78,o),
(179,222,cs),
(179,425,o),
(283,690,o),
(521,690,cs),
(630,690,o),
(692,614,o),
(692,483,cs),
(692,294,o),
(590,12,o),
(368,12,cs)
);
}
);
width = 803;
}
);
note = O;
unicode = 79;
},
{
color = 5;
glyphname = P;
lastChange = "2026-06-09 07:54:44 +0000";
layers = (
{
anchors = (
{
name = bottom;
pos = (278,0);
},
{
name = top;
pos = (488,760);
}
);
hints = (
{
horizontal = 1;
place = (284, 307);
place = (284, 307);
type = Stem;
},
{
horizontal = 1;
place = (594, 307);
place = (594, 307);
type = Stem;
},
{
horizontal = 1;
place = (962, 307);
place = (962, 307);
type = Stem;
},
{
place = (406, 381);
place = (406, 381);
type = Stem;
},
{
place = (737, 392);
place = (737, 392);
type = Stem;
},
{
horizontal = 1;
place = (961, 307);
place = (961, 307);
type = Stem;
}
);
layerId = m01;
shapes = (
{
closed = 1;
nodes = (
(306,333,o),
(284,334,o),
(255,337,c),
(356,676,l),
(376,677,o),
(396,678,o),
(417,678,cs),
(514,678,o),
(552,651,o),
(552,577,cs),
(552,459,o),
(473,333,o),
(332,333,cs)
);
},
{
closed = 1;
nodes = (
(249,313,l),
(275,311,o),
(298,310,o),
(323,310,cs),
(474,310,o),
(657,391,o),
(657,555,cs),
(657,655,o),
(585,701,o),
(463,701,cs),
(411,701,o),
(366,700,o),
(319,700,cs),
(176,700,l),
(169,676,l),
(240,676,o),
(249,645,o),
(223,556,cs),
(102,143,ls),
(76,54,o),
(48,23,o),
(-23,23,c),
(-30,0,l),
(247,0,l),
(254,23,l),
(183,23,o),
(173,54,o),
(199,143,cs)
);
}
);
width = 616;
}
);
note = P;
unicode = 80;
},
{
color = 5;
glyphname = Q;
lastChange = "2026-06-09 07:54:44 +0000";
layers = (
{
anchors = (
{
name = bottom;
pos = (281,-217);
},
{
name = top;
pos = (595,760);
}
);
hints = (
{
horizontal = 1;
place = (-171, 92);
place = (-171, 92);
type = Stem;
},
{
horizontal = 1;
place = (-69, 98);
place = (-69, 98);
type = Stem;
},
{
horizontal = 1;
place = (33, 71);
place = (33, 71);
type = Stem;
},
{
horizontal = 1;
place = (736, 70);
place = (736, 70);
type = Stem;
},
{
place = (99, 161);
place = (99, 161);
type = Stem;
},
{
place = (650, 90);
place = (650, 90);
type = Stem;
},
{
place = (666, 161);
place = (666, 161);
type = Stem;
}
);
layerId = m01;
shapes = (
{
closed = 1;
nodes = (
(356,-195,ls),
(376,-210,o),
(401,-217,o),
(426,-217,cs),
(498,-217,o),
(582,-150,o),
(582,-80,cs),
(582,-53,o),
(561,-35,o),
(534,-35,cs),
(511,-35,o),
(485,-50,o),
(471,-85,c),
(511,-92,o),
(523,-115,o),
(523,-134,cs),
(523,-151,o),
(512,-171,o),
(493,-171,cs),
(478,-171,o),
(460,-157,o),
(433,-137,cs),
(357,-79,ls),
(344,-69,o),
(329,-63,o),
(310,-63,cs),
(297,-63,o),
(281,-65,o),
(263,-71,c),
(281,-61,o),
(289,-56,o),
(319,-43,cs),
(360,-25,o),
(400,-14,o),
(447,1,cs),
(634,59,o),
(813,251,o),
(813,455,cs),
(813,604,o),
(708,714,o),
(556,714,cs),
(312,714,o),
(69,492,o),
(69,244,cs),
(69,91,o),
(176,-13,o),
(333,-13,cs),
(342,-13,o),
(353,-13,o),
(374,-9,c),
(342,-20,o),
(318,-29,o),
(298,-37,cs),
(241,-61,o),
(195,-95,o),
(165,-126,c),
(178,-139,l),
(200,-122,o),
(216,-115,o),
(230,-115,cs),
(248,-115,o),
(263,-124,o),
(279,-136,cs)
);
},
{
closed = 1;
nodes = (
(258,12,o),
(184,78,o),
(184,221,cs),
(184,426,o),
(292,690,o),
(530,690,cs),
(638,690,o),
(699,616,o),
(699,486,cs),
(699,297,o),
(595,12,o),
(373,12,cs)
);
}
);
width = 814;
}
);
note = Q;
unicode = 81;
},
{
color = 5;
glyphname = R;
lastChange = "2026-06-09 07:54:44 +0000";
layers = (
{
anchors = (
{
name = bottom;
pos = (278,0);
},
{
name = top;
pos = (480,760);
}
);
hints = (
{
horizontal = 1;
place = (275, 313);
place = (275, 313);
type = Stem;
},
{
horizontal = 1;
place = (626, 310);
place = (626, 310);
type = Stem;
},
{
horizontal = 1;
place = (966, 310);
place = (966, 310);
type = Stem;
},
{
place = (410, 385);
place = (410, 385);
type = Stem;
},
{
place = (705, 399);
place = (705, 399);
type = Stem;
},
{
horizontal = 1;
place = (288, 311);
place = (288, 311);
type = Stem;
},
{
place = (739, 394);
place = (739, 394);
type = Stem;
},
{
horizontal = 1;
place = (964, 311);
place = (964, 311);
type = Stem;
}
);
layerId = m01;
shapes = (
{
closed = 1;
nodes = (
(322,360,o),
(293,361,o),
(263,363,c),
(354,676,l),
(382,677,o),
(411,678,o),
(437,678,cs),
(508,678,o),
(551,652,o),
(551,577,cs),
(551,470,o),
(479,360,o),
(352,360,cs)
);
},
{
closed = 1;
nodes = (
(255,338,l),
(300,338,ls),
(383,338,o),
(427,298,o),
(408,188,cs),
(402,154,ls),
(385,58,o),
(393,-13,o),
(496,-13,cs),
(525,-13,o),
(551,-6,o),
(575,3,c),
(572,23,l),
(556,16,o),
(543,12,o),
(531,12,cs),
(488,12,o),
(505,87,o),
(511,140,cs),
(516,183,ls),
(528,289,o),
(479,319,o),
(416,344,c),
(535,359,o),
(655,448,o),
(655,566,cs),
(655,664,o),
(569,700,o),
(431,700,cs),
(386,700,o),
(353,699,o),
(312,699,cs),
(173,700,l),
(166,676,l),
(237,676,o),
(247,645,o),
(221,556,cs),
(102,143,ls),
(76,54,o),
(47,23,o),
(-24,23,c),
(-30,0,l),
(247,0,l),
(253,23,l),
(182,23,o),
(173,54,o),
(199,143,cs)
);
}
);
width = 656;
}
);
note = R;
unicode = 82;
},
{
color = 5;
glyphname = S;
lastChange = "2026-06-13 19:33:53 +0000";
layers = (
{
anchors = (
{
name = bottom;
pos = (217,0);
},
{
name = top;
pos = (402,760);
}
);
hints = (
{
horizontal = 1;
place = (354, 392);
place = (354, 392);
type = Stem;
},
{
horizontal = 1;
place = (1057, 391);
place = (1057, 391);
type = Stem;
},
{
place = (406, 392);
place = (406, 392);
type = Stem;
},
{
place = (788, 392);
place = (788, 392);
type = Stem;
},
{
place = (409, 451);
place = (409, 451);
type = Stem;
},
{
horizontal = 1;
place = (877, 555);
place = (877, 555);
type = Stem;
},
{
place = (768, 454);
place = (768, 454);
type = Stem;
},
{
horizontal = 1;
place = (367, 21);
target = up;
type = BottomGhost;
}
);
layerId = m01;
shapes = (
{
closed = 1;
nodes = (
(476,690,o),
(517,632,o),
(499,510,c),
(524,510,l),
(566,698,l),
(541,698,l),
(531,683,o),
(526,678,o),
(514,678,cs),
(489,678,o),
(459,714,o),
(376,714,cs),
(253,714,o),
(120,624,o),
(120,502,cs),
(120,404,o),
(206,362,o),
(300,325,cs),
(375,295,o),
(405,253,o),
(405,201,cs),
(405,99,o),
(311,12,o),
(210,12,cs),
(124,12,o),
(57,44,o),
(72,200,c),
(47,200,l),
(2,0,l),
(27,0,l),
(35,23,o),
(47,27,o),
(60,27,cs),
(84,27,o),
(118,-13,o),
(214,-13,cs),
(351,-13,o),
(498,84,o),
(498,227,cs),
(498,318,o),
(423,360,o),
(325,399,cs),
(254,428,o),
(208,456,o),
(208,524,cs),
(208,606,o),
(284,690,o),
(378,690,cs)
);
}
);
width = 540;
}
);
note = S;
unicode = 83;
},
{
color = 5;
glyphname = T;
lastChange = "2026-06-09 07:54:44 +0000";
layers = (
{
anchors = (
{
name = bottom;
pos = (233,0);
},
{
name = top;
pos = (442,760);
}
);
hints = (
{
horizontal = 1;
place = (-177, -154);
place = (-177, -154);
type = Stem;
},
{
horizontal = 1;
place = (500, -153);
place = (500, -153);
type = Stem;
},
{
place = (-149, -153);
place = (-149, -153);
type = Stem;
},
{
place = (94, -78);
place = (94, -78);
type = Stem;
},
{
place = (410, -153);
place = (410, -153);
type = Stem;
}
);
layerId = m01;
shapes = (
{
closed = 1;
nodes = (
(314,143,ls),
(288,54,o),
(297,23,o),
(368,23,c),
(362,0,l),
(86,0,l),
(92,23,l),
(163,23,o),
(192,54,o),
(218,143,cs),
(372,677,l),
(317,675,ls),
(211,671,o),
(152,628,o),
(105,504,c),
(80,504,l),
(137,700,l),
(718,700,l),
(663,504,l),
(638,504,l),
(661,628,o),
(628,671,o),
(524,675,cs),
(471,677,l),
(470,677,l)
);
}
);
width = 596;
}
);
note = T;
unicode = 84;
},
{
color = 5;
glyphname = U;
lastChange = "2026-06-09 07:54:44 +0000";
layers = (
{
anchors = (
{
name = bottom;
pos = (296,0);
},
{
name = ogonek;
pos = (322,0);
},
{
name = top;
pos = (558,760);
}
);
hints = (
{
horizontal = 1;
place = (-407, -370);
place = (-407, -370);
type = Stem;
},
{
horizontal = 1;
place = (284, -369);
place = (284, -369);
type = Stem;
},
{
place = (-276, -296);
place = (-276, -296);
type = Stem;
},
{
place = (186, -368);
place = (186, -368);
type = Stem;
}
);
layerId = m01;
shapes = (
{
closed = 1;
nodes = (
(589,250,ls),
(545,94,o),
(452,9,o),
(323,9,cs),
(196,9,o),
(185,110,o),
(218,227,cs),
(312,557,ls),
(337,646,o),
(366,677,o),
(437,677,c),
(444,700,l),
(168,700,l),
(161,677,l),
(232,677,o),
(240,646,o),
(215,557,cs),
(122,229,ls),
(82,87,o),
(146,-14,o),
(296,-14,cs),
(482,-14,o),
(568,86,o),
(625,287,cs),
(701,557,ls),
(726,646,o),
(755,677,o),
(826,677,c),
(833,700,l),
(629,700,l),
(622,677,l),
(693,677,o),
(701,646,o),
(676,557,cs)
);
}
);
width = 746;
}
);
note = U;
unicode = 85;
},
{
color = 5;
glyphname = V;
lastChange = "2026-06-09 07:54:44 +0000";
layers = (
{
anchors = (
{
name = bottom;
pos = (138,0);
},
{
name = top;
pos = (523,760);
}
);
hints = (
{
horizontal = 1;
place = (-676, 21);
target = up;
type = BottomGhost;
},
{
horizontal = 1;
place = (16, -639);
place = (16, -639);
type = Stem;
},
{
place = (-664, 23);
place = (-664, 23);
type = Stem;
},
{
place = (-101, -540);
place = (-101, -540);
type = Stem;
}
);
layerId = m01;
shapes = (
{
closed = 1;
nodes = (
(243,137,l),
(282,561,ls),
(291,663,o),
(309,677,o),
(380,677,c),
(390,700,l),
(121,700,l),
(111,677,l),
(177,677,o),
(181,657,o),
(170,539,cs),
(119,-14,l),
(150,-14,l),
(614,555,ls),
(705,666,o),
(724,677,o),
(795,677,c),
(805,700,l),
(603,700,l),
(593,677,l),
(664,677,o),
(665,655,o),
(575,544,cs)
);
}
);
width = 683;
}
);
note = V;
unicode = 86;
},
{
color = 5;
glyphname = W;
lastChange = "2026-06-09 07:54:44 +0000";
layers = (
{
anchors = (
{
name = bottom;
pos = (337,0);
},
{
name = top;
pos = (676,760);
}
);
hints = (
{
horizontal = 1;
place = (-595, 21);
target = up;
type = BottomGhost;
},
{
horizontal = 1;
place = (86, -568);
place = (86, -568);
type = Stem;
},
{
place = (-591, 398);
place = (-591, 398);
type = Stem;
}
);
layerId = m01;
shapes = (
{
closed = 1;
nodes = (
(286,571,ls),
(298,676,o),
(304,677,o),
(375,677,c),
(384,700,l),
(120,700,l),
(111,677,l),
(177,677,o),
(180,659,o),
(169,539,cs),
(117,-4,l),
(148,-4,l),
(541,525,l),
(508,-4,l),
(539,-4,l),
(931,559,ls),
(1009,672,o),
(1028,677,o),
(1099,677,c),
(1108,700,l),
(904,700,l),
(895,677,l),
(966,677,o),
(978,675,o),
(900,562,cs),
(627,168,l),
(656,677,l),
(623,677,l),
(239,161,l)
);
}
);
width = 971;
}
);
note = W;
unicode = 87;
},
{
color = 5;
glyphname = X;
lastChange = "2026-06-09 07:54:44 +0000";
layers = (
{
anchors = (
{
name = bottom;
pos = (250,0);
},
{
name = top;
pos = (600,760);
}
);
hints = (
{
horizontal = 1;
place = (527, 550);
place = (527, 550);
type = Stem;
},
{
horizontal = 1;
place = (1204, 550);
place = (1204, 550);
type = Stem;
},
{
place = (533, 1220);
place = (533, 1220);
type = Stem;
}
);
layerId = m01;
shapes = (
{
closed = 1;
nodes = (
(380,336,l),
(323,539,ls),
(294,641,o),
(293,677,o),
(215,677,c),
(223,700,l),
(498,700,l),
(490,677,l),
(419,677,o),
(405,666,o),
(435,574,c),
(476,419,l),
(606,544,ls),
(697,632,o),
(749,676,o),
(646,676,c),
(654,700,l),
(866,700,l),
(858,676,l),
(778,676,o),
(751,649,o),
(660,563,cs),
(483,397,l),
(550,161,ls),
(579,59,o),
(580,23,o),
(658,23,c),
(650,0,l),
(375,0,l),
(383,23,l),
(454,23,o),
(466,32,o),
(439,126,cs),
(385,314,l),
(220,156,ls),
(129,68,o),
(77,24,o),
(180,24,c),
(172,0,l),
(-40,0,l),
(-32,24,l),
(48,24,o),
(76,52,o),
(167,137,cs)
);
}
);
width = 759;
}
);
note = X;
unicode = 88;
},
{
color = 5;
glyphname = Y;
lastChange = "2026-06-09 07:54:44 +0000";
layers = (
{
anchors = (
{
name = bottom;
pos = (246,0);
},
{
name = top;
pos = (503,760);
}
);
hints = (
{
horizontal = 1;
place = (-472, -449);
place = (-472, -449);
type = Stem;
},
{
horizontal = 1;
place = (206, -449);
place = (206, -449);
type = Stem;
},
{
place = (-194, -373);
place = (-194, -373);
type = Stem;
},
{
place = (-36, -269);
place = (-36, -269);
type = Stem;
}
);
layerId = m01;
shapes = (
{
closed = 1;
nodes = (
(380,314,l),
(328,592,ls),
(316,655,o),
(328,677,o),
(393,677,c),
(399,700,l),
(132,700,l),
(126,677,l),
(196,677,o),
(202,666,o),
(230,543,cs),
(289,288,l),
(246,143,ls),
(220,54,o),
(193,23,o),
(122,23,c),
(115,0,l),
(394,0,l),
(401,23,l),
(330,23,o),
(318,54,o),
(345,143,cs),
(392,296,l),
(622,592,l),
(675,660,o),
(687,676,o),
(767,676,c),
(773,700,l),
(570,700,l),
(564,676,l),
(630,676,o),
(653,666,o),
(608,608,cs)
);
}
);
width = 651;
}
);
note = Y;
unicode = 89;
},
{
color = 5;
glyphname = Z;
lastChange = "2026-06-09 07:54:44 +0000";
layers = (
{
anchors = (
{
name = bottom;
pos = (247,0);
},
{
name = top;
pos = (449,760);
}
);
hints = (
{
horizontal = 1;
place = (311, 334);
place = (311, 334);
type = Stem;
},
{
horizontal = 1;
place = (986, 335);
place = (986, 335);
type = Stem;
},
{
place = (381, 334);
place = (381, 334);
type = Stem;
},
{
place = (867, 335);
place = (867, 335);
type = Stem;
}
);
layerId = m01;
shapes = (
{
closed = 1;
nodes = (
(556,223,l),
(511,52,o),
(391,23,o),
(247,23,cs),
(204,23,o),
(161,22,o),
(118,23,c),
(657,700,l),
(167,700,l),
(126,506,l),
(152,506,l),
(184,619,o),
(239,672,o),
(372,675,cs),
(424,676,o),
(475,677,o),
(527,676,c),
(-15,0,l),
(529,0,l),
(582,223,l)
);
}
);
width = 629;
}
);
note = Z;
unicode = 90;
},
{
color = 5;
glyphname = bracketleft;
lastChange = "2026-06-08 18:14:28 +0000";
layers = (
{
hints = (
{
horizontal = 1;
place = (136, 323);
place = (136, 323);
type = Stem;
},
{
horizontal = 1;
place = (990, 324);
place = (990, 324);
type = Stem;
},
{
place = (387, 377);
place = (387, 377);
type = Stem;
}
);
layerId = m01;
shapes = (
{
closed = 1;
nodes = (
(197,-137,l),
(82,-137,l),
(313,692,l),
(428,692,l),
(435,718,l),
(241,718,l),
(-4,-162,l),
(190,-162,l)
);
}
);
width = 383;
}
);
note = bracketleft;
unicode = 91;
},
{
color = 5;
glyphname = backslash;
lastChange = "2026-06-08 18:14:28 +0000";
layers = (
{
hints = (
{
horizontal = 1;
place = (430, -20);
target = down;
type = TopGhost;
},
{
place = (-229, 91);
place = (-229, 91);
type = Stem;
}
);
layerId = m01;
shapes = (
{
closed = 1;
nodes = (
(119,705,l),
(441,-26,l),
(485,-26,l),
(163,705,l)
);
}
);
width = 542;
}
);
note = backslash;
unicode = 92;
},
{
color = 5;
glyphname = bracketright;
lastChange = "2026-06-08 18:14:28 +0000";
layers = (
{
hints = (
{
horizontal = 1;
place = (121, 307);
place = (121, 307);
type = Stem;
},
{
horizontal = 1;
place = (975, 309);
place = (975, 309);
type = Stem;
},
{
place = (426, 362);
place = (426, 362);
type = Stem;
}
);
layerId = m01;
shapes = (
{
closed = 1;
nodes = (
(416,718,l),
(222,718,l),
(215,692,l),
(330,692,l),
(98,-138,l),
(-17,-138,l),
(-23,-162,l),
(171,-162,l)
);
}
);
width = 384;
}
);
note = bracketright;
unicode = 93;
},
{
color = 5;
glyphname = asciicircum;
lastChange = "2026-06-08 18:14:28 +0000";
layers = (
{
anchors = (
{
name = _top;
pos = (247,504);
}
);
layerId = m01;
shapes = (
{
closed = 1;
nodes = (
(223,790,o),
(214,773,o),
(204,751,c),
(103,509,l),
(127,509,l),
(249,754,l),
(369,509,l),
(392,509,l),
(291,751,l),
(281,773,o),
(273,790,o),
(248,790,cs)
);
}
);
width = 422;
}
);
note = asciicircum;
unicode = 94;
},
{
color = 5;
glyphname = underscore;
lastChange = "2026-06-08 18:14:28 +0000";
layers = (
{
layerId = m01;
shapes = (
{
closed = 1;
nodes = (
(432,-98,l),
(-113,-98,l),
(-113,-127,l),
(432,-127,l)
);
}
);
width = 500;
}
);
note = underscore;
unicode = 95;
},
{
color = 5;
glyphname = grave;
lastChange = "2026-06-08 18:39:05 +0000";
layers = (
{
hints = (
{
horizontal = 1;
place = (150, -220);
place = (150, -220);
type = Stem;
},
{
place = (-329, -155);
place = (-329, -155);
type = Stem;
}
);
layerId = m01;
shapes = (
{
closed = 1;
nodes = (
(157,730,l),
(143,730,o),
(138,717,o),
(148,707,c),
(262,590,l),
(303,590,l),
(215,730,l)
);
}
);
width = 215;
}
);
note = grave;
unicode = 96;
},
{
color = 5;
glyphname = a;
lastChange = "2026-06-09 08:17:52 +0000";
layers = (
{
anchors = (
{
name = bottom;
pos = (129,0);
},
{
name = ogonek;
pos = (388,0);
},
{
name = top;
pos = (331,500);
}
);
hints = (
{
horizontal = 1;
place = (15, 63);
place = (15, 63);
type = Stem;
},
{
horizontal = 1;
place = (467, 48);
place = (467, 48);
type = Stem;
},
{
place = (59, 116);
place = (59, 116);
type = Stem;
},
{
place = (328, 111);
place = (328, 111);
type = Stem;
},
{
horizontal = 1;
place = (13, 66);
place = (13, 66);
type = Stem;
},
{
place = (103, 101);
place = (103, 101);
type = Stem;
}
);
layerId = m01;
shapes = (
{
closed = 1;
nodes = (
(16,49,o),
(59,-10,o),
(148,-10,cs),
(249,-10,o),
(287,70,o),
(324,138,c),
(326,138,l),
(312,98,o),
(299,67,o),
(300,41,cs),
(302,8,o),
(328,-10,o),
(356,-10,cs),
(415,-10,o),
(461,38,o),
(483,76,c),
(468,86,l),
(454,62,o),
(429,43,o),
(411,43,cs),
(399,43,o),
(392,48,o),
(392,61,cs),
(392,70,o),
(397,89,o),
(401,103,cs),
(503,456,l),
(411,442,l),
(396,387,l),
(372,435,o),
(331,465,o),
(277,465,cs),
(124,465,o),
(15,266,o),
(15,130,cs)
);
},
{
closed = 1;
nodes = (
(104,193,o),
(159,442,o),
(287,442,cs),
(322,442,o),
(355,425,o),
(388,361,c),
(381,335,ls),
(337,171,o),
(256,12,o),
(176,12,cs),
(139,12,o),
(111,38,o),
(109,95,cs)
);
}
);
width = 508;
}
);
note = a;
unicode = 97;
},
{
color = 5;
glyphname = b;
lastChange = "2026-06-09 08:17:52 +0000";
layers = (
{
hints = (
{
horizontal = 1;
place = (-27, 5);
place = (-27, 5);
type = Stem;
},
{
horizontal = 1;
place = (425, 6);
place = (425, 6);
type = Stem;
},
{
horizontal = 1;
place = (666, 12);
place = (666, 12);
type = Stem;
},
{
place = (65, 71);
place = (65, 71);
type = Stem;
},
{
place = (397, 80);
place = (397, 80);
type = Stem;
},
{
horizontal = 1;
place = (-17, 4);
place = (-17, 4);
type = Stem;
}
);
layerId = m01;
shapes = (
{
closed = 1;
nodes = (
(202,12,o),
(159,41,o),
(143,74,c),
(194,255,ls),
(224,362,o),
(322,442,o),
(391,442,cs),
(435,442,o),
(457,404,o),
(457,335,cs),
(457,222,o),
(380,12,o),
(250,12,cs)
);
},
{
closed = 1;
nodes = (
(61,97,l),
(117,35,o),
(174,-10,o),
(251,-10,cs),
(409,-10,o),
(555,179,o),
(555,327,cs),
(555,414,o),
(497,460,o),
(412,460,cs),
(349,460,o),
(280,435,o),
(223,359,c),
(221,359,l),
(321,713,l),
(150,687,l),
(153,666,l),
(197,667,ls),
(215,667,o),
(217,657,o),
(211,634,c)
);
}
);
width = 572;
}
);
note = b;
unicode = 98;
},
{
color = 5;
glyphname = c;
lastChange = "2026-06-09 08:17:52 +0000";
layers = (
{
anchors = (
{
name = bottom;
pos = (201,0);
},
{
name = top;
pos = (377,500);
}
);
hints = (
{
horizontal = 1;
place = (-19, 23);
place = (-19, 23);
type = Stem;
},
{
horizontal = 1;
place = (433, 14);
place = (433, 14);
type = Stem;
},
{
place = (23, 85);
place = (23, 85);
type = Stem;
},
{
place = (334, 68);
place = (334, 68);
type = Stem;
}
);
layerId = m01;
shapes = (
{
closed = 1;
nodes = (
(392,442,o),
(418,375,o),
(364,315,c),
(373,308,o),
(383,304,o),
(394,304,cs),
(428,304,o),
(461,330,o),
(470,363,cs),
(493,443,o),
(400,465,o),
(342,465,cs),
(210,465,o),
(73,357,o),
(34,220,cs),
(-4,83,o),
(71,-10,o),
(194,-10,cs),
(267,-10,o),
(336,19,o),
(397,79,c),
(385,92,l),
(332,47,o),
(278,22,o),
(224,22,cs),
(124,22,o),
(97,109,o),
(136,246,cs),
(169,366,o),
(244,442,o),
(326,442,cs)
);
}
);
width = 456;
}
);
note = c;
unicode = 99;
},
{
color = 5;
glyphname = d;
lastChange = "2026-06-09 08:17:52 +0000";
layers = (
{
anchors = (
{
name = caron;
pos = (318,505);
}
);
hints = (
{
horizontal = 1;
place = (97, 118);
place = (97, 118);
type = Stem;
},
{
horizontal = 1;
place = (93, 21);
target = up;
type = BottomGhost;
},
{
horizontal = 1;
place = (539, 120);
place = (539, 120);
type = Stem;
},
{
horizontal = 1;
place = (780, 126);
place = (780, 126);
type = Stem;
},
{
place = (138, 193);
place = (138, 193);
type = Stem;
},
{
place = (490, 185);
place = (490, 185);
type = Stem;
},
{
horizontal = 1;
place = (87, 119);
place = (87, 119);
type = Stem;
}
);
layerId = m01;
shapes = (
{
closed = 1;
nodes = (
(22,49,o),
(75,-10,o),
(164,-10,cs),
(265,-10,o),
(313,70,o),
(350,138,c),
(352,138,l),
(338,98,o),
(325,62,o),
(324,43,cs),
(323,10,o),
(354,-10,o),
(382,-10,cs),
(441,-10,o),
(487,38,o),
(509,76,c),
(494,86,l),
(480,62,o),
(455,43,o),
(437,43,cs),
(425,43,o),
(418,48,o),
(418,61,cs),
(418,70,o),
(423,89,o),
(427,103,cs),
(602,713,l),
(431,687,l),
(434,666,l),
(478,667,ls),
(496,667,o),
(499,657,o),
(492,634,cs),
(426,400,l),
(405,432,o),
(367,465,o),
(313,465,cs),
(140,465,o),
(21,276,o),
(22,140,cs)
);
},
{
closed = 1;
nodes = (
(110,203,o),
(175,442,o),
(323,442,cs),
(355,442,o),
(385,426,o),
(418,372,c),
(406,331,ls),
(364,186,o),
(279,12,o),
(192,12,cs),
(155,12,o),
(117,38,o),
(114,105,cs)
);
}
);
width = 559;
}
);
note = d;
unicode = 100;
},
{
color = 5;
glyphname = e;
lastChange = "2026-06-09 08:17:52 +0000";
layers = (
{
anchors = (
{
name = bottom;
pos = (193,0);
},
{
name = ogonek;
pos = (202,0);
},
{
name = top;
pos = (372,500);
}
);
hints = (
{
horizontal = 1;
place = (34, 76);
place = (34, 76);
type = Stem;
},
{
horizontal = 1;
place = (280, 68);
place = (280, 68);
type = Stem;
},
{
horizontal = 1;
place = (486, 67);
place = (486, 67);
type = Stem;
},
{
place = (75, 140);
place = (75, 140);
type = Stem;
},
{
place = (391, 138);
place = (391, 138);
type = Stem;
}
);
layerId = m01;
shapes = (
{
closed = 1;
nodes = (
(469,433,o),
(410,465,o),
(327,465,cs),
(196,465,o),
(71,352,o),
(34,220,cs),
(-5,80,o),
(67,-10,o),
(195,-10,cs),
(268,-10,o),
(337,19,o),
(398,79,c),
(386,92,l),
(333,47,o),
(279,22,o),
(225,22,cs),
(121,22,o),
(97,99,o),
(123,194,c),
(337,210,o),
(469,292,o),
(469,379,cs)
);
},
{
closed = 1;
nodes = (
(171,367,o),
(240,442,o),
(317,442,cs),
(366,442,o),
(386,413,o),
(386,372,cs),
(385,276,o),
(271,231,o),
(130,220,c)
);
}
);
width = 452;
}
);
note = e;
unicode = 101;
},
{
color = 5;
glyphname = f;
lastChange = "2026-06-13 19:29:08 +0000";
layers = (
{
hints = (
{
horizontal = 1;
place = (452, 473);
place = (452, 473);
type = Stem;
},
{
horizontal = 1;
place = (868, 482);
place = (868, 482);
type = Stem;
},
{
horizontal = 1;
place = (1163, 473);
place = (1163, 473);
type = Stem;
},
{
place = (546, 540);
place = (546, 540);
type = Stem;
},
{
place = (736, 523);
place = (736, 523);
type = Stem;
}
);
layerId = m01;
shapes = (
{
closed = 1;
nodes = (
(102,446,l),
(93,416,l),
(171,416,l),
(31,-89,ls),
(2,-192,o),
(-14,-232,o),
(-53,-232,cs),
(-71,-232,o),
(-82,-222,o),
(-82,-205,cs),
(-82,-186,o),
(-70,-164,o),
(-42,-138,c),
(-51,-128,o),
(-64,-123,o),
(-77,-123,cs),
(-115,-123,o),
(-150,-159,o),
(-150,-195,cs),
(-150,-237,o),
(-108,-253,o),
(-63,-253,cs),
(31,-253,o),
(96,-172,o),
(123,-74,cs),
(259,416,l),
(374,416,l),
(385,446,l),
(268,446,l),
(300,563,ls),
(331,676,o),
(357,711,o),
(398,711,cs),
(420,711,o),
(432,698,o),
(432,679,cs),
(432,660,o),
(419,633,o),
(391,607,c),
(401,597,o),
(413,592,o),
(426,592,cs),
(464,592,o),
(500,629,o),
(500,667,cs),
(500,708,o),
(456,732,o),
(405,732,cs),
(308,732,o),
(239,666,o),
(208,549,cs),
(187,470,o),
(176,454,o),
(128,448,c)
);
}
);
width = 369;
}
);
note = f;
unicode = 102;
},
{
color = 5;
glyphname = g;
lastChange = "2026-06-09 08:17:52 +0000";
layers = (
{
anchors = (
{
name = bottom;
pos = (56,-260);
},
{
name = top;
pos = (278,500);
}
);
hints = (
{
horizontal = 1;
place = (-39, 242);
place = (-39, 242);
type = Stem;
},
{
horizontal = 1;
place = (196, 292);
place = (196, 292);
type = Stem;
},
{
horizontal = 1;
place = (361, 240);
place = (361, 240);
type = Stem;
},
{
horizontal = 1;
place = (660, 241);
place = (660, 241);
type = Stem;
},
{
place = (276, 302);
place = (276, 302);
type = Stem;
},
{
place = (546, 302);
place = (546, 302);
type = Stem;
},
{
place = (636, 275);
place = (636, 275);
type = Stem;
},
{
place = (291, 275);
place = (291, 275);
type = Stem;
},
{
horizontal = 1;
place = (208, 21);
target = up;
type = BottomGhost;
},
{
place = (250, 298);
place = (250, 298);
type = Stem;
},
{
horizontal = 1;
place = (661, 270);
place = (661, 270);
type = Stem;
},
{
place = (664, 235);
place = (664, 235);
type = Stem;
}
);
layerId = m01;
shapes = (
{
closed = 1;
nodes = (
(154,465,o),
(56,395,o),
(28,291,cs),
(11,226,o),
(46,176,o),
(96,156,c),
(45,131,ls),
(10,114,o),
(-13,88,o),
(-21,60,cs),
(-30,27,o),
(-11,2,o),
(42,-10,c),
(-35,-23,o),
(-95,-56,o),
(-113,-122,cs),
(-136,-203,o),
(-59,-253,o),
(51,-253,cs),
(194,-253,o),
(314,-182,o),
(344,-71,cs),
(365,6,o),
(320,47,o),
(208,51,cs),
(132,54,ls),
(58,57,o),
(37,64,o),
(44,89,cs),
(50,111,o),
(74,127,o),
(119,150,c),
(133,146,o),
(146,143,o),
(166,143,cs),
(254,143,o),
(360,210,o),
(386,306,cs),
(400,356,o),
(387,400,o),
(358,429,c),
(372,436,o),
(387,439,o),
(401,439,cs),
(417,439,o),
(437,434,o),
(446,410,c),
(491,442,o),
(489,490,o),
(449,495,cs),
(414,500,o),
(374,473,o),
(345,440,c),
(323,456,o),
(297,465,o),
(268,465,cs)
);
},
{
closed = 1;
nodes = (
(277,214,o),
(236,165,o),
(174,165,cs),
(113,165,o),
(90,211,o),
(116,304,cs),
(141,395,o),
(184,442,o),
(243,442,cs),
(304,442,o),
(326,396,o),
(299,295,cs)
);
},
{
closed = 1;
nodes = (
(257,-177,o),
(174,-229,o),
(73,-229,cs),
(-12,-229,o),
(-53,-193,o),
(-31,-113,cs),
(-16,-61,o),
(21,-31,o),
(75,-19,c),
(178,-24,ls),
(268,-28,o),
(293,-50,o),
(279,-101,cs)
);
}
);
width = 458;
}
);
note = g;
unicode = 103;
},
{
color = 5;
glyphname = h;
lastChange = "2026-06-13 19:30:23 +0000";
layers = (
{
anchors = (
{
name = bottom;
pos = (216,0);
},
{
name = top;
pos = (412,500);
}
);
hints = (
{
horizontal = 1;
place = (-77, -56);
place = (-77, -56);
type = Stem;
},
{
horizontal = 1;
place = (350, -35);
place = (350, -35);
type = Stem;
},
{
horizontal = 1;
place = (613, -57);
place = (613, -57);
type = Stem;
},
{
place = (22, 11);
place = (22, 11);
type = Stem;
},
{
place = (325, 12);
place = (325, 12);
type = Stem;
}
);
layerId = m01;
shapes = (
{
closed = 1;
nodes = (
(18,0,l),
(107,0,l),
(122,52,ls),
(163,194,o),
(273,422,o),
(367,422,cs),
(411,422,o),
(421,375,o),
(402,307,cs),
(347,107,ls),
(343,92,o),
(332,61,o),
(332,40,cs),
(332,2,o),
(361,-10,o),
(389,-10,cs),
(448,-10,o),
(494,38,o),
(516,76,c),
(501,86,l),
(487,62,o),
(462,43,o),
(444,43,cs),
(432,43,o),
(425,48,o),
(425,61,cs),
(425,70,o),
(430,89,o),
(434,103,cs),
(493,317,ls),
(518,407,o),
(491,465,o),
(405,465,cs),
(305,465,o),
(217,351,o),
(171,230,c),
(170,230,l),
(305,713,l),
(134,687,l),
(137,666,l),
(181,667,ls),
(199,667,o),
(201,657,o),
(195,634,cs)
);
}
);
width = 571;
}
);
note = h;
unicode = 104;
},
{
color = 5;
glyphname = i;
lastChange = "2026-06-09 08:17:52 +0000";
layers = (
{
anchors = (
{
name = ogonek;
pos = (102,0);
}
);
hints = (
{
horizontal = 1;
place = (-125, -104);
place = (-125, -104);
type = Stem;
},
{
horizontal = 1;
place = (301, -96);
place = (301, -96);
type = Stem;
},
{
place = (-23, -37);
place = (-23, -37);
type = Stem;
},
{
horizontal = 1;
place = (445, -11);
place = (445, -11);
type = Stem;
},
{
place = (-38, -12);
place = (-38, -12);
type = Stem;
}
);
layerId = m01;
shapes = (
{
closed = 1;
nodes = (
(246,456,l),
(75,430,l),
(78,409,l),
(122,410,ls),
(140,410,o),
(142,400,o),
(135,377,cs),
(57,107,ls),
(53,92,o),
(42,61,o),
(42,40,cs),
(42,2,o),
(71,-10,o),
(99,-10,cs),
(158,-10,o),
(204,38,o),
(226,76,c),
(211,86,l),
(197,62,o),
(172,43,o),
(154,43,cs),
(142,43,o),
(135,48,o),
(135,61,cs),
(135,70,o),
(140,89,o),
(144,103,cs)
);
},
{
closed = 1;
nodes = (
(285,655,o),
(260,678,o),
(231,678,cs),
(202,678,o),
(177,655,o),
(177,624,cs),
(177,593,o),
(201,570,o),
(231,570,cs),
(261,570,o),
(285,593,o),
(285,624,cs)
);
}
);
width = 281;
}
);
note = i;
unicode = 105;
},
{
color = 5;
glyphname = j;
lastChange = "2026-06-09 08:17:52 +0000";
layers = (
{
hints = (
{
horizontal = 1;
place = (5, 273);
place = (5, 273);
type = Stem;
},
{
horizontal = 1;
place = (678, 281);
place = (678, 281);
type = Stem;
},
{
place = (192, 323);
place = (192, 323);
type = Stem;
},
{
place = (345, 340);
place = (345, 340);
type = Stem;
},
{
horizontal = 1;
place = (823, 366);
place = (823, 366);
type = Stem;
},
{
place = (330, 365);
place = (330, 365);
type = Stem;
}
);
layerId = m01;
shapes = (
{
closed = 1;
nodes = (
(335,655,o),
(310,678,o),
(281,678,cs),
(252,678,o),
(227,655,o),
(227,624,cs),
(227,593,o),
(251,570,o),
(281,570,cs),
(311,570,o),
(335,593,o),
(335,624,cs)
);
},
{
closed = 1;
nodes = (
(51,-89,ls),
(23,-192,o),
(6,-232,o),
(-33,-232,cs),
(-51,-232,o),
(-62,-222,o),
(-62,-205,cs),
(-62,-186,o),
(-50,-164,o),
(-22,-138,c),
(-31,-128,o),
(-44,-123,o),
(-57,-123,cs),
(-95,-123,o),
(-130,-159,o),
(-130,-195,cs),
(-130,-237,o),
(-88,-253,o),
(-43,-253,cs),
(51,-253,o),
(116,-172,o),
(143,-74,cs),
(290,456,l),
(119,430,l),
(122,409,l),
(166,410,ls),
(184,410,o),
(186,400,o),
(180,377,cs)
);
}
);
width = 250;
}
);
note = j;
unicode = 106;
},
{
color = 5;
glyphname = k;
lastChange = "2026-06-09 08:17:52 +0000";
layers = (
{
anchors = (
{
name = bottom;
pos = (199,0);
},
{
name = top;
pos = (440,500);
}
);
hints = (
{
horizontal = 1;
place = (17, 38);
place = (17, 38);
type = Stem;
},
{
horizontal = 1;
place = (445, 38);
place = (445, 38);
type = Stem;
},
{
horizontal = 1;
place = (700, 46);
place = (700, 46);
type = Stem;
},
{
place = (115, 105);
place = (115, 105);
type = Stem;
}
);
layerId = m01;
shapes = (
{
closed = 1;
nodes = (
(336,101,ls),
(346,72,o),
(363,43,o),
(389,43,cs),
(410,43,o),
(437,62,o),
(451,86,c),
(466,76,l),
(444,38,o),
(404,-10,o),
(346,-10,cs),
(310,-10,o),
(275,8,o),
(254,71,cs),
(199,233,l),
(163,207,l),
(106,0,l),
(17,0,l),
(194,633,ls),
(200,656,o),
(197,667,o),
(179,667,cs),
(136,666,l),
(133,687,l),
(304,713,l),
(172,240,l),
(404,409,ls),
(418,419,o),
(416,429,o),
(387,429,cs),
(343,429,l),
(349,450,l),
(547,450,l),
(541,429,l),
(487,429,o),
(466,427,o),
(426,398,cs),
(272,286,l)
);
}
);
width = 444;
}
);
note = k;
unicode = 107;
},
{
color = 5;
glyphname = l;
lastChange = "2026-06-13 19:34:36 +0000";
layers = (
{
anchors = (
{
name = bottom;
pos = (83,0);
},
{
name = caron;
pos = (379,505);
}
);
hints = (
{
horizontal = 1;
place = (-122, -101);
place = (-122, -101);
type = Stem;
},
{
horizontal = 1;
place = (561, -93);
place = (561, -93);
type = Stem;
},
{
place = (-20, -34);
place = (-20, -34);
type = Stem;
}
);
layerId = m01;
shapes = (
{
closed = 1;
nodes = (
(130,103,ls),
(126,89,o),
(121,70,o),
(121,61,cs),
(121,48,o),
(128,43,o),
(140,43,cs),
(158,43,o),
(183,62,o),
(197,86,c),
(212,76,l),
(190,38,o),
(144,-10,o),
(85,-10,cs),
(57,-10,o),
(28,2,o),
(28,40,cs),
(28,61,o),
(39,92,o),
(43,107,cs),
(191,633,ls),
(197,656,o),
(194,667,o),
(176,667,cs),
(132,666,l),
(129,687,l),
(300,713,l)
);
}
);
width = 272;
}
);
note = l;
unicode = 108;
},
{
color = 5;
glyphname = m;
lastChange = "2026-06-09 08:17:52 +0000";
layers = (
{
hints = (
{
horizontal = 1;
place = (-91, -70);
place = (-91, -70);
type = Stem;
},
{
horizontal = 1;
place = (335, -62);
place = (335, -62);
type = Stem;
},
{
place = (10, -3);
place = (10, -3);
type = Stem;
},
{
place = (294, -4);
place = (294, -4);
type = Stem;
},
{
place = (577, -4);
place = (577, -4);
type = Stem;
},
{
horizontal = 1;
place = (331, -48);
place = (331, -48);
type = Stem;
}
);
layerId = m01;
shapes = (
{
closed = 1;
nodes = (
(770,317,ls),
(795,407,o),
(750,465,o),
(683,465,cs),
(583,465,o),
(498,331,o),
(452,210,c),
(451,210,l),
(483,317,ls),
(510,406,o),
(463,465,o),
(396,465,cs),
(296,465,o),
(227,351,o),
(181,230,c),
(180,230,l),
(243,456,l),
(72,430,l),
(75,409,l),
(119,410,ls),
(137,410,o),
(139,400,o),
(133,377,cs),
(29,0,l),
(117,0,l),
(132,52,ls),
(173,194,o),
(264,422,o),
(358,422,cs),
(402,422,o),
(412,375,o),
(393,307,cs),
(307,0,l),
(394,0,l),
(403,32,ls),
(445,183,o),
(551,422,o),
(645,422,cs),
(689,422,o),
(699,375,o),
(680,307,cs),
(625,107,ls),
(621,92,o),
(610,61,o),
(610,40,cs),
(610,2,o),
(639,-10,o),
(667,-10,cs),
(726,-10,o),
(772,38,o),
(794,76,c),
(779,86,l),
(765,62,o),
(740,43,o),
(722,43,cs),
(710,43,o),
(703,48,o),
(703,61,cs),
(703,70,o),
(708,89,o),
(712,103,cs)
);
}
);
width = 849;
}
);
note = m;
unicode = 109;
},
{
color = 5;
glyphname = n;
lastChange = "2026-06-09 08:17:52 +0000";
layers = (
{
anchors = (
{
name = bottom;
pos = (234,0);
},
{
name = top;
pos = (384,500);
}
);
hints = (
{
horizontal = 1;
place = (-77, -56);
place = (-77, -56);
type = Stem;
},
{
horizontal = 1;
place = (349, -48);
place = (349, -48);
type = Stem;
},
{
place = (20, 11);
place = (20, 11);
type = Stem;
},
{
place = (319, 11);
place = (319, 11);
type = Stem;
},
{
horizontal = 1;
place = (346, -34);
place = (346, -34);
type = Stem;
}
);
layerId = m01;
shapes = (
{
closed = 1;
nodes = (
(503,465,o),
(529,407,o),
(505,317,cs),
(446,103,ls),
(442,89,o),
(437,70,o),
(437,61,cs),
(437,48,o),
(444,43,o),
(456,43,cs),
(474,43,o),
(499,62,o),
(513,86,c),
(528,76,l),
(506,38,o),
(460,-10,o),
(401,-10,cs),
(373,-10,o),
(344,2,o),
(344,40,cs),
(344,61,o),
(355,92,o),
(359,107,cs),
(414,307,ls),
(432,375,o),
(423,422,o),
(379,422,cs),
(285,422,o),
(173,195,o),
(134,52,cs),
(119,0,l),
(30,0,l),
(135,377,ls),
(142,400,o),
(139,410,o),
(121,410,cs),
(77,409,l),
(74,430,l),
(245,456,l),
(182,230,l),
(183,230,l),
(229,351,o),
(317,465,o),
(417,465,cs)
);
}
);
width = 583;
}
);
note = n;
unicode = 110;
},
{
color = 5;
glyphname = o;
lastChange = "2026-06-13 19:29:45 +0000";
layers = (
{
anchors = (
{
name = bottom;
pos = (203,0);
},
{
name = top;
pos = (369,500);
}
);
hints = (
{
horizontal = 1;
place = (-25, 7);
place = (-25, 7);
type = Stem;
},
{
horizontal = 1;
place = (427, 8);
place = (427, 8);
type = Stem;
},
{
place = (21, 82);
place = (21, 82);
type = Stem;
},
{
place = (384, 82);
place = (384, 82);
type = Stem;
}
);
layerId = m01;
shapes = (
{
closed = 1;
nodes = (
(548,361,o),
(468,465,o),
(345,465,cs),
(204,465,o),
(68,361,o),
(29,222,cs),
(-8,89,o),
(67,-10,o),
(194,-10,cs),
(333,-10,o),
(474,96,o),
(513,235,cs)
);
},
{
closed = 1;
nodes = (
(372,78,o),
(305,12,o),
(222,12,cs),
(132,12,o),
(88,86,o),
(134,250,cs),
(169,376,o),
(232,442,o),
(325,442,cs),
(412,442,o),
(449,355,o),
(409,212,cs)
);
}
);
width = 532;
}
);
note = o;
unicode = 111;
},
{
color = 5;
glyphname = p;
lastChange = "2026-06-13 19:29:29 +0000";
layers = (
{
hints = (
{
horizontal = 1;
place = (88, 362);
place = (88, 362);
type = Stem;
},
{
horizontal = 1;
place = (331, 363);
place = (331, 363);
type = Stem;
},
{
horizontal = 1;
place = (767, 370);
place = (767, 370);
type = Stem;
},
{
place = (434, 429);
place = (434, 429);
type = Stem;
},
{
place = (776, 437);
place = (776, 437);
type = Stem;
},
{
horizontal = 1;
place = (783, 364);
place = (783, 364);
type = Stem;
}
);
layerId = m01;
shapes = (
{
closed = 1;
nodes = (
(550,168,o),
(391,-11,o),
(237,-10,cs),
(177,-11,o),
(142,20,o),
(123,45,c),
(79,-114,ls),
(52,-213,o),
(68,-222,o),
(124,-222,c),
(118,-243,l),
(-120,-243,l),
(-114,-222,l),
(-58,-222,o),
(-36,-213,o),
(-9,-114,cs),
(129,384,ls),
(133,400,o),
(131,410,o),
(113,410,cs),
(69,409,l),
(66,430,l),
(237,456,l),
(209,359,l),
(211,359,l),
(268,435,o),
(337,460,o),
(400,460,cs),
(485,460,o),
(550,414,o),
(550,320,cs)
);
},
{
closed = 1;
nodes = (
(454,404,o),
(423,442,o),
(379,442,cs),
(310,442,o),
(212,362,o),
(182,255,cs),
(132,74,l),
(150,43,o),
(187,12,o),
(237,12,cs),
(373,12,o),
(454,211,o),
(454,335,cs)
);
}
);
width = 568;
}
);
note = p;
unicode = 112;
},
{
color = 5;
glyphname = q;
lastChange = "2026-06-09 08:17:52 +0000";
layers = (
{
hints = (
{
horizontal = 1;
place = (-240, 34);
place = (-240, 34);
type = Stem;
},
{
horizontal = 1;
place = (3, 35);
place = (3, 35);
type = Stem;
},
{
horizontal = 1;
place = (455, 37);
place = (455, 37);
type = Stem;
},
{
place = (46, 109);
place = (46, 109);
type = Stem;
},
{
place = (389, 102);
place = (389, 102);
type = Stem;
}
);
layerId = m01;
shapes = (
{
closed = 1;
nodes = (
(146,12,o),
(112,38,o),
(109,95,cs),
(105,193,o),
(166,442,o),
(294,442,cs),
(354,442,o),
(392,397,o),
(396,327,cs),
(403,209,o),
(283,12,o),
(183,12,cs)
);
},
{
closed = 1;
nodes = (
(359,138,l),
(281,-114,ls),
(250,-213,o),
(233,-222,o),
(177,-222,c),
(171,-243,l),
(409,-243,l),
(415,-222,l),
(359,-222,o),
(342,-213,o),
(370,-114,c),
(536,456,l),
(444,442,l),
(414,335,l),
(411,335,l),
(411,377,o),
(381,465,o),
(284,465,cs),
(131,465,o),
(14,266,o),
(15,130,cs),
(15,49,o),
(66,-10,o),
(155,-10,cs),
(256,-10,o),
(320,70,o),
(357,138,c)
);
}
);
width = 550;
}
);
note = q;
unicode = 113;
},
{
color = 5;
glyphname = r;
lastChange = "2026-06-09 08:17:52 +0000";
layers = (
{
anchors = (
{
name = bottom;
pos = (73,0);
},
{
name = top;
pos = (322,500);
}
);
hints = (
{
horizontal = 1;
place = (-79, -58);
place = (-79, -58);
type = Stem;
},
{
horizontal = 1;
place = (347, -50);
place = (347, -50);
type = Stem;
},
{
place = (23, 9);
place = (23, 9);
type = Stem;
},
{
horizontal = 1;
place = (329, -22);
place = (329, -22);
type = Stem;
},
{
place = (268, -14);
place = (268, -14);
type = Stem;
}
);
layerId = m01;
shapes = (
{
closed = 1;
nodes = (
(26,0,l),
(115,0,l),
(130,52,ls),
(169,195,o),
(266,408,o),
(340,408,cs),
(363,408,o),
(385,385,o),
(355,335,c),
(409,335,o),
(438,364,o),
(447,396,cs),
(459,441,o),
(426,465,o),
(385,465,cs),
(313,465,o),
(225,351,o),
(179,230,c),
(178,230,l),
(241,456,l),
(70,430,l),
(73,409,l),
(117,410,ls),
(135,410,o),
(138,400,o),
(131,377,cs)
);
}
);
width = 421;
}
);
note = r;
unicode = 114;
},
{
color = 5;
glyphname = s;
lastChange = "2026-06-09 08:17:52 +0000";
layers = (
{
anchors = (
{
name = bottom;
pos = (127,0);
},
{
name = top;
pos = (261,500);
}
);
hints = (
{
horizontal = 1;
place = (125, 157);
place = (125, 157);
type = Stem;
},
{
horizontal = 1;
place = (577, 158);
place = (577, 158);
type = Stem;
},
{
place = (182, 158);
place = (182, 158);
type = Stem;
},
{
place = (452, 157);
place = (452, 157);
type = Stem;
},
{
place = (181, 208);
place = (181, 208);
type = Stem;
},
{
place = (430, 215);
place = (430, 215);
type = Stem;
},
{
horizontal = 1;
place = (460, 250);
place = (460, 250);
type = Stem;
},
{
horizontal = 1;
place = (592, -20);
target = down;
type = TopGhost;
},
{
horizontal = 1;
place = (151, 265);
place = (151, 265);
type = Stem;
},
{
horizontal = 1;
place = (135, 21);
target = up;
type = BottomGhost;
}
);
layerId = m01;
shapes = (
{
closed = 1;
nodes = (
(332,166,o),
(313,211,o),
(246,242,cs),
(200,263,ls),
(142,290,o),
(124,327,o),
(134,365,cs),
(145,409,o),
(188,442,o),
(242,442,cs),
(295,442,o),
(344,407,o),
(321,325,c),
(343,325,l),
(380,457,l),
(358,457,l),
(353,446,o),
(346,440,o),
(334,440,cs),
(312,440,o),
(294,465,o),
(241,465,cs),
(158,465,o),
(75,414,o),
(54,339,cs),
(37,278,o),
(71,235,o),
(129,210,cs),
(182,187,ls),
(229,167,o),
(245,134,o),
(235,95,cs),
(222,51,o),
(174,12,o),
(117,12,cs),
(45,12,o),
(3,70,o),
(24,146,c),
(1,146,l),
(-40,0,l),
(-17,0,l),
(-14,10,o),
(-8,16,o),
(4,16,cs),
(39,16,o),
(61,-10,o),
(123,-10,cs),
(211,-10,o),
(302,38,o),
(320,114,cs)
);
}
);
width = 370;
}
);
note = s;
unicode = 115;
},
{
color = 5;
glyphname = t;
lastChange = "2026-06-09 08:17:52 +0000";
layers = (
{
anchors = (
{
name = bottom;
pos = (126,0);
},
{
name = caron;
pos = (325,505);
}
);
hints = (
{
horizontal = 1;
place = (-153, -100);
place = (-153, -100);
type = Stem;
},
{
horizontal = 1;
place = (264, -111);
place = (264, -111);
type = Stem;
},
{
place = (-48, -52);
place = (-48, -52);
type = Stem;
}
);
layerId = m01;
shapes = (
{
closed = 1;
nodes = (
(169,103,ls),
(165,89,o),
(160,70,o),
(160,61,cs),
(160,48,o),
(167,43,o),
(179,43,cs),
(197,43,o),
(222,62,o),
(236,86,c),
(251,76,l),
(229,38,o),
(183,-10,o),
(124,-10,cs),
(96,-10,o),
(67,2,o),
(67,40,cs),
(67,61,o),
(78,92,o),
(82,107,cs),
(165,405,l),
(89,405,l),
(96,430,l),
(152,434,l),
(211,444,o),
(241,513,o),
(260,572,c),
(275,572,o),
(288,572,o),
(301,574,c),
(262,435,l),
(383,435,l),
(373,405,l),
(254,405,l)
);
}
);
width = 342;
}
);
note = t;
unicode = 116;
},
{
color = 5;
glyphname = u;
lastChange = "2026-06-09 08:17:52 +0000";
layers = (
{
anchors = (
{
name = bottom;
pos = (178,0);
},
{
name = ogonek;
pos = (441,0);
},
{
name = top;
pos = (379,500);
}
);
hints = (
{
horizontal = 1;
place = (-132, -111);
place = (-132, -111);
type = Stem;
},
{
horizontal = 1;
place = (294, -103);
place = (294, -103);
type = Stem;
},
{
place = (-36, -44);
place = (-36, -44);
type = Stem;
},
{
place = (260, -44);
place = (260, -44);
type = Stem;
},
{
horizontal = 1;
place = (-144, -90);
place = (-144, -90);
type = Stem;
},
{
horizontal = 1;
place = (-136, 21);
target = up;
type = BottomGhost;
}
);
layerId = m01;
shapes = (
{
closed = 1;
nodes = (
(465,456,l),
(451,404,ls),
(411,261,o),
(299,33,o),
(205,33,cs),
(161,33,o),
(152,81,o),
(171,149,cs),
(225,348,ls),
(229,363,o),
(240,394,o),
(240,415,cs),
(240,453,o),
(211,465,o),
(183,465,cs),
(124,465,o),
(78,417,o),
(56,379,c),
(71,369,l),
(85,393,o),
(110,412,o),
(128,412,cs),
(140,412,o),
(147,407,o),
(147,394,cs),
(147,385,o),
(142,366,o),
(138,352,cs),
(80,139,ls),
(55,49,o),
(81,-10,o),
(167,-10,cs),
(267,-10,o),
(355,105,o),
(401,226,c),
(402,226,l),
(369,107,ls),
(365,92,o),
(354,61,o),
(354,40,cs),
(354,2,o),
(383,-10,o),
(411,-10,cs),
(470,-10,o),
(516,38,o),
(538,76,c),
(523,86,l),
(509,62,o),
(484,43,o),
(466,43,cs),
(454,43,o),
(447,48,o),
(447,61,cs),
(447,70,o),
(452,89,o),
(456,103,cs),
(554,456,l)
);
}
);
width = 568;
}
);
note = u;
unicode = 117;
},
{
color = 5;
glyphname = v;
lastChange = "2026-06-13 19:18:46 +0000";
layers = (
{
hints = (
{
horizontal = 1;
place = (-219, 21);
target = up;
type = BottomGhost;
},
{
horizontal = 1;
place = (214, -193);
place = (214, -193);
type = Stem;
},
{
place = (-217, 286);
place = (-217, 286);
type = Stem;
},
{
place = (119, -50);
place = (119, -50);
type = Stem;
}
);
layerId = m01;
shapes = (
{
closed = 1;
nodes = (
(403,313,o),
(343,206,o),
(267,112,cs),
(261,104,o),
(257,100,o),
(250,92,c),
(247,92,l),
(247,100,o),
(247,107,o),
(246,115,cs),
(235,228,o),
(220,302,o),
(179,456,c),
(45,430,l),
(48,409,l),
(92,410,ls),
(104,410,o),
(106,406,o),
(109,396,cs),
(143,263,o),
(164,152,o),
(175,-5,c),
(207,-5,l),
(343,178,o),
(462,325,o),
(465,399,cs),
(467,436,o),
(441,455,o),
(414,455,cs),
(389,455,o),
(368,439,o),
(360,413,c),
(397,412,o),
(403,392,o),
(403,368,cs)
);
}
);
width = 446;
}
);
note = v;
unicode = 118;
},
{
color = 5;
glyphname = w;
lastChange = "2026-06-13 19:30:01 +0000";
layers = (
{
anchors = (
{
name = bottom;
pos = (329,0);
},
{
name = top;
pos = (362,500);
}
);
hints = (
{
horizontal = 1;
place = (-167, 21);
target = up;
type = BottomGhost;
},
{
horizontal = 1;
place = (266, -141);
place = (266, -141);
type = Stem;
},
{
place = (-162, 584);
place = (-162, 584);
type = Stem;
},
{
place = (418, 4);
place = (418, 4);
type = Stem;
}
);
layerId = m01;
shapes = (
{
closed = 1;
nodes = (
(685,312,o),
(606,188,o),
(521,91,c),
(507,440,l),
(467,440,l),
(249,103,l),
(246,103,l),
(246,114,o),
(245,121,o),
(243,137,cs),
(230,242,o),
(218,302,o),
(177,456,c),
(43,430,l),
(46,409,l),
(90,410,ls),
(102,410,o),
(104,406,o),
(107,396,cs),
(141,263,o),
(162,152,o),
(173,-5,c),
(205,-5,l),
(424,331,l),
(451,-5,l),
(483,-5,l),
(672,236,o),
(740,339,o),
(741,399,cs),
(743,436,o),
(717,455,o),
(690,455,cs),
(665,455,o),
(644,439,o),
(636,413,c),
(677,411,o),
(685,388,o),
(685,370,cs)
);
}
);
width = 714;
}
);
note = w;
unicode = 119;
},
{
color = 5;
glyphname = x;
lastChange = "2026-06-09 08:17:52 +0000";
layers = (
{
hints = (
{
horizontal = 1;
place = (36, 57);
place = (36, 57);
type = Stem;
},
{
horizontal = 1;
place = (464, 57);
place = (464, 57);
type = Stem;
},
{
place = (47, 521);
place = (47, 521);
type = Stem;
},
{
place = (47, 195);
place = (47, 195);
type = Stem;
},
{
place = (353, 192);
place = (353, 192);
type = Stem;
}
);
layerId = m01;
shapes = (
{
closed = 1;
nodes = (
(262,258,l),
(344,348,ls),
(375,383,o),
(403,401,o),
(422,401,cs),
(437,401,o),
(447,390,o),
(452,364,c),
(471,375,o),
(481,394,o),
(481,413,cs),
(481,438,o),
(465,455,o),
(441,455,cs),
(405,455,o),
(374,414,o),
(352,390,cs),
(255,280,l),
(186,456,l),
(50,430,l),
(53,409,l),
(97,410,ls),
(109,410,o),
(111,406,o),
(115,396,cs),
(185,212,l),
(91,107,ls),
(60,72,o),
(32,54,o),
(13,54,cs),
(-2,54,o),
(-12,65,o),
(-17,91,c),
(-36,80,o),
(-46,61,o),
(-46,42,cs),
(-46,17,o),
(-30,0,o),
(-6,0,cs),
(30,0,o),
(61,41,o),
(83,65,cs),
(194,191,l),
(243,71,l),
(264,8,o),
(299,-10,o),
(335,-10,cs),
(393,-10,o),
(434,38,o),
(456,76,c),
(441,86,l),
(427,62,o),
(400,43,o),
(379,43,cs),
(353,43,o),
(338,72,o),
(326,101,cs)
);
}
);
width = 491;
}
);
note = x;
unicode = 120;
},
{
color = 5;
glyphname = y;
lastChange = "2026-06-13 19:29:18 +0000";
layers = (
{
anchors = (
{
name = top;
pos = (315,500);
}
);
hints = (
{
horizontal = 1;
place = (-48, 221);
place = (-48, 221);
type = Stem;
},
{
horizontal = 1;
place = (196, 21);
target = up;
type = BottomGhost;
},
{
horizontal = 1;
place = (628, 221);
place = (628, 221);
type = Stem;
},
{
place = (201, 270);
place = (201, 270);
type = Stem;
},
{
place = (534, 365);
place = (534, 365);
type = Stem;
}
);
layerId = m01;
shapes = (
{
closed = 1;
nodes = (
(196,456,l),
(50,430,l),
(53,409,l),
(97,410,ls),
(109,410,o),
(113,407,o),
(115,396,cs),
(157,-27,l),
(88,-135,ls),
(47,-198,o),
(10,-228,o),
(-23,-228,cs),
(-45,-228,o),
(-53,-214,o),
(-53,-197,cs),
(-52,-177,o),
(-41,-159,o),
(-11,-139,c),
(-21,-129,o),
(-30,-123,o),
(-51,-123,cs),
(-93,-123,o),
(-121,-159,o),
(-122,-195,cs),
(-123,-230,o),
(-91,-253,o),
(-49,-253,cs),
(3,-253,o),
(52,-227,o),
(109,-142,cs),
(208,4,ls),
(335,191,o),
(441,325,o),
(444,399,cs),
(446,436,o),
(420,455,o),
(393,455,cs),
(368,455,o),
(347,439,o),
(339,413,c),
(380,411,o),
(388,388,o),
(388,370,cs),
(389,282,o),
(281,152,o),
(230,77,c)
);
}
);
width = 415;
}
);
note = y;
unicode = 121;
},
{
color = 5;
glyphname = z;
lastChange = "2026-06-13 19:29:14 +0000";
layers = (
{
anchors = (
{
name = bottom;
pos = (181,0);
},
{
name = top;
pos = (346,500);
}
);
hints = (
{
horizontal = 1;
place = (147, 171);
place = (147, 171);
type = Stem;
},
{
horizontal = 1;
place = (576, 172);
place = (576, 172);
type = Stem;
},
{
place = (201, 168);
place = (201, 168);
type = Stem;
},
{
place = (541, 167);
place = (541, 167);
type = Stem;
}
);
layerId = m01;
shapes = (
{
closed = 1;
nodes = (
(400,146,l),
(379,146,l),
(342,37,o),
(293,25,o),
(193,25,cs),
(87,25,l),
(483,450,l),
(123,450,l),
(83,315,l),
(105,315,l),
(146,422,o),
(183,425,o),
(261,425,cs),
(269,425,o),
(277,425,o),
(285,425,cs),
(331,424,ls),
(339,424,o),
(347,424,o),
(355,424,c),
(-43,0,l),
(112,1,o),
(251,1,o),
(357,1,c)
);
}
);
width = 440;
}
);
note = z;
unicode = 122;
},
{
color = 5;
glyphname = braceleft;
lastChange = "2026-06-08 18:14:28 +0000";
layers = (
{
hints = (
{
place = (-323, -130);
place = (-323, -130);
type = Stem;
},
{
place = (120, -129);
place = (120, -129);
type = Stem;
},
{
place = (564, -130);
place = (564, -130);
type = Stem;
},
{
place = (14, -66);
place = (14, -66);
type = Stem;
}
);
layerId = m01;
shapes = (
{
closed = 1;
nodes = (
(51,265,l),
(111,265,o),
(120,228,o),
(99,147,c),
(54,-15,ls),
(21,-133,o),
(53,-178,o),
(173,-178,c),
(177,-163,l),
(105,-156,o),
(105,-115,o),
(123,-50,cs),
(161,86,ls),
(193,199,o),
(190,255,o),
(112,273,c),
(200,291,o),
(234,347,o),
(265,460,cs),
(303,596,ls),
(322,661,o),
(345,702,o),
(421,709,c),
(425,724,l),
(305,724,o),
(248,679,o),
(215,561,cs),
(169,399,l),
(145,318,o),
(118,281,o),
(55,281,c)
);
}
);
width = 331;
}
);
note = braceleft;
unicode = 123;
},
{
color = 5;
glyphname = bar;
lastChange = "2026-06-08 18:14:28 +0000";
layers = (
{
hints = (
{
horizontal = 1;
place = (-150, 724);
place = (-150, 724);
type = Stem;
},
{
place = (-11, -30);
place = (-11, -30);
type = Stem;
}
);
layerId = m01;
shapes = (
{
closed = 1;
nodes = (
(218,730,l),
(170,730,l),
(170,-72,l),
(218,-72,l)
);
}
);
width = 333;
}
);
note = bar;
unicode = 124;
},
{
color = 5;
glyphname = braceright;
lastChange = "2026-06-08 18:14:28 +0000";
layers = (
{
hints = (
{
place = (-34, 159);
place = (-34, 159);
type = Stem;
},
{
place = (409, 160);
place = (409, 160);
type = Stem;
},
{
place = (853, 159);
place = (853, 159);
type = Stem;
},
{
place = (311, 223);
place = (311, 223);
type = Stem;
}
);
layerId = m01;
shapes = (
{
closed = 1;
nodes = (
(306,281,l),
(243,281,o),
(238,318,o),
(258,399,c),
(304,561,ls),
(337,679,o),
(304,724,o),
(184,724,c),
(180,709,l),
(252,702,o),
(253,661,o),
(234,596,cs),
(196,460,ls),
(165,347,o),
(167,291,o),
(245,273,c),
(157,255,o),
(124,199,o),
(92,86,cs),
(54,-50,ls),
(36,-115,o),
(12,-156,o),
(-64,-163,c),
(-68,-178,l),
(52,-178,o),
(110,-133,o),
(143,-15,cs),
(188,147,l),
(213,228,o),
(242,265,o),
(302,265,c)
);
}
);
width = 331;
}
);
note = braceright;
unicode = 125;
},
{
color = 5;
glyphname = asciitilde;
lastChange = "2026-06-08 18:14:28 +0000";
layers = (
{
hints = (
{
horizontal = 1;
place = (317, 41);
place = (317, 41);
type = Stem;
},
{
place = (9, 468);
place = (9, 468);
type = Stem;
},
{
horizontal = 1;
place = (249, 41);
place = (249, 41);
type = Stem;
}
);
layerId = m01;
shapes = (
{
closed = 1;
nodes = (
(201,342,o),
(317,274,o),
(384,274,cs),
(452,274,o),
(493,330,o),
(522,404,c),
(491,417,l),
(469,365,o),
(446,340,o),
(399,340,cs),
(364,340,o),
(221,408,o),
(167,408,cs),
(99,408,o),
(58,352,o),
(29,278,c),
(60,265,l),
(82,317,o),
(105,342,o),
(152,342,cs)
);
}
);
width = 489;
}
);
note = asciitilde;
unicode = 126;
},
{
color = 5;
glyphname = bullet;
lastChange = "2026-06-08 18:14:28 +0000";
layers = (
{
hints = (
{
horizontal = 1;
place = (149, 266);
place = (149, 266);
type = Stem;
},
{
place = (55, 266);
place = (55, 266);
type = Stem;
}
);
layerId = m01;
shapes = (
{
closed = 1;
nodes = (
(373,413,o),
(306,481,o),
(223,481,cs),
(141,481,o),
(74,413,o),
(74,331,cs),
(74,250,o),
(141,182,o),
(223,182,cs),
(307,182,o),
(373,252,o),
(373,331,cs)
);
}
);
width = 390;
}
);
note = bullet;
unicode = 8226;
},
{
color = 5;
glyphname = endash;
lastChange = "2026-06-08 18:14:28 +0000";
layers = (
{
hints = (
{
horizontal = 1;
place = (210, 17);
place = (210, 17);
type = Stem;
},
{
place = (-4, 454);
place = (-4, 454);
type = Stem;
}
);
layerId = m01;
shapes = (
{
closed = 1;
nodes = (
(492,273,l),
(15,273,l),
(15,233,l),
(492,233,l)
);
}
);
width = 492;
}
);
note = endash;
unicode = 8211;
},
{
color = 5;
glyphname = emdash;
lastChange = "2026-06-08 18:14:28 +0000";
layers = (
{
hints = (
{
horizontal = 1;
place = (459, 265);
place = (459, 265);
type = Stem;
},
{
place = (257, 1122);
place = (257, 1122);
type = Stem;
}
);
layerId = m01;
shapes = (
{
closed = 1;
nodes = (
(911,272,l),
(15,272,l),
(15,233,l),
(911,233,l)
);
}
);
width = 911;
}
);
note = emdash;
unicode = 8212;
},
{
color = 5;
glyphname = guilsinglleft;
lastChange = "2026-06-08 18:14:28 +0000";
layers = (
{
hints = (
{
horizontal = 1;
place = (22, 316);
place = (22, 316);
type = Stem;
},
{
place = (-5, 161);
place = (-5, 161);
type = Stem;
}
);
layerId = m01;
shapes = (
{
closed = 1;
nodes = (
(27,243,l),
(156,64,l),
(180,64,l),
(85,243,l),
(280,422,l),
(256,422,l)
);
}
);
width = 249;
}
);
note = guilsinglleft;
unicode = 8249;
},
{
color = 5;
glyphname = dotlessi;
lastChange = "2026-06-08 19:47:02 +0000";
layers = (
{
anchors = (
{
name = ogonek;
pos = (113,0);
},
{
name = top;
pos = (208,504);
}
);
hints = (
{
horizontal = 1;
place = (-125, -104);
place = (-125, -104);
type = Stem;
},
{
horizontal = 1;
place = (301, -96);
place = (301, -96);
type = Stem;
},
{
place = (-23, -37);
place = (-23, -37);
type = Stem;
}
);
layerId = m01;
shapes = (
{
closed = 1;
nodes = (
(248,456,l),
(77,430,l),
(80,409,l),
(124,410,ls),
(142,410,o),
(144,400,o),
(137,377,cs),
(59,107,ls),
(55,92,o),
(44,61,o),
(44,40,cs),
(44,2,o),
(73,-10,o),
(101,-10,cs),
(160,-10,o),
(206,38,o),
(228,76,c),
(213,86,l),
(199,62,o),
(174,43,o),
(156,43,cs),
(144,43,o),
(137,48,o),
(137,61,cs),
(137,70,o),
(142,89,o),
(146,103,cs)
);
}
);
width = 281;
}
);
note = dotlessi;
unicode = 305;
},
{
color = 5;
glyphname = circumflex;
lastChange = "2026-06-08 18:39:05 +0000";
layers = (
{
hints = (
{
horizontal = 1;
place = (569, -176);
place = (569, -176);
type = Stem;
},
{
place = (-203, 82);
place = (-203, 82);
type = Stem;
}
);
layerId = m01;
shapes = (
{
closed = 1;
nodes = (
(313,721,o),
(305,730,o),
(282,730,cs),
(260,730,o),
(248,721,o),
(229,700,cs),
(99,559,l),
(130,559,l),
(279,688,l),
(368,559,l),
(399,559,l),
(323,701,l)
);
}
);
width = 320;
}
);
note = circumflex;
unicode = 710;
},
{
color = 5;
glyphname = tilde;
lastChange = "2026-06-08 18:39:05 +0000";
layers = (
{
hints = (
{
horizontal = 1;
place = (490, -196);
place = (490, -196);
type = Stem;
},
{
place = (-224, -230);
place = (-224, -230);
type = Stem;
},
{
place = (71, -230);
place = (71, -230);
type = Stem;
},
{
horizontal = 1;
place = (441, -196);
place = (441, -196);
type = Stem;
}
);
layerId = m01;
shapes = (
{
closed = 1;
nodes = (
(240,658,o),
(288,609,o),
(334,609,cs),
(406,609,o),
(441,665,o),
(449,715,c),
(426,715,l),
(421,682,o),
(394,666,o),
(370,666,cs),
(340,666,o),
(273,715,o),
(228,715,cs),
(168,715,o),
(121,659,o),
(113,609,c),
(136,609,l),
(141,642,o),
(166,658,o),
(192,658,cs)
);
}
);
width = 329;
}
);
note = tilde;
unicode = 732;
},
{
color = 5;
glyphname = hyphen;
lastChange = "2026-06-08 18:14:28 +0000";
layers = (
{
hints = (
{
horizontal = 1;
place = (272, 99);
place = (272, 99);
type = Stem;
},
{
place = (94, 303);
place = (94, 303);
type = Stem;
}
);
layerId = m01;
shapes = (
{
closed = 1;
nodes = (
(304,281,l),
(46,281,l),
(31,227,l),
(289,227,l)
);
}
);
width = 319;
}
);
note = hyphen;
unicode = 45;
},
{
color = 5;
glyphname = percent;
lastChange = "2026-06-08 18:14:28 +0000";
layers = (
{
hints = (
{
horizontal = 1;
place = (-162, -132);
place = (-162, -132);
type = Stem;
},
{
horizontal = 1;
place = (162, -132);
place = (162, -132);
type = Stem;
},
{
horizontal = 1;
place = (219, -132);
place = (219, -132);
type = Stem;
},
{
horizontal = 1;
place = (543, -132);
place = (543, -132);
type = Stem;
},
{
place = (-101, -80);
place = (-101, -80);
type = Stem;
},
{
place = (135, -79);
place = (135, -79);
type = Stem;
},
{
place = (278, -80);
place = (278, -80);
type = Stem;
},
{
place = (514, -79);
place = (514, -79);
type = Stem;
},
{
horizontal = 1;
place = (564, -20);
target = down;
type = TopGhost;
}
);
layerId = m01;
shapes = (
{
closed = 1;
nodes = (
(731,714,l),
(93,-24,l),
(140,-24,l),
(778,714,l)
);
},
{
closed = 1;
nodes = (
(477,633,o),
(443,711,o),
(345,711,cs),
(253,711,o),
(170,633,o),
(144,540,cs),
(118,446,o),
(157,369,o),
(251,369,cs),
(347,369,o),
(425,446,o),
(451,540,cs)
);
},
{
closed = 1;
nodes = (
(356,455,o),
(320,387,o),
(253,387,cs),
(186,387,o),
(190,455,o),
(212,533,cs),
(236,621,o),
(271,693,o),
(339,693,cs),
(405,693,o),
(402,620,o),
(379,537,cs)
);
},
{
closed = 1;
nodes = (
(749,252,o),
(715,330,o),
(617,330,cs),
(525,330,o),
(442,252,o),
(416,159,cs),
(390,65,o),
(430,-12,o),
(524,-12,cs),
(620,-12,o),
(697,65,o),
(723,159,cs)
);
},
{
closed = 1;
nodes = (
(629,74,o),
(593,6,o),
(526,6,cs),
(459,6,o),
(463,74,o),
(484,152,cs),
(509,240,o),
(544,312,o),
(612,312,cs),
(678,312,o),
(675,239,o),
(652,156,cs)
);
}
);
width = 801;
}
);
note = percent;
unicode = 37;
},
{
color = 5;
glyphname = guilsinglright;
lastChange = "2026-06-08 18:14:28 +0000";
layers = (
{
layerId = m01;
shapes = (
{
closed = 1;
nodes = (
(103,422,l),
(79,422,l),
(174,243,l),
(-21,64,l),
(3,64,l),
(232,243,l)
);
}
);
width = 249;
}
);
note = guilsinglright;
unicode = 8250;
},
{
color = 5;
glyphname = AE;
lastChange = "2026-06-08 19:10:08 +0000";
layers = (
{
layerId = m01;
shapes = (
{
closed = 1;
nodes = (
(586,595,l),
(607,620,l),
(607,614,o),
(606,607,o),
(605,599,cs),
(604,595,l),
(514,273,l),
(297,273,l)
);
},
{
closed = 1;
nodes = (
(138,0,l),
(148,23,l),
(77,23,o),
(81,41,o),
(187,155,cs),
(271,246,l),
(506,246,l),
(477,143,ls),
(452,54,o),
(424,23,o),
(353,23,c),
(347,0,l),
(894,0,l),
(957,223,l),
(931,223,l),
(882,74,o),
(796,23,o),
(636,23,cs),
(602,23,o),
(576,24,o),
(544,25,c),
(552,65,o),
(563,105,o),
(576,150,cs),
(631,346,l),
(678,346,ls),
(765,346,o),
(810,336,o),
(782,222,c),
(808,222,l),
(885,491,l),
(859,491,l),
(832,407,o),
(795,371,o),
(727,371,cs),
(639,371,l),
(725,677,l),
(923,671,o),
(1023,693,o),
(988,507,c),
(1014,507,l),
(1031,572,o),
(1050,636,o),
(1067,700,c),
(545,700,l),
(539,676,l),
(577,676,o),
(597,667,o),
(604,646,c),
(150,145,ls),
(47,31,o),
(19,23,o),
(-52,23,c),
(-62,0,l)
);
}
);
width = 988;
}
);
unicode = 198;
},
{
color = 5;
glyphname = Eth;
lastChange = "2026-06-13 19:33:37 +0000";
layers = (
{
layerId = m01;
shapes = (
{
closed = 1;
nodes = (
(237,19,o),
(205,24,o),
(176,32,c),
(364,673,l),
(398,676,o),
(427,678,o),
(457,678,cs),
(572,678,o),
(641,632,o),
(638,494,cs),
(633,299,o),
(510,19,o),
(273,19,cs)
);
},
{
closed = 1;
nodes = (
(178,676,l),
(249,676,o),
(259,645,o),
(233,556,cs),
(112,143,ls),
(86,54,o),
(58,23,o),
(-13,23,c),
(-20,0,l),
(27,0,o),
(69,1,o),
(119,1,cs),
(163,1,o),
(209,-2,o),
(265,-2,cs),
(530,-2,o),
(734,212,o),
(741,460,cs),
(745,625,o),
(642,700,o),
(469,700,cs),
(399,700,o),
(363,698,o),
(304,698,cs),
(264,698,o),
(226,699,o),
(185,700,c)
);
},
{
closed = 1;
nodes = (
(379,374,l),
(76,374,l),
(69,348,l),
(372,348,l)
);
}
);
width = 726;
}
);
unicode = 208;
},
{
color = 5;
glyphname = Dcroat;
lastChange = "2026-06-13 19:33:29 +0000";
layers = (
{
layerId = m01;
shapes = (
{
closed = 1;
nodes = (
(237,19,o),
(205,24,o),
(176,32,c),
(364,673,l),
(398,676,o),
(427,678,o),
(457,678,cs),
(572,678,o),
(641,632,o),
(638,494,cs),
(633,299,o),
(510,19,o),
(273,19,cs)
);
},
{
closed = 1;
nodes = (
(178,676,l),
(249,676,o),
(259,645,o),
(233,556,cs),
(112,143,ls),
(86,54,o),
(58,23,o),
(-13,23,c),
(-20,0,l),
(27,0,o),
(69,1,o),
(119,1,cs),
(163,1,o),
(209,-2,o),
(265,-2,cs),
(530,-2,o),
(734,212,o),
(741,460,cs),
(745,625,o),
(642,700,o),
(469,700,cs),
(399,700,o),
(363,698,o),
(304,698,cs),
(264,698,o),
(226,699,o),
(185,700,c)
);
},
{
closed = 1;
nodes = (
(379,374,l),
(76,374,l),
(69,348,l),
(372,348,l)
);
}
);
width = 726;
}
);
unicode = 272;
},
{
color = 5;
glyphname = Hbar;
lastChange = "2026-06-08 19:10:08 +0000";
layers = (
{
layerId = m01;
shapes = (
{
closed = 1;
nodes = (
(257,348,l),
(553,348,l),
(493,143,ls),
(467,54,o),
(439,23,o),
(368,23,c),
(362,0,l),
(639,0,l),
(645,23,l),
(574,23,o),
(564,54,o),
(590,143,cs),
(710,556,ls),
(736,645,o),
(765,676,o),
(836,676,c),
(842,700,l),
(565,700,l),
(559,676,l),
(630,676,o),
(638,645,o),
(613,556,cs),
(561,374,l),
(265,374,l),
(317,556,l),
(343,645,o),
(372,676,o),
(443,676,c),
(449,700,l),
(173,700,l),
(167,676,l),
(238,676,o),
(247,645,o),
(221,556,cs),
(101,143,ls),
(75,54,o),
(47,23,o),
(-24,23,c),
(-30,0,l),
(246,0,l),
(252,23,l),
(181,23,o),
(171,54,o),
(197,143,cs)
);
},
{
closed = 1;
nodes = (
(795,504,l),
(100,504,l),
(93,478,l),
(788,478,l)
);
}
);
width = 745;
}
);
unicode = 294;
},
{
color = 5;
glyphname = Lslash;
lastChange = "2026-06-08 19:10:08 +0000";
layers = (
{
anchors = (
{
name = bottom;
pos = (268,0);
},
{
name = caron;
pos = (543,485);
},
{
name = top;
pos = (502,760);
}
);
layerId = m01;
shapes = (
{
closed = 1;
nodes = (
(207,104,ls),
(199,76,o),
(192,50,o),
(186,26,c),
(217,24,o),
(236,23,o),
(270,23,cs),
(283,23,o),
(309,23,o),
(322,24,cs),
(440,33,o),
(521,98,o),
(565,222,c),
(591,222,l),
(520,0,l),
(-10,0,l),
(-4,22,l),
(67,22,o),
(95,53,o),
(121,142,cs),
(241,555,ls),
(267,644,o),
(257,675,o),
(186,675,c),
(193,700,l),
(470,700,l),
(463,675,l),
(392,675,o),
(364,644,o),
(338,555,cs)
);
},
{
closed = 1;
nodes = (
(52,276,l),
(544,480,l),
(536,450,l),
(44,246,l)
);
}
);
width = 635;
}
);
unicode = 321;
},
{
color = 5;
glyphname = Oslash;
lastChange = "2026-06-13 19:33:10 +0000";
layers = (
{
anchors = (
{
name = bottom;
pos = (349,0);
},
{
name = top;
pos = (590,760);
}
);
layerId = m01;
shapes = (
{
closed = 1;
nodes = (
(806,603,o),
(700,714,o),
(548,714,cs),
(304,714,o),
(64,493,o),
(64,245,cs),
(64,92,o),
(171,-13,o),
(328,-13,cs),
(566,-13,o),
(806,213,o),
(806,454,cs)
);
},
{
closed = 1;
nodes = (
(253,12,o),
(179,78,o),
(179,222,cs),
(179,425,o),
(283,690,o),
(521,690,cs),
(630,690,o),
(692,614,o),
(692,483,cs),
(692,294,o),
(590,12,o),
(368,12,cs)
);
},
{
closed = 1;
nodes = (
(97,-31,l),
(121,-48,l),
(772,731,l),
(748,748,l)
);
}
);
width = 803;
}
);
unicode = 216;
},
{
color = 5;
glyphname = OE;
lastChange = "2026-06-13 19:33:15 +0000";
layers = (
{
layerId = m01;
shapes = (
{
closed = 1;
nodes = (
(253,12,o),
(179,78,o),
(179,222,cs),
(179,425,o),
(283,690,o),
(521,690,cs),
(559,690,o),
(591,681,o),
(617,663,c),
(588,556,l),
(434,21,l),
(413,15,o),
(391,12,o),
(368,12,cs)
);
},
{
closed = 1;
nodes = (
(64,92,o),
(171,-13,o),
(328,-13,cs),
(361,-13,o),
(395,-8,o),
(428,0,c),
(887,0,l),
(950,223,l),
(924,223,l),
(875,74,o),
(789,23,o),
(629,23,cs),
(595,23,o),
(569,24,o),
(537,25,c),
(545,65,o),
(556,105,o),
(569,150,cs),
(624,346,l),
(671,346,ls),
(758,346,o),
(803,336,o),
(775,222,c),
(801,222,l),
(878,491,l),
(852,491,l),
(825,407,o),
(788,371,o),
(720,371,cs),
(632,371,l),
(718,677,l),
(916,671,o),
(1016,693,o),
(981,507,c),
(1007,507,l),
(1024,572,o),
(1043,636,o),
(1060,700,c),
(636,700,l),
(609,709,o),
(580,714,o),
(548,714,cs),
(304,714,o),
(64,493,o),
(64,245,cs)
);
}
);
width = 981;
}
);
unicode = 338;
},
{
color = 5;
glyphname = Thorn;
lastChange = "2026-06-08 19:10:08 +0000";
layers = (
{
layerId = m01;
shapes = (
{
closed = 1;
nodes = (
(467,282,o),
(401,218,o),
(293,218,cs),
(267,218,o),
(245,219,o),
(217,222,c),
(307,558,l),
(308,561,l),
(328,562,o),
(348,563,o),
(369,563,cs),
(501,563,o),
(527,513,o),
(496,393,cs)
);
},
{
closed = 1;
nodes = (
(330,645,o),
(357,676,o),
(428,676,c),
(435,700,l),
(158,700,l),
(151,676,l),
(222,676,o),
(233,645,o),
(209,556,cs),
(99,143,ls),
(75,54,o),
(47,23,o),
(-24,23,c),
(-30,0,l),
(247,0,l),
(253,23,l),
(182,23,o),
(173,54,o),
(196,143,cs),
(210,198,l),
(236,196,o),
(259,195,o),
(284,195,cs),
(440,195,o),
(570,263,o),
(604,393,cs),
(637,517,o),
(547,591,o),
(391,591,cs),
(366,591,o),
(341,590,o),
(315,588,c)
);
}
);
width = 599;
}
);
unicode = 222;
},
{
color = 5;
glyphname = Germandbls;
lastChange = "2026-06-08 19:10:08 +0000";
layers = (
{
layerId = m01;
shapes = (
{
closed = 1;
nodes = (
(594,411,o),
(705,329,o),
(667,195,cs),
(632,70,o),
(502,-12,o),
(377,-12,cs),
(279,-12,o),
(205,29,o),
(228,115,cs),
(240,161,o),
(284,188,o),
(319,188,cs),
(332,188,o),
(343,184,o),
(352,177,c),
(291,105,o),
(292,10,o),
(379,10,cs),
(462,10,o),
(534,83,o),
(567,207,cs),
(594,307,o),
(514,376,o),
(366,376,c),
(371,395,l),
(474,408,o),
(547,510,o),
(559,565,cs),
(579,656,o),
(522,690,o),
(478,690,cs),
(399,690,o),
(317,647,o),
(265,454,cs),
(181,143,ls),
(154,44,o),
(158,23,o),
(224,23,c),
(218,0,l),
(-20,0,l),
(-14,23,l),
(52,23,o),
(66,44,o),
(93,143,cs),
(173,440,ls),
(226,636,o),
(334,714,o),
(496,714,cs),
(581,714,o),
(679,674,o),
(654,559,cs),
(639,488,o),
(550,418,o),
(449,398,c),
(449,397,l)
);
}
);
width = 725;
}
);
unicode = 7838;
},
{
color = 5;
glyphname = ae;
lastChange = "2026-06-08 19:47:02 +0000";
layers = (
{
layerId = m01;
shapes = (
{
closed = 1;
nodes = (
(139,12,o),
(111,38,o),
(109,95,cs),
(104,193,o),
(159,442,o),
(287,442,cs),
(326,442,o),
(353,423,o),
(369,389,c),
(318,345,o),
(279,285,o),
(261,220,cs),
(243,156,o),
(249,103,o),
(272,63,c),
(241,32,o),
(208,12,o),
(176,12,cs)
);
},
{
closed = 1;
nodes = (
(16,49,o),
(59,-10,o),
(148,-10,cs),
(205,-10,o),
(248,15,o),
(281,49,c),
(311,11,o),
(360,-10,o),
(422,-10,cs),
(495,-10,o),
(564,19,o),
(625,79,c),
(613,92,l),
(560,47,o),
(506,22,o),
(452,22,cs),
(372,22,o),
(339,67,o),
(340,131,c),
(344,138,l),
(340,132,l),
(341,151,o),
(344,172,o),
(350,194,c),
(564,210,o),
(696,292,o),
(696,379,cs),
(696,433,o),
(637,465,o),
(554,465,cs),
(493,465,o),
(433,440,o),
(383,401,c),
(366,434,o),
(334,465,o),
(277,465,cs),
(124,465,o),
(15,266,o),
(15,130,cs)
);
},
{
closed = 1;
nodes = (
(398,367,o),
(467,442,o),
(544,442,cs),
(593,442,o),
(613,413,o),
(613,372,cs),
(612,276,o),
(498,231,o),
(357,220,c)
);
}
);
width = 679;
}
);
unicode = 230;
},
{
color = 5;
glyphname = eth;
lastChange = "2026-06-08 19:47:02 +0000";
layers = (
{
layerId = m01;
shapes = (
{
closed = 1;
nodes = (
(546,780,l),
(253,576,l),
(265,555,l),
(559,759,l)
);
},
{
closed = 1;
nodes = (
(451,341,l),
(439,393,o),
(410,465,o),
(313,465,cs),
(126,465,o),
(24,276,o),
(24,145,cs),
(24,48,o),
(91,-10,o),
(200,-10,cs),
(353,-10,o),
(466,141,o),
(520,342,cs),
(576,550,o),
(510,708,o),
(284,769,c),
(266,735,l),
(437,674,o),
(493,604,o),
(430,369,cs),
(344,72,o),
(285,12,o),
(203,12,cs),
(142,12,o),
(113,42,o),
(113,102,cs),
(113,196,o),
(176,442,o),
(323,442,cs),
(383,442,o),
(417,402,o),
(436,333,c)
);
}
);
width = 499;
}
);
unicode = 240;
},
{
color = 5;
glyphname = dcroat;
lastChange = "2026-06-08 19:47:02 +0000";
layers = (
{
layerId = m01;
shapes = (
{
closed = 1;
nodes = (
(22,49,o),
(75,-10,o),
(164,-10,cs),
(265,-10,o),
(313,70,o),
(350,138,c),
(352,138,l),
(338,98,o),
(325,62,o),
(324,43,cs),
(323,10,o),
(354,-10,o),
(382,-10,cs),
(441,-10,o),
(487,38,o),
(509,76,c),
(494,86,l),
(480,62,o),
(455,43,o),
(437,43,cs),
(425,43,o),
(418,48,o),
(418,61,cs),
(418,70,o),
(423,89,o),
(427,103,cs),
(602,713,l),
(431,687,l),
(434,666,l),
(478,667,ls),
(496,667,o),
(499,657,o),
(492,634,cs),
(426,400,l),
(405,432,o),
(367,465,o),
(313,465,cs),
(140,465,o),
(21,276,o),
(22,140,cs)
);
},
{
closed = 1;
nodes = (
(110,203,o),
(175,442,o),
(323,442,cs),
(355,442,o),
(385,426,o),
(418,372,c),
(406,331,ls),
(364,186,o),
(279,12,o),
(192,12,cs),
(155,12,o),
(117,38,o),
(114,105,cs)
);
},
{
closed = 1;
nodes = (
(651,569,l),
(373,569,l),
(366,543,l),
(644,543,l)
);
}
);
width = 559;
}
);
unicode = 273;
},
{
color = 5;
glyphname = hbar;
lastChange = "2026-06-08 19:47:02 +0000";
layers = (
{
layerId = m01;
shapes = (
{
closed = 1;
nodes = (
(28,0,l),
(117,0,l),
(132,52,ls),
(173,194,o),
(283,422,o),
(377,422,cs),
(421,422,o),
(431,375,o),
(412,307,cs),
(357,107,ls),
(353,92,o),
(342,61,o),
(342,40,cs),
(342,2,o),
(371,-10,o),
(399,-10,cs),
(458,-10,o),
(504,38,o),
(526,76,c),
(511,86,l),
(497,62,o),
(472,43,o),
(454,43,cs),
(442,43,o),
(435,48,o),
(435,61,cs),
(435,70,o),
(440,89,o),
(444,103,cs),
(503,317,ls),
(528,407,o),
(501,465,o),
(415,465,cs),
(315,465,o),
(227,351,o),
(181,230,c),
(180,230,l),
(315,713,l),
(144,687,l),
(147,666,l),
(191,667,ls),
(209,667,o),
(211,657,o),
(205,634,cs)
);
},
{
closed = 1;
nodes = (
(373,569,l),
(95,569,l),
(88,543,l),
(366,543,l)
);
}
);
width = 581;
}
);
unicode = 295;
},
{
color = 5;
glyphname = jdotless;
lastChange = "2026-06-08 19:47:02 +0000";
layers = (
{
anchors = (
{
name = top;
pos = (220,504);
}
);
layerId = m01;
shapes = (
{
closed = 1;
nodes = (
(52,-83,ls),
(23,-186,o),
(7,-226,o),
(-32,-226,cs),
(-50,-226,o),
(-61,-216,o),
(-61,-199,cs),
(-61,-180,o),
(-49,-158,o),
(-21,-132,c),
(-30,-122,o),
(-43,-117,o),
(-56,-117,cs),
(-94,-117,o),
(-129,-153,o),
(-129,-189,cs),
(-129,-231,o),
(-87,-247,o),
(-42,-247,cs),
(52,-247,o),
(117,-166,o),
(144,-68,cs),
(290,456,l),
(119,430,l),
(122,409,l),
(166,410,ls),
(184,410,o),
(186,400,o),
(180,377,cs)
);
}
);
width = 248;
}
);
unicode = 567;
},
{
color = 5;
glyphname = lslash;
lastChange = "2026-06-13 19:35:03 +0000";
layers = (
{
anchors = (
{
name = bottom;
pos = (193,0);
},
{
name = caron;
pos = (337,505);
}
);
layerId = m01;
shapes = (
{
closed = 1;
nodes = (
(163,103,ls),
(159,89,o),
(154,70,o),
(154,61,cs),
(154,48,o),
(161,43,o),
(173,43,cs),
(191,43,o),
(216,62,o),
(230,86,c),
(245,76,l),
(223,38,o),
(177,-10,o),
(118,-10,cs),
(90,-10,o),
(61,2,o),
(61,40,cs),
(61,61,o),
(72,92,o),
(76,107,cs),
(224,633,ls),
(230,656,o),
(227,667,o),
(209,667,cs),
(165,666,l),
(162,687,l),
(333,713,l)
);
},
{
closed = 1;
nodes = (
(45,276,l),
(339,480,l),
(330,446,l),
(36,242,l)
);
}
);
width = 305;
}
);
unicode = 322;
},
{
color = 5;
glyphname = oslash;
lastChange = "2026-06-08 19:47:02 +0000";
layers = (
{
anchors = (
{
name = bottom;
pos = (208,0);
},
{
name = top;
pos = (374,500);
}
);
layerId = m01;
shapes = (
{
closed = 1;
nodes = (
(553,361,o),
(473,465,o),
(350,465,cs),
(209,465,o),
(73,361,o),
(34,222,cs),
(-3,89,o),
(72,-10,o),
(199,-10,cs),
(338,-10,o),
(479,96,o),
(518,235,cs)
);
},
{
closed = 1;
nodes = (
(377,78,o),
(310,12,o),
(227,12,cs),
(137,12,o),
(93,86,o),
(139,250,cs),
(174,376,o),
(237,442,o),
(330,442,cs),
(417,442,o),
(454,355,o),
(414,212,cs)
);
},
{
closed = 1;
nodes = (
(514,466,l),
(494,484,l),
(17,-4,l),
(37,-22,l)
);
}
);
width = 550;
}
);
unicode = 248;
},
{
color = 5;
glyphname = oe;
lastChange = "2026-06-08 19:47:02 +0000";
layers = (
{
layerId = m01;
shapes = (
{
closed = 1;
nodes = (
(377,78,o),
(310,12,o),
(227,12,cs),
(137,12,o),
(93,86,o),
(139,250,cs),
(174,376,o),
(237,442,o),
(330,442,cs),
(417,442,o),
(454,355,o),
(414,212,cs)
);
},
{
closed = 1;
nodes = (
(-3,89,o),
(72,-10,o),
(199,-10,cs),
(272,-10,o),
(346,20,o),
(405,67,c),
(432,18,o),
(485,-10,o),
(557,-10,cs),
(630,-10,o),
(699,19,o),
(760,79,c),
(748,92,l),
(695,47,o),
(641,22,o),
(587,22,cs),
(483,22,o),
(459,99,o),
(485,194,c),
(699,210,o),
(831,292,o),
(831,379,cs),
(831,433,o),
(772,465,o),
(689,465,cs),
(621,465,o),
(554,434,o),
(501,386,c),
(471,434,o),
(417,465,o),
(350,465,cs),
(209,465,o),
(73,361,o),
(34,222,cs)
);
},
{
closed = 1;
nodes = (
(533,367,o),
(602,442,o),
(679,442,cs),
(728,442,o),
(748,413,o),
(748,372,cs),
(747,276,o),
(633,231,o),
(492,220,c)
);
}
);
width = 814;
}
);
unicode = 339;
},
{
color = 5;
glyphname = thorn;
lastChange = "2026-06-08 19:47:02 +0000";
layers = (
{
layerId = m01;
shapes = (
{
closed = 1;
nodes = (
(211,633,l),
(218,656,o),
(214,667,o),
(196,667,cs),
(152,666,l),
(149,687,l),
(320,713,l),
(220,359,l),
(222,359,l),
(279,435,o),
(348,460,o),
(411,460,cs),
(496,460,o),
(561,414,o),
(561,320,cs),
(561,168,o),
(402,-11,o),
(248,-10,cs),
(188,-11,o),
(153,20,o),
(134,45,c),
(86,-124,ls),
(58,-223,o),
(75,-232,o),
(131,-232,c),
(125,-253,l),
(-113,-253,l),
(-107,-232,l),
(-51,-232,o),
(-30,-223,o),
(-2,-124,c)
);
},
{
closed = 1;
nodes = (
(465,404,o),
(434,442,o),
(390,442,cs),
(321,442,o),
(223,362,o),
(193,255,cs),
(143,74,l),
(161,43,o),
(198,12,o),
(248,12,cs),
(384,12,o),
(465,211,o),
(465,335,cs)
);
}
);
width = 579;
}
);
unicode = 254;
},
{
color = 5;
glyphname = germandbls;
lastChange = "2026-06-08 19:47:02 +0000";
layers = (
{
layerId = m01;
shapes = (
{
closed = 1;
nodes = (
(195,529,ls),
(231,665,o),
(308,731,o),
(435,731,cs),
(532,731,o),
(606,683,o),
(579,579,cs),
(551,475,o),
(445,430,o),
(372,401,c),
(386,405,o),
(397,406,o),
(412,406,cs),
(508,406,o),
(575,322,o),
(542,201,cs),
(509,77,o),
(395,-10,o),
(290,-10,cs),
(226,-10,o),
(174,21,o),
(188,73,cs),
(197,107,o),
(229,130,o),
(258,130,cs),
(271,130,o),
(284,125,o),
(293,115,c),
(238,63,o),
(246,11,o),
(297,11,cs),
(364,11,o),
(408,84,o),
(439,199,cs),
(468,308,o),
(433,380,o),
(361,380,cs),
(334,380,o),
(317,372,o),
(295,362,c),
(290,388,l),
(375,430,o),
(451,462,o),
(478,562,cs),
(497,634,o),
(506,709,o),
(431,709,cs),
(360,709,o),
(322,676,o),
(287,543,cs),
(123,-74,ls),
(97,-172,o),
(31,-253,o),
(-63,-253,cs),
(-108,-253,o),
(-150,-237,o),
(-150,-195,cs),
(-150,-159,o),
(-115,-123,o),
(-77,-123,cs),
(-64,-123,o),
(-51,-128,o),
(-42,-138,c),
(-70,-164,o),
(-82,-186,o),
(-82,-205,cs),
(-82,-222,o),
(-71,-232,o),
(-53,-232,cs),
(-14,-232,o),
(4,-192,o),
(31,-89,c)
);
}
);
width = 583;
}
);
unicode = 223;
},
{
color = 5;
glyphname = "A-cy";
lastChange = "2026-06-09 07:54:44 +0000";
layers = (
{
layerId = m01;
shapes = (
{
closed = 1;
nodes = (
(260,273,l),
(491,560,l),
(466,273,l)
);
},
{
closed = 1;
nodes = (
(454,139,ls),
(445,38,o),
(428,23,o),
(357,23,c),
(347,0,l),
(615,0,l),
(625,23,l),
(559,23,o),
(558,43,o),
(568,161,cs),
(613,718,l),
(586,718,l),
(127,145,ls),
(38,33,o),
(19,23,o),
(-52,23,c),
(-62,0,l),
(138,0,l),
(148,23,l),
(77,23,o),
(70,45,o),
(162,155,cs),
(238,246,l),
(464,246,l)
);
}
);
width = 677;
}
);
unicode = 1040;
},
{
color = 5;
glyphname = "Be-cy";
lastChange = "2026-06-09 07:54:44 +0000";
layers = (
{
layerId = m01;
shapes = (
{
closed = 1;
nodes = (
(199,113,ls),
(190,84,o),
(185,60,o),
(178,32,c),
(208,21,o),
(241,19,o),
(279,19,cs),
(404,19,o),
(473,163,o),
(473,253,cs),
(473,321,o),
(437,355,o),
(361,363,cs),
(341,365,o),
(312,363,o),
(268,360,c)
);
},
{
closed = 1;
nodes = (
(225,556,ls),
(250,645,o),
(241,676,o),
(170,676,c),
(178,700,l),
(708,700,l),
(655,507,l),
(628,507,l),
(661,693,o),
(557,671,o),
(356,677,c),
(274,383,l),
(310,387,o),
(366,388,o),
(420,383,cs),
(519,374,o),
(584,330,o),
(584,246,cs),
(584,103,o),
(445,-2,o),
(291,-2,cs),
(254,-2,o),
(155,1,o),
(117,1,cs),
(-20,0,l),
(-13,23,l),
(58,23,o),
(85,53,o),
(110,143,cs)
);
}
);
width = 616;
}
);
unicode = 1041;
},
{
color = 5;
glyphname = "Ve-cy";
lastChange = "2026-06-09 07:54:44 +0000";
layers = (
{
layerId = m01;
shapes = (
{
closed = 1;
nodes = (
(331,375,o),
(306,376,o),
(281,379,c),
(371,675,l),
(394,676,o),
(423,678,o),
(443,678,cs),
(522,678,o),
(563,658,o),
(563,587,cs),
(563,477,o),
(482,375,o),
(356,375,cs)
);
},
{
closed = 1;
nodes = (
(243,19,o),
(209,21,o),
(179,32,c),
(187,60,o),
(193,84,o),
(202,113,cs),
(274,355,l),
(312,353,o),
(355,352,o),
(401,354,c),
(452,346,o),
(484,303,o),
(484,233,cs),
(484,129,o),
(402,19,o),
(281,19,cs)
);
},
{
closed = 1;
nodes = (
(183,676,l),
(254,676,o),
(264,645,o),
(237,556,cs),
(113,143,ls),
(86,54,o),
(58,23,o),
(-13,23,c),
(-20,0,l),
(27,0,o),
(75,1,o),
(118,1,cs),
(156,1,o),
(255,-2,o),
(292,-2,cs),
(440,-2,o),
(597,81,o),
(597,237,cs),
(597,317,o),
(544,361,o),
(455,367,c),
(561,386,o),
(673,466,o),
(673,573,cs),
(673,661,o),
(607,701,o),
(504,701,cs),
(450,701,o),
(395,698,o),
(329,698,cs),
(275,698,o),
(232,700,o),
(190,700,c)
);
}
);
width = 652;
}
);
unicode = 1042;
},
{
color = 5;
glyphname = "Ge-cy";
lastChange = "2026-06-09 07:54:44 +0000";
layers = (
{
layerId = m01;
shapes = (
{
closed = 1;
nodes = (
(367,677,l),
(568,671,o),
(673,693,o),
(636,507,c),
(663,507,l),
(721,700,l),
(188,700,l),
(180,676,l),
(251,676,o),
(261,645,o),
(235,556,cs),
(112,143,ls),
(86,54,o),
(58,23,o),
(-13,23,c),
(-20,0,l),
(256,0,l),
(263,23,l),
(192,23,o),
(182,54,o),
(208,143,cs)
);
}
);
width = 624;
}
);
unicode = 1043;
},
{
color = 5;
glyphname = "Geupturn-cy";
lastChange = "2026-06-09 07:54:44 +0000";
layers = (
{
layerId = m01;
shapes = (
{
closed = 1;
nodes = (
(188,700,l),
(180,676,l),
(251,676,o),
(261,645,o),
(235,556,cs),
(112,143,ls),
(86,54,o),
(58,23,o),
(-13,23,c),
(-20,0,l),
(256,0,l),
(263,23,l),
(192,23,o),
(182,54,o),
(208,143,cs),
(367,677,l),
(714,677,l),
(763,840,l),
(736,840,l),
(674,704,o),
(579,700,o),
(374,700,cs)
);
}
);
width = 628;
}
);
unicode = 1168;
},
{
color = 5;
glyphname = "Gestroke-cy";
lastChange = "2026-06-09 07:54:44 +0000";
layers = (
{
layerId = m01;
shapes = (
{
closed = 1;
nodes = (
(271,355,l),
(447,355,l),
(454,381,l),
(279,381,l),
(367,677,l),
(568,671,o),
(673,693,o),
(636,507,c),
(663,507,l),
(721,700,l),
(188,700,l),
(180,676,l),
(251,676,o),
(261,645,o),
(235,556,cs),
(183,381,l),
(82,381,l),
(75,355,l),
(175,355,l),
(112,143,ls),
(86,54,o),
(58,23,o),
(-13,23,c),
(-20,0,l),
(256,0,l),
(263,23,l),
(192,23,o),
(182,54,o),
(208,143,cs)
);
}
);
width = 624;
}
);
unicode = 1170;
},
{
color = 5;
glyphname = "De-cy";
lastChange = "2026-06-09 07:54:44 +0000";
layers = (
{
layerId = m01;
shapes = (
{
closed = 1;
nodes = (
(66,26,ls),
(122,26,o),
(145,54,o),
(176,117,cs),
(206,178,o),
(249,270,o),
(288,380,cs),
(313,453,o),
(324,489,o),
(342,556,c),
(367,645,o),
(357,676,o),
(286,676,c),
(292,700,l),
(901,700,l),
(895,676,l),
(824,676,o),
(796,645,o),
(771,556,cs),
(623,26,l),
(713,26,l),
(654,-187,l),
(627,-187,l),
(666,19,o),
(562,0,o),
(349,0,cs),
(136,0,o),
(22,19,o),
(-53,-187,c),
(-80,-187,l),
(-21,26,l)
);
},
{
closed = 1;
nodes = (
(526,26,l),
(707,674,l),
(456,674,l),
(440,594,o),
(411,506,o),
(395,450,cs),
(339,262,o),
(274,108,o),
(202,26,c)
);
}
);
width = 804;
}
);
unicode = 1044;
},
{
color = 5;
glyphname = "Ie-cy";
lastChange = "2026-06-09 07:54:44 +0000";
layers = (
{
anchors = (
{
name = top;
pos = (492,760);
}
);
layerId = m01;
shapes = (
{
closed = 1;
nodes = (
(-20,0,l),
(527,0,l),
(590,223,l),
(564,223,l),
(515,74,o),
(429,23,o),
(269,23,cs),
(235,23,o),
(209,24,o),
(177,25,c),
(185,65,o),
(196,105,o),
(209,150,cs),
(264,346,l),
(311,346,ls),
(398,346,o),
(443,336,o),
(415,222,c),
(441,222,l),
(518,491,l),
(492,491,l),
(465,407,o),
(428,371,o),
(360,371,cs),
(272,371,l),
(358,677,l),
(556,671,o),
(656,693,o),
(621,507,c),
(647,507,l),
(664,572,o),
(683,636,o),
(700,700,c),
(178,700,l),
(172,676,l),
(243,676,o),
(253,645,o),
(228,556,cs),
(110,143,ls),
(85,54,o),
(57,23,o),
(-14,23,c)
);
}
);
width = 621;
}
);
unicode = 1045;
},
{
color = 5;
glyphname = "Zhe-cy";
lastChange = "2026-06-09 07:54:44 +0000";
layers = (
{
layerId = m01;
shapes = (
{
closed = 1;
nodes = (
(493,371,l),
(514,372,o),
(535,372,o),
(557,373,c),
(609,557,ls),
(633,646,o),
(624,677,o),
(553,677,c),
(559,700,l),
(835,700,l),
(829,677,l),
(758,677,o),
(731,646,o),
(707,557,cs),
(655,373,l),
(677,372,o),
(698,372,o),
(719,371,c),
(972,604,ls),
(1021,650,o),
(1018,676,o),
(952,676,c),
(958,700,l),
(1176,700,l),
(1170,676,l),
(1090,676,o),
(1071,667,o),
(982,584,cs),
(751,369,l),
(885,357,o),
(946,298,o),
(942,183,cs),
(940,130,ls),
(937,41,o),
(944,12,o),
(976,12,cs),
(988,12,o),
(1001,16,o),
(1017,23,c),
(1020,3,l),
(996,-6,o),
(977,-13,o),
(942,-13,cs),
(839,-13,o),
(825,58,o),
(832,154,cs),
(834,188,ls),
(843,297,o),
(776,348,o),
(693,348,cs),
(648,348,l),
(591,143,ls),
(566,54,o),
(575,23,o),
(646,23,c),
(640,0,l),
(364,0,l),
(370,23,l),
(441,23,o),
(468,54,o),
(493,143,cs),
(550,348,l),
(505,348,ls),
(422,348,o),
(327,297,o),
(274,188,cs),
(258,154,ls),
(211,58,o),
(157,-13,o),
(54,-13,cs),
(19,-13,o),
(4,-6,o),
(-14,3,c),
(-1,23,l),
(11,16,o),
(22,12,o),
(34,12,cs),
(66,12,o),
(89,41,o),
(136,130,cs),
(164,183,ls),
(224,298,o),
(319,357,o),
(459,369,c),
(348,584,ls),
(305,667,o),
(292,676,o),
(212,676,c),
(218,700,l),
(436,700,l),
(430,676,l),
(364,676,o),
(345,650,o),
(370,604,cs)
);
}
);
width = 1124;
}
);
unicode = 1046;
},
{
color = 5;
glyphname = "Ze-cy";
lastChange = "2026-06-09 07:54:44 +0000";
layers = (
{
layerId = m01;
shapes = (
{
closed = 1;
nodes = (
(352,368,l),
(455,368,o),
(517,290,o),
(490,194,cs),
(455,69,o),
(329,-12,o),
(179,-12,cs),
(75,-12,o),
(-21,39,o),
(3,125,cs),
(16,171,o),
(60,198,o),
(95,198,cs),
(108,198,o),
(119,194,o),
(128,187,c),
(62,108,o),
(83,12,o),
(181,12,cs),
(287,12,o),
(356,84,o),
(386,189,cs),
(419,308,o),
(368,354,o),
(282,354,cs),
(211,354,l),
(218,381,l),
(288,381,ls),
(389,381,o),
(443,437,o),
(470,533,cs),
(499,638,o),
(477,690,o),
(388,690,cs),
(282,690,o),
(221,597,o),
(243,525,c),
(230,518,o),
(217,514,o),
(204,514,cs),
(169,514,o),
(139,541,o),
(152,587,cs),
(176,673,o),
(297,714,o),
(398,714,cs),
(532,714,o),
(603,642,o),
(574,536,cs),
(544,430,o),
(457,376,o),
(352,370,c)
);
}
);
width = 538;
}
);
unicode = 1047;
},
{
color = 5;
glyphname = "Ii-cy";
lastChange = "2026-06-09 07:54:44 +0000";
layers = (
{
anchors = (
{
name = top;
pos = (513,760);
}
);
layerId = m01;
shapes = (
{
closed = 1;
nodes = (
(209,153,l),
(602,502,l),
(502,143,ls),
(477,54,o),
(449,23,o),
(378,23,c),
(372,0,l),
(649,0,l),
(655,23,l),
(584,23,o),
(574,54,o),
(599,143,cs),
(714,556,ls),
(739,645,o),
(767,676,o),
(838,676,c),
(844,700,l),
(567,700,l),
(561,676,l),
(632,676,o),
(644,645,o),
(617,556,cs),
(614,546,l),
(221,197,l),
(321,556,ls),
(346,645,o),
(374,676,o),
(445,676,c),
(451,700,l),
(175,700,l),
(169,676,l),
(240,676,o),
(250,645,o),
(225,556,cs),
(110,143,ls),
(85,54,o),
(57,23,o),
(-14,23,c),
(-20,0,l),
(256,0,l),
(262,23,l),
(191,23,o),
(179,54,o),
(206,143,cs)
);
}
);
width = 757;
}
);
unicode = 1048;
},
{
color = 5;
glyphname = "Ka-cy";
lastChange = "2026-06-09 07:54:44 +0000";
layers = (
{
layerId = m01;
shapes = (
{
closed = 1;
nodes = (
(313,556,ls),
(338,645,o),
(365,676,o),
(436,676,c),
(442,700,l),
(165,700,l),
(159,676,l),
(230,676,o),
(239,645,o),
(214,556,cs),
(99,143,ls),
(74,54,o),
(47,23,o),
(-24,23,c),
(-30,0,l),
(246,0,l),
(252,23,l),
(181,23,o),
(172,54,o),
(197,143,cs),
(254,348,l),
(299,348,ls),
(382,348,o),
(449,297,o),
(440,188,cs),
(438,154,ls),
(431,58,o),
(445,-13,o),
(548,-13,cs),
(583,-13,o),
(602,-6,o),
(626,3,c),
(623,23,l),
(607,16,o),
(594,12,o),
(582,12,cs),
(550,12,o),
(543,41,o),
(546,130,cs),
(548,183,ls),
(552,298,o),
(491,357,o),
(357,369,c),
(588,584,ls),
(677,667,o),
(696,676,o),
(776,676,c),
(782,700,l),
(564,700,l),
(558,676,l),
(624,676,o),
(627,650,o),
(578,604,cs),
(325,371,l),
(304,372,o),
(283,372,o),
(261,373,c)
);
}
);
width = 730;
}
);
unicode = 1050;
},
{
color = 5;
glyphname = "El-cy";
lastChange = "2026-06-09 07:54:44 +0000";
layers = (
{
layerId = m01;
shapes = (
{
closed = 1;
nodes = (
(101,11,o),
(128,54,o),
(159,117,cs),
(189,178,o),
(230,270,o),
(269,380,cs),
(294,453,o),
(307,489,o),
(325,556,cs),
(350,645,o),
(340,676,o),
(269,676,c),
(275,700,l),
(884,700,l),
(878,676,l),
(807,676,o),
(779,645,o),
(754,556,cs),
(639,143,ls),
(614,54,o),
(624,23,o),
(695,23,c),
(689,0,l),
(412,0,l),
(418,23,l),
(489,23,o),
(517,54,o),
(542,143,cs),
(690,674,l),
(439,674,l),
(423,594,o),
(396,506,o),
(380,450,cs),
(362,389,o),
(336,314,o),
(302,238,cs),
(256,134,o),
(184,-13,o),
(57,-13,cs),
(14,-13,o),
(-27,8,o),
(-27,56,cs),
(-27,102,o),
(10,151,o),
(58,151,cs),
(73,151,o),
(87,145,o),
(98,132,c),
(60,99,o),
(40,61,o),
(40,36,cs),
(40,21,o),
(48,11,o),
(64,11,cs)
);
}
);
width = 772;
}
);
unicode = 1051;
},
{
color = 5;
glyphname = "Em-cy";
lastChange = "2026-06-09 07:54:44 +0000";
layers = (
{
layerId = m01;
shapes = (
{
closed = 1;
nodes = (
(114,143,ls),
(88,54,o),
(58,23,o),
(-13,23,c),
(-20,0,l),
(188,0,l),
(195,23,l),
(124,23,o),
(113,54,o),
(139,143,cs),
(281,624,l),
(321,3,l),
(337,3,l),
(755,644,l),
(607,143,ls),
(581,54,o),
(553,23,o),
(482,23,c),
(475,0,l),
(752,0,l),
(759,23,l),
(688,23,o),
(678,54,o),
(704,143,cs),
(825,556,ls),
(851,645,o),
(879,676,o),
(951,676,c),
(959,700,l),
(766,700,l),
(418,170,l),
(382,700,l),
(189,700,l),
(181,676,l),
(253,676,o),
(261,645,o),
(235,556,cs)
);
}
);
width = 872;
}
);
unicode = 1052;
},
{
color = 5;
glyphname = "En-cy";
lastChange = "2026-06-09 07:54:44 +0000";
layers = (
{
layerId = m01;
shapes = (
{
closed = 1;
nodes = (
(257,348,l),
(553,348,l),
(493,143,ls),
(467,54,o),
(439,23,o),
(368,23,c),
(362,0,l),
(639,0,l),
(645,23,l),
(574,23,o),
(564,54,o),
(590,143,cs),
(710,556,ls),
(736,645,o),
(765,676,o),
(836,676,c),
(842,700,l),
(565,700,l),
(559,676,l),
(630,676,o),
(638,645,o),
(613,556,cs),
(561,374,l),
(265,374,l),
(317,556,l),
(343,645,o),
(372,676,o),
(443,676,c),
(449,700,l),
(173,700,l),
(167,676,l),
(238,676,o),
(247,645,o),
(221,556,cs),
(101,143,ls),
(75,54,o),
(47,23,o),
(-24,23,c),
(-30,0,l),
(246,0,l),
(252,23,l),
(181,23,o),
(171,54,o),
(197,143,cs)
);
}
);
width = 745;
}
);
unicode = 1053;
},
{
color = 5;
glyphname = "O-cy";
lastChange = "2026-06-13 19:26:36 +0000";
layers = (
{
layerId = m01;
shapes = (
{
closed = 1;
nodes = (
(806,603,o),
(700,714,o),
(548,714,cs),
(304,714,o),
(64,493,o),
(64,245,cs),
(64,92,o),
(171,-13,o),
(328,-13,cs),
(566,-13,o),
(806,213,o),
(806,454,cs)
);
},
{
closed = 1;
nodes = (
(253,12,o),
(179,78,o),
(179,222,cs),
(179,425,o),
(283,690,o),
(521,690,cs),
(630,690,o),
(692,614,o),
(692,483,cs),
(692,294,o),
(590,12,o),
(368,12,cs)
);
}
);
width = 803;
}
);
unicode = 1054;
},
{
color = 5;
glyphname = "Pe-cy";
lastChange = "2026-06-09 07:54:44 +0000";
layers = (
{
layerId = m01;
shapes = (
{
closed = 1;
nodes = (
(352,674,l),
(627,674,l),
(473,143,ls),
(447,54,o),
(420,23,o),
(349,23,c),
(342,0,l),
(619,0,l),
(626,23,l),
(555,23,o),
(544,54,o),
(570,143,cs),
(690,556,ls),
(716,645,o),
(744,676,o),
(815,676,c),
(821,700,l),
(172,700,l),
(166,676,l),
(237,676,o),
(247,645,o),
(221,556,cs),
(101,143,ls),
(75,54,o),
(48,23,o),
(-23,23,c),
(-30,0,l),
(246,0,l),
(253,23,l),
(182,23,o),
(172,54,o),
(198,143,cs)
);
}
);
width = 724;
}
);
unicode = 1055;
},
{
color = 5;
glyphname = "Er-cy";
lastChange = "2026-06-09 07:54:44 +0000";
layers = (
{
layerId = m01;
shapes = (
{
closed = 1;
nodes = (
(306,333,o),
(284,334,o),
(255,337,c),
(356,676,l),
(376,677,o),
(396,678,o),
(417,678,cs),
(514,678,o),
(552,651,o),
(552,577,cs),
(552,459,o),
(473,333,o),
(332,333,cs)
);
},
{
closed = 1;
nodes = (
(249,313,l),
(275,311,o),
(298,310,o),
(323,310,cs),
(474,310,o),
(657,391,o),
(657,555,cs),
(657,655,o),
(585,701,o),
(463,701,cs),
(411,701,o),
(366,700,o),
(319,700,cs),
(176,700,l),
(169,676,l),
(240,676,o),
(249,645,o),
(223,556,cs),
(102,143,ls),
(76,54,o),
(48,23,o),
(-23,23,c),
(-30,0,l),
(247,0,l),
(254,23,l),
(183,23,o),
(173,54,o),
(199,143,cs)
);
}
);
width = 616;
}
);
unicode = 1056;
},
{
color = 5;
glyphname = "Es-cy";
lastChange = "2026-06-13 19:27:38 +0000";
layers = (
{
layerId = m01;
shapes = (
{
closed = 1;
nodes = (
(566,200,l),
(513,44,o),
(432,12,o),
(346,12,cs),
(235,12,o),
(182,87,o),
(182,246,cs),
(182,418,o),
(272,690,o),
(478,690,cs),
(585,690,o),
(636,632,o),
(619,510,c),
(644,510,l),
(684,698,l),
(659,698,l),
(649,683,o),
(641,678,o),
(632,678,cs),
(607,678,o),
(564,714,o),
(477,714,cs),
(247,714,o),
(68,492,o),
(68,275,cs),
(68,92,o),
(160,-13,o),
(321,-13,cs),
(417,-13,o),
(479,27,o),
(503,27,cs),
(516,27,o),
(526,23,o),
(524,0,c),
(549,0,l),
(591,200,l)
);
}
);
width = 649;
}
);
unicode = 1057;
},
{
color = 5;
glyphname = "Te-cy";
lastChange = "2026-06-09 07:54:44 +0000";
layers = (
{
layerId = m01;
shapes = (
{
closed = 1;
nodes = (
(314,143,ls),
(288,54,o),
(297,23,o),
(368,23,c),
(362,0,l),
(86,0,l),
(92,23,l),
(163,23,o),
(192,54,o),
(218,143,cs),
(372,677,l),
(317,675,ls),
(211,671,o),
(152,628,o),
(105,504,c),
(80,504,l),
(137,700,l),
(718,700,l),
(663,504,l),
(638,504,l),
(661,628,o),
(628,671,o),
(524,675,cs),
(471,677,l),
(470,677,l)
);
}
);
width = 596;
}
);
unicode = 1058;
},
{
color = 5;
glyphname = "U-cy";
lastChange = "2026-06-09 07:54:44 +0000";
layers = (
{
anchors = (
{
name = top;
pos = (557,760);
}
);
layerId = m01;
shapes = (
{
closed = 1;
nodes = (
(387,247,l),
(323,561,ls),
(303,658,o),
(329,677,o),
(400,677,c),
(406,700,l),
(137,700,l),
(131,677,l),
(197,677,o),
(191,650,o),
(214,539,cs),
(301,136,l),
(286,117,ls),
(226,43,o),
(193,11,o),
(156,11,cs),
(132,11,o),
(124,24,o),
(123,44,cs),
(122,77,o),
(145,103,o),
(179,132,c),
(168,145,o),
(154,151,o),
(139,151,cs),
(89,151,o),
(55,108,o),
(55,65,cs),
(55,19,o),
(93,-13,o),
(138,-13,cs),
(187,-13,o),
(239,14,o),
(289,79,cs),
(656,555,ls),
(739,662,o),
(744,677,o),
(815,677,c),
(821,700,l),
(619,700,l),
(613,677,l),
(684,677,o),
(700,648,o),
(619,544,cs)
);
}
);
width = 704;
}
);
unicode = 1059;
},
{
color = 5;
glyphname = "Ef-cy";
lastChange = "2026-06-09 07:54:44 +0000";
layers = (
{
layerId = m01;
shapes = (
{
closed = 1;
nodes = (
(271,619,o),
(112,524,o),
(62,345,cs),
(13,167,o),
(123,78,o),
(305,64,c),
(293,20,o),
(276,15,o),
(187,15,c),
(181,-8,l),
(490,-8,l),
(496,15,l),
(407,15,o),
(395,20,o),
(407,64,c),
(602,84,o),
(759,182,o),
(809,360,cs),
(857,533,o),
(747,627,o),
(567,639,c),
(579,680,o),
(599,685,o),
(683,685,c),
(690,708,l),
(381,708,l),
(374,685,l),
(458,685,o),
(477,680,o),
(465,639,c)
);
},
{
closed = 1;
nodes = (
(234,549,o),
(322,601,o),
(458,613,c),
(455,600,l),
(315,100,l),
(313,92,l),
(192,113,o),
(132,184,o),
(187,379,cs)
);
},
{
closed = 1;
nodes = (
(417,100,l),
(557,600,l),
(560,611,l),
(684,592,o),
(737,516,o),
(685,331,cs),
(634,148,o),
(543,95,o),
(413,87,c)
);
}
);
width = 803;
}
);
unicode = 1060;
},
{
color = 5;
glyphname = "Ha-cy";
lastChange = "2026-06-09 07:54:44 +0000";
layers = (
{
layerId = m01;
shapes = (
{
closed = 1;
nodes = (
(380,336,l),
(323,539,ls),
(294,641,o),
(293,677,o),
(215,677,c),
(223,700,l),
(498,700,l),
(490,677,l),
(419,677,o),
(405,666,o),
(435,574,c),
(476,419,l),
(606,544,ls),
(697,632,o),
(749,676,o),
(646,676,c),
(654,700,l),
(866,700,l),
(858,676,l),
(778,676,o),
(751,649,o),
(660,563,cs),
(483,397,l),
(550,161,ls),
(579,59,o),
(580,23,o),
(658,23,c),
(650,0,l),
(375,0,l),
(383,23,l),
(454,23,o),
(466,32,o),
(439,126,cs),
(385,314,l),
(220,156,ls),
(129,68,o),
(77,24,o),
(180,24,c),
(172,0,l),
(-40,0,l),
(-32,24,l),
(48,24,o),
(76,52,o),
(167,137,cs)
);
}
);
width = 759;
}
);
unicode = 1061;
},
{
color = 5;
glyphname = "Che-cy";
lastChange = "2026-06-09 07:54:44 +0000";
layers = (
{
layerId = m01;
shapes = (
{
closed = 1;
nodes = (
(305,557,ls),
(329,646,o),
(357,677,o),
(428,677,c),
(434,700,l),
(157,700,l),
(151,677,l),
(222,677,o),
(232,646,o),
(208,557,cs),
(167,413,ls),
(135,296,o),
(182,245,o),
(308,245,cs),
(389,245,o),
(470,272,o),
(515,325,c),
(516,325,l),
(465,144,ls),
(440,55,o),
(413,24,o),
(342,24,c),
(335,0,l),
(611,0,l),
(618,24,l),
(547,24,o),
(536,55,o),
(561,144,cs),
(677,557,ls),
(701,646,o),
(729,677,o),
(800,677,c),
(806,700,l),
(530,700,l),
(524,677,l),
(595,677,o),
(605,646,o),
(581,557,cs),
(531,381,l),
(508,332,o),
(422,288,o),
(346,288,cs),
(262,288,o),
(244,339,o),
(267,423,cs)
);
}
);
width = 709;
}
);
unicode = 1063;
},
{
color = 5;
glyphname = "Tse-cy";
lastChange = "2026-06-09 07:54:44 +0000";
layers = (
{
layerId = m01;
shapes = (
{
closed = 1;
nodes = (
(313,557,ls),
(337,646,o),
(364,677,o),
(435,677,c),
(441,700,l),
(165,700,l),
(159,677,l),
(230,677,o),
(240,646,o),
(216,557,cs),
(100,144,ls),
(75,55,o),
(48,24,o),
(-23,24,c),
(-30,0,l),
(242,0,ls),
(475,0,o),
(579,19,o),
(540,-187,c),
(567,-187,l),
(626,26,l),
(536,26,l),
(685,557,ls),
(709,646,o),
(737,677,o),
(808,677,c),
(814,700,l),
(537,700,l),
(531,677,l),
(602,677,o),
(612,646,o),
(588,557,cs),
(439,26,l),
(164,26,l)
);
}
);
width = 717;
}
);
unicode = 1062;
},
{
color = 5;
glyphname = "Sha-cy";
lastChange = "2026-06-09 07:54:44 +0000";
layers = (
{
layerId = m01;
shapes = (
{
closed = 1;
nodes = (
(931,0,l),
(938,24,l),
(867,24,o),
(856,55,o),
(881,144,cs),
(997,557,ls),
(1021,646,o),
(1049,677,o),
(1120,677,c),
(1126,700,l),
(849,700,l),
(843,677,l),
(914,677,o),
(924,646,o),
(900,557,cs),
(751,26,l),
(506,26,l),
(655,557,ls),
(679,646,o),
(707,677,o),
(778,677,c),
(784,700,l),
(507,700,l),
(501,677,l),
(572,677,o),
(582,646,o),
(558,557,cs),
(409,26,l),
(164,26,l),
(313,557,ls),
(337,646,o),
(364,677,o),
(435,677,c),
(441,700,l),
(165,700,l),
(159,677,l),
(230,677,o),
(240,646,o),
(216,557,cs),
(100,144,ls),
(75,55,o),
(48,24,o),
(-23,24,c),
(-30,0,l)
);
}
);
width = 1029;
}
);
unicode = 1064;
},
{
color = 5;
glyphname = "Shcha-cy";
lastChange = "2026-06-09 07:54:44 +0000";
layers = (
{
layerId = m01;
shapes = (
{
closed = 1;
nodes = (
(997,557,ls),
(1021,646,o),
(1049,677,o),
(1120,677,c),
(1126,700,l),
(849,700,l),
(843,677,l),
(914,677,o),
(924,646,o),
(900,557,cs),
(751,26,l),
(506,26,l),
(655,557,ls),
(679,646,o),
(707,677,o),
(778,677,c),
(784,700,l),
(507,700,l),
(501,677,l),
(572,677,o),
(582,646,o),
(558,557,cs),
(409,26,l),
(164,26,l),
(313,557,ls),
(337,646,o),
(364,677,o),
(435,677,c),
(441,700,l),
(165,700,l),
(159,677,l),
(230,677,o),
(240,646,o),
(216,557,cs),
(100,144,ls),
(75,55,o),
(48,24,o),
(-23,24,c),
(-30,0,l),
(554,0,ls),
(787,0,o),
(891,19,o),
(852,-187,c),
(879,-187,l),
(938,26,l),
(848,26,l)
);
}
);
width = 1029;
}
);
unicode = 1065;
},
{
color = 5;
glyphname = "Dzhe-cy";
lastChange = "2026-06-09 07:54:44 +0000";
layers = (
{
layerId = m01;
shapes = (
{
closed = 1;
nodes = (
(313,557,ls),
(337,646,o),
(364,677,o),
(435,677,c),
(441,700,l),
(165,700,l),
(159,677,l),
(230,677,o),
(240,646,o),
(216,557,cs),
(100,144,ls),
(75,55,o),
(48,24,o),
(-23,24,c),
(-30,0,l),
(141,0,ls),
(224,0,o),
(278,-10,o),
(229,-187,c),
(256,-187,l),
(305,-10,o),
(364,0,o),
(448,0,cs),
(619,0,l),
(626,24,l),
(555,24,o),
(544,55,o),
(569,144,cs),
(685,557,ls),
(709,646,o),
(737,677,o),
(808,677,c),
(814,700,l),
(537,700,l),
(531,677,l),
(602,677,o),
(612,646,o),
(588,557,cs),
(439,26,l),
(164,26,l)
);
}
);
width = 717;
}
);
unicode = 1039;
},
{
color = 5;
glyphname = "Softsign-cy";
lastChange = "2026-06-09 07:54:44 +0000";
layers = (
{
layerId = m01;
shapes = (
{
closed = 1;
nodes = (
(439,85,o),
(368,27,o),
(236,27,cs),
(215,27,o),
(195,28,o),
(175,29,c),
(267,359,l),
(297,362,o),
(319,363,o),
(337,363,cs),
(453,363,o),
(504,313,o),
(469,189,cs)
);
},
{
closed = 1;
nodes = (
(323,557,ls),
(347,646,o),
(375,677,o),
(446,677,c),
(452,700,l),
(175,700,l),
(169,677,l),
(240,677,o),
(250,646,o),
(226,557,cs),
(110,144,ls),
(85,55,o),
(58,24,o),
(-13,24,c),
(-20,0,l),
(123,0,ls),
(170,0,o),
(215,-1,o),
(267,-1,cs),
(414,-1,o),
(546,83,o),
(580,202,cs),
(619,335,o),
(507,390,o),
(351,390,cs),
(326,390,o),
(302,389,o),
(275,387,c)
);
}
);
width = 616;
}
);
unicode = 1068;
},
{
color = 5;
glyphname = "Hardsign-cy";
lastChange = "2026-06-09 07:54:44 +0000";
layers = (
{
layerId = m01;
shapes = (
{
closed = 1;
nodes = (
(336,27,o),
(316,28,o),
(296,29,c),
(388,359,l),
(418,362,o),
(440,363,o),
(458,363,cs),
(550,363,o),
(600,342,o),
(600,257,cs),
(600,118,o),
(509,27,o),
(357,27,cs)
);
},
{
closed = 1;
nodes = (
(231,144,ls),
(206,55,o),
(179,24,o),
(108,24,c),
(101,0,l),
(244,0,ls),
(291,0,o),
(336,-1,o),
(388,-1,cs),
(536,-1,o),
(708,105,o),
(708,251,cs),
(708,359,o),
(607,390,o),
(472,390,cs),
(447,390,o),
(423,389,o),
(396,387,c),
(444,557,ls),
(468,646,o),
(496,677,o),
(567,677,c),
(573,700,l),
(145,700,l),
(89,500,l),
(114,500,l),
(162,629,o),
(219,671,o),
(325,675,cs),
(380,677,l)
);
}
);
width = 738;
}
);
unicode = 1066;
},
{
color = 5;
glyphname = "Lje-cy";
lastChange = "2026-06-09 07:54:44 +0000";
layers = (
{
layerId = m01;
shapes = (
{
closed = 1;
nodes = (
(628,27,o),
(608,28,o),
(588,29,c),
(680,359,l),
(710,362,o),
(732,363,o),
(750,363,cs),
(842,363,o),
(892,342,o),
(892,257,cs),
(892,118,o),
(801,27,o),
(649,27,cs)
);
},
{
closed = 1;
nodes = (
(735,556,ls),
(760,645,o),
(788,676,o),
(859,676,c),
(865,700,l),
(276,700,l),
(270,676,l),
(341,676,o),
(351,645,o),
(326,556,cs),
(308,489,o),
(295,453,o),
(270,380,cs),
(231,270,o),
(190,178,o),
(160,117,cs),
(129,54,o),
(102,11,o),
(65,11,cs),
(49,11,o),
(41,21,o),
(41,36,cs),
(41,61,o),
(61,99,o),
(99,132,c),
(88,145,o),
(74,151,o),
(59,151,cs),
(11,151,o),
(-26,109,o),
(-26,59,cs),
(-26,8,o),
(15,-13,o),
(58,-13,cs),
(106,-13,o),
(149,8,o),
(187,50,cs),
(219,87,o),
(243,135,o),
(285,238,cs),
(317,314,o),
(344,389,o),
(362,450,cs),
(378,506,o),
(404,594,o),
(420,674,c),
(671,674,l),
(523,144,ls),
(498,55,o),
(471,24,o),
(400,24,c),
(393,0,l),
(536,0,ls),
(583,0,o),
(628,-1,o),
(680,-1,cs),
(828,-1,o),
(1000,105,o),
(1000,251,cs),
(1000,359,o),
(899,390,o),
(764,390,cs),
(739,390,o),
(715,389,o),
(688,387,c)
);
}
);
width = 1030;
}
);
unicode = 1033;
},
{
color = 5;
glyphname = "Nje-cy";
lastChange = "2026-06-09 07:54:44 +0000";
layers = (
{
layerId = m01;
shapes = (
{
closed = 1;
nodes = (
(583,27,o),
(563,28,o),
(543,29,c),
(635,359,l),
(665,362,o),
(687,363,o),
(705,363,cs),
(797,363,o),
(847,342,o),
(847,257,cs),
(847,118,o),
(756,27,o),
(604,27,cs)
);
},
{
closed = 1;
nodes = (
(691,557,ls),
(715,646,o),
(743,677,o),
(814,677,c),
(820,700,l),
(543,700,l),
(537,677,l),
(608,677,o),
(618,646,o),
(594,557,cs),
(544,381,l),
(262,381,l),
(311,556,ls),
(336,645,o),
(364,676,o),
(435,676,c),
(441,700,l),
(165,700,l),
(159,676,l),
(230,676,o),
(240,645,o),
(215,556,cs),
(100,143,ls),
(75,54,o),
(47,23,o),
(-24,23,c),
(-30,0,l),
(246,0,l),
(252,23,l),
(181,23,o),
(171,54,o),
(196,143,cs),
(255,355,l),
(537,355,l),
(478,144,ls),
(453,55,o),
(426,24,o),
(355,24,c),
(348,0,l),
(491,0,ls),
(538,0,o),
(583,-1,o),
(635,-1,cs),
(783,-1,o),
(955,105,o),
(955,251,cs),
(955,359,o),
(854,390,o),
(719,390,cs),
(694,390,o),
(670,389,o),
(643,387,c)
);
}
);
width = 985;
}
);
unicode = 1034;
},
{
color = 5;
glyphname = "E-cy";
lastChange = "2026-06-09 07:54:44 +0000";
layers = (
{
layerId = m01;
shapes = (
{
closed = 1;
nodes = (
(459,377,l),
(452,350,l),
(190,350,l),
(136,155,o),
(175,12,o),
(331,12,cs),
(416,12,o),
(509,67,o),
(512,127,c),
(523,136,o),
(533,140,o),
(543,140,cs),
(553,140,o),
(557,136,o),
(560,132,c),
(562,127,o),
(564,121,o),
(562,114,cs),
(556,93,o),
(538,72,o),
(512,53,cs),
(460,16,o),
(382,-12,o),
(312,-12,cs),
(101,-12,o),
(18,149,o),
(72,343,cs),
(130,552,o),
(309,714,o),
(495,714,cs),
(599,714,o),
(698,673,o),
(674,587,cs),
(661,541,o),
(617,514,o),
(582,514,cs),
(569,514,o),
(558,518,o),
(549,525,c),
(611,597,o),
(602,690,o),
(496,690,cs),
(367,690,o),
(259,577,o),
(197,377,c)
);
}
);
width = 622;
}
);
unicode = 1028;
},
{
color = 5;
glyphname = "Ereversed-cy";
lastChange = "2026-06-09 07:54:44 +0000";
layers = (
{
layerId = m01;
shapes = (
{
closed = 1;
nodes = (
(321,12,o),
(438,155,o),
(494,350,c),
(232,350,l),
(239,377,l),
(501,377,l),
(554,587,o),
(507,690,o),
(390,690,cs),
(272,690,o),
(215,597,o),
(237,525,c),
(224,518,o),
(211,514,o),
(198,514,cs),
(163,514,o),
(133,541,o),
(146,587,cs),
(170,673,o),
(287,714,o),
(403,714,cs),
(577,714,o),
(672,572,o),
(613,360,cs),
(554,149,o),
(381,-13,o),
(191,-12,c),
(66,-12,o),
(-21,39,o),
(3,125,cs),
(16,171,o),
(60,198,o),
(95,198,cs),
(108,198,o),
(119,194,o),
(128,187,c),
(62,108,o),
(78,12,o),
(197,12,cs)
);
}
);
width = 617;
}
);
unicode = 1069;
},
{
color = 5;
glyphname = "I-cy";
lastChange = "2026-06-09 07:54:44 +0000";
layers = (
{
anchors = (
{
name = top;
pos = (347,760);
}
);
layerId = m01;
shapes = (
{
closed = 1;
nodes = (
(164,676,l),
(235,676,o),
(246,645,o),
(220,556,cs),
(101,143,ls),
(75,54,o),
(48,23,o),
(-23,23,c),
(-30,0,l),
(251,0,l),
(258,23,l),
(187,23,o),
(176,54,o),
(202,143,cs),
(321,556,ls),
(347,645,o),
(374,676,o),
(445,676,c),
(452,700,l),
(171,700,l)
);
}
);
width = 355;
}
);
unicode = 1030;
},
{
color = 5;
glyphname = "Je-cy";
lastChange = "2026-06-09 07:54:44 +0000";
layers = (
{
layerId = m01;
shapes = (
{
closed = 1;
nodes = (
(170,46,ls),
(138,-57,o),
(111,-94,o),
(71,-94,cs),
(44,-94,o),
(29,-75,o),
(29,-50,cs),
(29,-26,o),
(46,-2,o),
(80,27,c),
(70,40,o),
(52,46,o),
(33,46,cs),
(-12,46,o),
(-46,13,o),
(-46,-32,cs),
(-46,-90,o),
(10,-118,o),
(62,-118,cs),
(157,-118,o),
(242,-47,o),
(284,87,cs),
(430,556,ls),
(458,645,o),
(486,676,o),
(557,676,c),
(565,700,l),
(284,700,l),
(276,676,l),
(347,676,o),
(357,645,o),
(329,556,cs)
);
}
);
width = 468;
}
);
unicode = 1032;
},
{
color = 5;
glyphname = "Tshe-cy";
lastChange = "2026-06-09 07:54:44 +0000";
layers = (
{
layerId = m01;
shapes = (
{
closed = 1;
nodes = (
(471,677,l),
(526,675,ls),
(630,671,o),
(662,627,o),
(643,514,c),
(668,514,l),
(718,700,l),
(139,700,l),
(87,514,l),
(112,514,l),
(155,627,o),
(213,671,o),
(319,675,cs),
(374,677,l),
(225,143,ls),
(200,54,o),
(172,23,o),
(101,23,c),
(95,0,l),
(371,0,l),
(377,23,l),
(306,23,o),
(296,54,o),
(321,143,cs),
(363,295,l),
(387,344,o),
(477,388,o),
(544,388,cs),
(629,388,o),
(633,317,o),
(615,253,cs),
(584,143,l),
(544,0,l),
(731,0,l),
(737,23,l),
(666,23,o),
(656,54,o),
(681,143,cs),
(714,263,ls),
(742,360,o),
(709,431,o),
(582,431,cs),
(510,431,o),
(425,404,o),
(380,351,c),
(379,351,l),
(470,677,l)
);
}
);
width = 821;
}
);
unicode = 1035;
},
{
color = 5;
glyphname = "Yu-cy";
lastChange = "2026-06-09 07:54:44 +0000";
layers = (
{
layerId = m01;
shapes = (
{
closed = 1;
nodes = (
(253,348,l),
(355,348,l),
(354,343,ls),
(297,138,o),
(411,-13,o),
(600,-13,cs),
(806,-13,o),
(1012,149,o),
(1071,363,cs),
(1125,556,o),
(1012,714,o),
(830,714,cs),
(631,714,o),
(433,571,o),
(363,374,c),
(260,374,l),
(311,556,ls),
(336,645,o),
(364,676,o),
(435,676,c),
(441,700,l),
(165,700,l),
(159,676,l),
(230,676,o),
(240,645,o),
(215,556,cs),
(100,143,ls),
(75,54,o),
(47,23,o),
(-24,23,c),
(-30,0,l),
(246,0,l),
(252,23,l),
(181,23,o),
(171,54,o),
(196,143,cs)
);
},
{
closed = 1;
nodes = (
(537,586,o),
(646,690,o),
(804,690,cs),
(951,690,o),
(1009,553,o),
(946,327,cs),
(887,114,o),
(782,12,o),
(641,12,cs),
(489,12,o),
(409,128,o),
(481,386,cs)
);
}
);
width = 1074;
}
);
unicode = 1070;
},
{
color = 5;
glyphname = "Ya-cy";
lastChange = "2026-06-09 07:54:44 +0000";
layers = (
{
layerId = m01;
shapes = (
{
closed = 1;
nodes = (
(471,328,l),
(426,328,ls),
(343,328,o),
(275,298,o),
(234,188,cs),
(222,154,ls),
(187,58,o),
(135,-13,o),
(32,-13,cs),
(-3,-13,o),
(-19,-6,o),
(-37,3,c),
(-24,23,l),
(-12,16,o),
(-1,12,o),
(11,12,cs),
(54,12,o),
(81,87,o),
(105,140,cs),
(124,183,ls),
(171,289,o),
(239,319,o),
(313,334,c),
(211,358,o),
(157,417,o),
(185,516,cs),
(222,650,o),
(341,700,o),
(503,700,cs),
(548,700,o),
(581,699,o),
(622,699,cs),
(761,700,l),
(755,676,l),
(684,676,o),
(656,645,o),
(631,556,cs),
(516,143,ls),
(491,54,o),
(501,23,o),
(572,23,c),
(566,0,l),
(289,0,l),
(295,23,l),
(366,23,o),
(394,54,o),
(419,143,cs)
);
},
{
closed = 1;
nodes = (
(260,406,o),
(285,360,o),
(387,352,cs),
(417,350,o),
(446,351,o),
(478,353,c),
(567,676,l),
(539,677,o),
(510,678,o),
(484,678,cs),
(393,678,o),
(324,635,o),
(290,513,cs)
);
}
);
width = 664;
}
);
unicode = 1071;
},
{
color = 5;
glyphname = "Dje-cy";
lastChange = "2026-06-09 07:54:44 +0000";
layers = (
{
layerId = m01;
shapes = (
{
closed = 1;
nodes = (
(456,23,l),
(563,23,o),
(626,196,o),
(626,287,cs),
(626,354,o),
(598,388,o),
(540,388,cs),
(473,388,o),
(387,344,o),
(363,295,c),
(321,143,ls),
(296,54,o),
(306,23,o),
(377,23,c),
(371,0,l),
(95,0,l),
(101,23,l),
(172,23,o),
(200,54,o),
(225,143,cs),
(374,677,l),
(319,675,ls),
(213,671,o),
(155,627,o),
(112,514,c),
(87,514,l),
(139,700,l),
(718,700,l),
(668,514,l),
(643,514,l),
(662,627,o),
(630,671,o),
(526,675,cs),
(471,677,l),
(470,677,l),
(379,351,l),
(380,351,l),
(425,404,o),
(506,431,o),
(574,431,cs),
(662,431,o),
(727,385,o),
(727,280,cs),
(727,141,o),
(606,0,o),
(450,0,c)
);
}
);
width = 751;
}
);
unicode = 1026;
},
{
color = 5;
glyphname = "Zhedescender-cy";
lastChange = "2026-06-09 07:54:44 +0000";
layers = (
{
layerId = m01;
shapes = (
{
closed = 1;
nodes = (
(942,183,ls),
(946,298,o),
(885,357,o),
(751,369,c),
(982,584,ls),
(1071,667,o),
(1090,676,o),
(1170,676,c),
(1176,700,l),
(958,700,l),
(952,676,l),
(1018,676,o),
(1021,650,o),
(972,604,cs),
(719,371,l),
(698,372,o),
(677,372,o),
(655,373,c),
(707,557,ls),
(731,646,o),
(758,677,o),
(829,677,c),
(835,700,l),
(559,700,l),
(553,677,l),
(624,677,o),
(633,646,o),
(609,557,cs),
(557,373,l),
(535,372,o),
(514,372,o),
(493,371,c),
(370,604,ls),
(345,650,o),
(364,676,o),
(430,676,c),
(436,700,l),
(218,700,l),
(212,676,l),
(292,676,o),
(305,667,o),
(348,584,cs),
(459,369,l),
(319,357,o),
(224,298,o),
(164,183,cs),
(136,130,ls),
(89,41,o),
(66,12,o),
(34,12,cs),
(22,12,o),
(11,16,o),
(-1,23,c),
(-14,3,l),
(4,-6,o),
(19,-13,o),
(54,-13,cs),
(157,-13,o),
(211,58,o),
(258,154,cs),
(274,188,ls),
(327,297,o),
(422,348,o),
(505,348,cs),
(550,348,l),
(493,143,ls),
(468,54,o),
(441,23,o),
(370,23,c),
(364,0,l),
(640,0,l),
(646,23,l),
(575,23,o),
(566,54,o),
(591,143,cs),
(648,348,l),
(693,348,ls),
(776,348,o),
(843,297,o),
(834,188,cs),
(832,154,ls),
(827,78,o),
(833,16,o),
(888,-7,cs),
(933,-26,o),
(958,-49,o),
(932,-187,c),
(959,-187,l),
(1017,23,l),
(1001,16,o),
(988,12,o),
(976,12,cs),
(937,12,o),
(937,41,o),
(940,130,cs)
);
}
);
width = 1116;
}
);
unicode = 1174;
},
{
color = 5;
glyphname = "Kadescender-cy";
lastChange = "2026-06-09 07:54:44 +0000";
layers = (
{
layerId = m01;
shapes = (
{
closed = 1;
nodes = (
(539,-26,o),
(564,-49,o),
(538,-187,c),
(565,-187,l),
(623,23,l),
(607,16,o),
(594,12,o),
(582,12,cs),
(543,12,o),
(543,41,o),
(546,130,cs),
(548,183,ls),
(552,298,o),
(491,357,o),
(357,369,c),
(588,584,ls),
(677,667,o),
(696,676,o),
(776,676,c),
(782,700,l),
(564,700,l),
(558,676,l),
(624,676,o),
(627,650,o),
(578,604,cs),
(325,371,l),
(304,372,o),
(283,372,o),
(261,373,c),
(313,556,ls),
(338,645,o),
(365,676,o),
(436,676,c),
(442,700,l),
(165,700,l),
(159,676,l),
(230,676,o),
(239,645,o),
(214,556,cs),
(99,143,ls),
(74,54,o),
(47,23,o),
(-24,23,c),
(-30,0,l),
(246,0,l),
(252,23,l),
(181,23,o),
(172,54,o),
(197,143,cs),
(254,348,l),
(299,348,ls),
(382,348,o),
(449,297,o),
(440,188,cs),
(438,154,ls),
(433,78,o),
(439,16,o),
(494,-7,cs)
);
}
);
width = 722;
}
);
unicode = 1178;
},
{
color = 5;
glyphname = "Endescender-cy";
lastChange = "2026-06-09 07:54:44 +0000";
layers = (
{
layerId = m01;
shapes = (
{
closed = 1;
nodes = (
(362,0,l),
(495,0,o),
(598,16,o),
(560,-187,c),
(587,-187,l),
(645,23,l),
(574,23,o),
(564,54,o),
(589,143,cs),
(704,556,ls),
(729,645,o),
(757,676,o),
(828,676,c),
(834,700,l),
(557,700,l),
(551,676,l),
(622,676,o),
(632,645,o),
(607,556,cs),
(556,374,l),
(260,374,l),
(311,556,l),
(336,645,o),
(364,676,o),
(435,676,c),
(441,700,l),
(165,700,l),
(159,676,l),
(230,676,o),
(240,645,o),
(215,556,cs),
(100,143,ls),
(75,54,o),
(47,23,o),
(-24,23,c),
(-30,0,l),
(246,0,l),
(252,23,l),
(181,23,o),
(171,54,o),
(196,143,cs),
(253,348,l),
(549,348,l),
(492,143,ls),
(467,54,o),
(439,23,o),
(368,23,c)
);
}
);
width = 737;
}
);
unicode = 1186;
},
{
color = 5;
glyphname = "Ustraight-cy";
lastChange = "2026-06-09 07:54:44 +0000";
layers = (
{
layerId = m01;
shapes = (
{
closed = 1;
nodes = (
(380,314,l),
(328,592,ls),
(316,655,o),
(328,677,o),
(393,677,c),
(399,700,l),
(132,700,l),
(126,677,l),
(196,677,o),
(202,666,o),
(230,543,cs),
(289,288,l),
(246,143,ls),
(220,54,o),
(193,23,o),
(122,23,c),
(115,0,l),
(394,0,l),
(401,23,l),
(330,23,o),
(318,54,o),
(345,143,cs),
(392,296,l),
(622,592,l),
(675,660,o),
(687,676,o),
(767,676,c),
(773,700,l),
(570,700,l),
(564,676,l),
(630,676,o),
(653,666,o),
(608,608,cs)
);
}
);
width = 651;
}
);
unicode = 1198;
},
{
color = 5;
glyphname = "Ustraightstroke-cy";
lastChange = "2026-06-09 07:54:44 +0000";
layers = (
{
layerId = m01;
shapes = (
{
closed = 1;
nodes = (
(388,314,l),
(330,592,ls),
(318,655,o),
(328,677,o),
(393,677,c),
(399,700,l),
(132,700,l),
(126,677,l),
(196,677,o),
(202,666,o),
(233,543,cs),
(297,288,l),
(268,181,l),
(131,181,l),
(123,155,l),
(260,155,l),
(257,143,ls),
(232,54,o),
(205,23,o),
(134,23,c),
(128,0,l),
(407,0,l),
(413,23,l),
(342,23,o),
(331,54,o),
(356,143,cs),
(359,155,l),
(495,155,l),
(503,181,l),
(367,181,l),
(399,296,l),
(624,592,ls),
(676,660,o),
(687,676,o),
(767,676,c),
(773,700,l),
(570,700,l),
(564,676,l),
(630,676,o),
(654,666,o),
(610,608,cs)
);
}
);
width = 651;
}
);
unicode = 1200;
},
{
color = 5;
glyphname = "Hadescender-cy";
lastChange = "2026-06-09 07:54:44 +0000";
layers = (
{
layerId = m01;
shapes = (
{
closed = 1;
nodes = (
(381,23,l),
(452,23,o),
(463,32,o),
(428,126,cs),
(359,314,l),
(207,156,ls),
(122,69,o),
(76,24,o),
(179,24,c),
(172,0,l),
(-40,0,l),
(-33,24,l),
(47,24,o),
(71,51,o),
(155,137,cs),
(351,336,l),
(277,539,ls),
(240,641,o),
(236,677,o),
(158,677,c),
(164,700,l),
(439,700,l),
(433,677,l),
(362,677,o),
(349,666,o),
(386,574,c),
(440,419,l),
(561,544,ls),
(645,631,o),
(692,676,o),
(589,676,c),
(595,700,l),
(807,700,l),
(801,676,l),
(721,676,o),
(696,649,o),
(612,563,cs),
(450,397,l),
(537,161,ls),
(574,59,o),
(578,23,o),
(656,23,c),
(597,-190,l),
(570,-190,l),
(609,16,o),
(506,0,o),
(375,0,c)
);
}
);
width = 730;
}
);
unicode = 1202;
},
{
color = 5;
glyphname = "Chedescender-cy";
lastChange = "2026-06-09 07:54:44 +0000";
layers = (
{
layerId = m01;
shapes = (
{
closed = 1;
nodes = (
(618,26,l),
(547,26,o),
(536,55,o),
(561,144,cs),
(677,557,ls),
(701,646,o),
(729,677,o),
(800,677,c),
(806,700,l),
(530,700,l),
(524,677,l),
(595,677,o),
(605,646,o),
(581,557,cs),
(531,381,l),
(508,332,o),
(422,288,o),
(346,288,cs),
(262,288,o),
(244,339,o),
(267,423,cs),
(305,557,ls),
(329,646,o),
(357,677,o),
(428,677,c),
(434,700,l),
(157,700,l),
(151,677,l),
(222,677,o),
(232,646,o),
(208,557,cs),
(167,413,ls),
(135,296,o),
(182,245,o),
(308,245,cs),
(389,245,o),
(470,272,o),
(515,325,c),
(516,325,l),
(465,144,l),
(440,55,o),
(413,26,o),
(342,26,c),
(335,0,l),
(467,0,o),
(571,19,o),
(532,-187,c),
(559,-187,l)
);
}
);
width = 699;
}
);
unicode = 1206;
},
{
color = 5;
glyphname = "Shha-cy";
lastChange = "2026-06-09 07:54:44 +0000";
layers = (
{
layerId = m01;
shapes = (
{
closed = 1;
nodes = (
(472,143,ls),
(447,54,o),
(419,23,o),
(348,23,c),
(342,0,l),
(619,0,l),
(625,23,l),
(554,23,o),
(544,54,o),
(569,143,cs),
(609,287,ls),
(642,404,o),
(594,455,o),
(468,455,cs),
(387,455,o),
(306,428,o),
(262,375,c),
(261,375,l),
(311,556,l),
(336,645,o),
(364,676,o),
(435,676,c),
(441,700,l),
(165,700,l),
(159,676,l),
(230,676,o),
(240,645,o),
(215,556,cs),
(100,143,ls),
(75,54,o),
(47,23,o),
(-24,23,c),
(-30,0,l),
(246,0,l),
(252,23,l),
(181,23,o),
(171,54,o),
(196,143,cs),
(245,319,l),
(269,368,o),
(354,412,o),
(430,412,cs),
(514,412,o),
(533,361,o),
(509,277,cs)
);
}
);
width = 709;
}
);
unicode = 1210;
},
{
color = 5;
glyphname = "Schwa-cy";
lastChange = "2026-06-09 07:54:44 +0000";
layers = (
{
layerId = m01;
shapes = (
{
closed = 1;
nodes = (
(77,381,l),
(13,150,o),
(72,-12,o),
(272,-12,cs),
(458,-12,o),
(637,150,o),
(695,359,cs),
(749,553,o),
(666,714,o),
(455,714,cs),
(355,714,o),
(204,660,o),
(204,582,cs),
(204,570,o),
(212,562,o),
(224,562,cs),
(234,562,o),
(244,566,o),
(255,575,c),
(258,635,o),
(351,690,o),
(436,690,cs),
(584,690,o),
(628,561,o),
(584,381,c)
);
},
{
closed = 1;
nodes = (
(577,352,l),
(514,125,o),
(400,12,o),
(271,12,cs),
(142,12,o),
(121,123,o),
(185,352,c)
);
}
);
width = 694;
}
);
unicode = 1240;
},
{
color = 5;
glyphname = "Obarred-cy";
lastChange = "2026-06-09 07:54:44 +0000";
layers = (
{
layerId = m01;
shapes = (
{
closed = 1;
nodes = (
(843,556,o),
(730,714,o),
(548,714,cs),
(339,714,o),
(131,556,o),
(72,343,cs),
(15,138,o),
(129,-13,o),
(318,-13,cs),
(524,-13,o),
(730,149,o),
(789,363,cs)
);
},
{
closed = 1;
nodes = (
(199,386,ls),
(255,586,o),
(364,690,o),
(522,690,cs),
(657,690,o),
(718,575,o),
(677,381,c),
(197,381,l)
);
},
{
closed = 1;
nodes = (
(671,355,l),
(670,346,o),
(667,336,o),
(664,327,cs),
(605,114,o),
(500,12,o),
(359,12,cs),
(213,12,o),
(133,119,o),
(191,355,c)
);
}
);
width = 792;
}
);
unicode = 1256;
},
{
color = 5;
glyphname = "a-cy";
lastChange = "2026-06-09 08:17:52 +0000";
layers = (
{
anchors = (
{
name = top;
pos = (348,500);
}
);
layerId = m01;
shapes = (
{
closed = 1;
nodes = (
(16,49,o),
(59,-10,o),
(148,-10,cs),
(249,-10,o),
(287,70,o),
(324,138,c),
(326,138,l),
(312,98,o),
(299,67,o),
(300,41,cs),
(302,8,o),
(328,-10,o),
(356,-10,cs),
(415,-10,o),
(461,38,o),
(483,76,c),
(468,86,l),
(454,62,o),
(429,43,o),
(411,43,cs),
(399,43,o),
(392,48,o),
(392,61,cs),
(392,70,o),
(397,89,o),
(401,103,cs),
(503,456,l),
(411,442,l),
(396,387,l),
(372,435,o),
(331,465,o),
(277,465,cs),
(124,465,o),
(15,266,o),
(15,130,cs)
);
},
{
closed = 1;
nodes = (
(104,193,o),
(159,442,o),
(287,442,cs),
(322,442,o),
(355,425,o),
(388,361,c),
(381,335,ls),
(337,171,o),
(256,12,o),
(176,12,cs),
(139,12,o),
(111,38,o),
(109,95,cs)
);
}
);
width = 508;
}
);
unicode = 1072;
},
{
color = 5;
glyphname = "be-cy";
lastChange = "2026-06-09 08:17:52 +0000";
layers = (
{
layerId = m01;
shapes = (
{
closed = 1;
nodes = (
(33,41,o),
(103,-10,o),
(210,-10,cs),
(379,-10,o),
(525,126,o),
(525,296,cs),
(525,399,o),
(450,445,o),
(342,445,cs),
(257,445,o),
(169,401,o),
(112,302,c),
(108,302,l),
(135,396,o),
(205,460,o),
(257,485,cs),
(313,511,o),
(371,527,o),
(442,548,cs),
(539,577,o),
(556,633,o),
(575,703,c),
(548,703,l),
(535,665,o),
(508,644,o),
(446,627,cs),
(362,604,o),
(310,588,o),
(268,570,cs),
(123,505,o),
(33,315,o),
(33,160,cs)
);
},
{
closed = 1;
nodes = (
(393,422,o),
(430,388,o),
(430,312,cs),
(430,187,o),
(364,12,o),
(218,12,cs),
(154,12,o),
(116,39,o),
(116,116,cs),
(116,243,o),
(181,422,o),
(331,422,cs)
);
}
);
width = 531;
}
);
unicode = 1073;
},
{
color = 5;
glyphname = "ve-cy";
lastChange = "2026-06-09 08:17:52 +0000";
layers = (
{
layerId = m01;
shapes = (
{
closed = 1;
nodes = (
(367,286,o),
(319,247,o),
(257,247,c),
(242,247,o),
(208,248,o),
(203,250,c),
(253,429,l),
(257,429,o),
(283,430,o),
(295,430,c),
(354,430,o),
(402,412,o),
(382,341,c)
);
},
{
closed = 1;
nodes = (
(319,56,o),
(258,21,o),
(204,21,cs),
(185,21,o),
(157,24,o),
(141,28,c),
(196,227,l),
(218,225,o),
(261,225,o),
(283,227,c),
(329,221,o),
(353,178,o),
(337,122,c)
);
},
{
closed = 1;
nodes = (
(106,2,o),
(144,-1,o),
(190,-1,cs),
(282,-1,o),
(399,16,o),
(431,130,c),
(449,194,o),
(396,235,o),
(338,239,c),
(338,241,l),
(388,249,o),
(458,286,o),
(474,343,c),
(501,441,o),
(397,452,o),
(321,452,cs),
(287,452,o),
(242,448,o),
(210,448,cs),
(168,448,o),
(134,449,o),
(96,450,c),
(90,429,l),
(146,429,o),
(162,420,o),
(138,332,cs),
(81,129,ls),
(53,30,o),
(32,21,o),
(-24,21,c),
(-30,0,l),
(9,1,o),
(29,2,o),
(79,2,cs)
);
}
);
width = 491;
}
);
unicode = 1074;
},
{
color = 5;
glyphname = "ge-cy";
lastChange = "2026-06-09 08:17:52 +0000";
layers = (
{
layerId = m01;
shapes = (
{
closed = 1;
nodes = (
(85,429,l),
(141,429,o),
(157,420,o),
(133,332,cs),
(76,129,ls),
(48,30,o),
(27,21,o),
(-29,21,c),
(-35,0,l),
(203,0,l),
(209,21,l),
(153,21,o),
(136,30,o),
(164,129,cs),
(248,429,l),
(327,429,ls),
(420,429,o),
(465,429,o),
(446,323,c),
(469,323,l),
(505,450,l),
(91,450,l)
);
}
);
width = 470;
}
);
unicode = 1075;
},
{
color = 5;
glyphname = "geupturn-cy";
lastChange = "2026-06-09 08:17:52 +0000";
layers = (
{
layerId = m01;
shapes = (
{
closed = 1;
nodes = (
(534,556,l),
(511,556,l),
(471,450,o),
(426,450,o),
(333,450,cs),
(91,450,l),
(85,429,l),
(141,429,o),
(157,420,o),
(133,332,cs),
(76,129,ls),
(48,30,o),
(27,21,o),
(-29,21,c),
(-35,0,l),
(203,0,l),
(209,21,l),
(153,21,o),
(136,30,o),
(164,129,cs),
(248,429,l),
(499,429,l)
);
}
);
width = 470;
}
);
unicode = 1169;
},
{
color = 5;
glyphname = "gestroke-cy";
lastChange = "2026-06-09 08:17:52 +0000";
layers = (
{
layerId = m01;
shapes = (
{
closed = 1;
nodes = (
(92,429,l),
(148,429,o),
(164,420,o),
(140,332,cs),
(111,229,l),
(26,229,l),
(18,199,l),
(103,199,l),
(83,129,ls),
(55,30,o),
(34,21,o),
(-22,21,c),
(-28,0,l),
(210,0,l),
(216,21,l),
(160,21,o),
(143,30,o),
(171,129,cs),
(191,199,l),
(319,199,l),
(327,229,l),
(199,229,l),
(255,429,l),
(334,429,ls),
(427,429,o),
(472,429,o),
(453,323,c),
(476,323,l),
(512,450,l),
(98,450,l)
);
}
);
width = 477;
}
);
unicode = 1171;
},
{
color = 5;
glyphname = "de-cy";
lastChange = "2026-06-09 08:17:52 +0000";
layers = (
{
layerId = m01;
shapes = (
{
closed = 1;
nodes = (
(352,21,l),
(466,430,l),
(282,430,l),
(279,403,o),
(263,343,o),
(252,303,cs),
(226,216,o),
(187,86,o),
(122,21,c)
);
},
{
closed = 1;
nodes = (
(34,21,ls),
(74,21,o),
(96,63,o),
(125,130,cs),
(161,210,o),
(172,265,o),
(188,321,cs),
(215,420,o),
(200,429,o),
(154,429,c),
(160,450,l),
(625,450,l),
(619,429,l),
(573,429,o),
(551,420,o),
(524,321,cs),
(440,21,l),
(505,21,l),
(469,-106,l),
(449,-106,l),
(468,0,o),
(423,0,o),
(330,0,cs),
(139,0,ls),
(46,0,o),
(1,0,o),
(-40,-106,c),
(-60,-106,l),
(-24,21,l)
);
}
);
width = 590;
}
);
unicode = 1076;
},
{
color = 5;
glyphname = "ie-cy";
lastChange = "2026-06-09 08:17:52 +0000";
layers = (
{
anchors = (
{
name = bottom;
pos = (177,0);
},
{
name = ogonek;
pos = (219,0);
},
{
name = top;
pos = (373,500);
}
);
layerId = m01;
shapes = (
{
closed = 1;
nodes = (
(469,433,o),
(410,465,o),
(327,465,cs),
(196,465,o),
(71,352,o),
(34,220,cs),
(-5,80,o),
(67,-10,o),
(195,-10,cs),
(268,-10,o),
(337,19,o),
(398,79,c),
(386,92,l),
(333,47,o),
(279,22,o),
(225,22,cs),
(121,22,o),
(97,99,o),
(123,194,c),
(337,210,o),
(469,292,o),
(469,379,cs)
);
},
{
closed = 1;
nodes = (
(171,367,o),
(240,442,o),
(317,442,cs),
(366,442,o),
(386,413,o),
(386,372,cs),
(385,276,o),
(271,231,o),
(130,220,c)
);
}
);
width = 452;
}
);
unicode = 1077;
},
{
color = 5;
glyphname = "zhe-cy";
lastChange = "2026-06-09 08:17:52 +0000";
layers = (
{
layerId = m01;
shapes = (
{
closed = 1;
nodes = (
(191,21,l),
(237,21,o),
(258,30,o),
(286,129,cs),
(312,221,l),
(298,221,ls),
(250,221,o),
(190,188,o),
(159,122,cs),
(149,101,ls),
(120,38,o),
(82,-10,o),
(5,-10,cs),
(-21,-10,o),
(-35,-4,o),
(-50,5,c),
(-36,26,l),
(-28,19,o),
(-22,14,o),
(-11,14,cs),
(3,14,o),
(17,26,o),
(37,65,cs),
(66,121,ls),
(104,196,o),
(167,226,o),
(249,238,c),
(173,388,ls),
(156,422,o),
(153,429,o),
(99,429,c),
(105,450,l),
(261,450,l),
(255,429,l),
(231,429,ls),
(207,429,o),
(191,415,o),
(199,400,cs),
(276,242,l),
(303,245,o),
(315,243,o),
(318,243,c),
(340,321,ls),
(367,420,o),
(351,429,o),
(305,429,c),
(311,450,l),
(529,450,l),
(523,429,l),
(477,429,o),
(455,420,o),
(428,321,cs),
(406,243,l),
(409,243,o),
(421,245,o),
(448,242,c),
(613,400,ls),
(629,415,o),
(621,429,o),
(597,429,cs),
(573,429,l),
(579,450,l),
(735,450,l),
(729,429,l),
(675,429,o),
(668,422,o),
(631,388,cs),
(471,238,l),
(547,226,o),
(594,196,o),
(590,121,cs),
(587,65,ls),
(585,26,o),
(593,14,o),
(607,14,cs),
(618,14,o),
(626,19,o),
(638,26,c),
(640,5,l),
(621,-4,o),
(603,-10,o),
(577,-10,cs),
(500,-10,o),
(490,38,o),
(495,101,cs),
(497,122,ls),
(502,188,o),
(462,221,o),
(414,221,cs),
(400,221,l),
(374,129,ls),
(346,30,o),
(363,21,o),
(409,21,c),
(403,0,l),
(185,0,l)
);
}
);
width = 679;
}
);
unicode = 1078;
},
{
color = 5;
glyphname = "ze-cy";
lastChange = "2026-06-09 08:17:52 +0000";
layers = (
{
layerId = m01;
shapes = (
{
closed = 1;
nodes = (
(216,-10,o),
(308,46,o),
(332,131,cs),
(353,209,o),
(296,244,o),
(253,247,c),
(253,247,o),
(254,249,o),
(254,249,c),
(288,256,o),
(369,290,o),
(387,355,cs),
(406,424,o),
(349,465,o),
(252,465,cs),
(188,465,o),
(98,448,o),
(80,382,cs),
(71,352,o),
(89,334,o),
(115,334,cs),
(134,334,o),
(147,341,o),
(160,348,c),
(139,398,o),
(173,442,o),
(237,442,cs),
(293,442,o),
(309,417,o),
(292,353,cs),
(275,294,o),
(244,262,o),
(189,262,cs),
(132,262,l),
(124,232,l),
(168,232,ls),
(229,232,o),
(258,206,o),
(238,136,cs),
(217,61,o),
(177,13,o),
(113,13,cs),
(35,13,o),
(36,75,o),
(90,135,c),
(81,142,o),
(71,146,o),
(60,146,cs),
(26,146,o),
(-7,120,o),
(-18,83,cs),
(-37,15,o),
(28,-10,o),
(106,-10,cs)
);
}
);
width = 377;
}
);
unicode = 1079;
},
{
color = 5;
glyphname = "ii-cy";
lastChange = "2026-06-09 08:17:52 +0000";
layers = (
{
anchors = (
{
name = top;
pos = (349,500);
}
);
layerId = m01;
shapes = (
{
closed = 1;
nodes = (
(129,341,ls),
(151,420,o),
(135,429,o),
(89,429,c),
(95,450,l),
(313,450,l),
(307,429,l),
(261,429,o),
(239,420,o),
(217,341,cs),
(162,145,l),
(406,325,l),
(410,341,ls),
(430,421,o),
(416,429,o),
(370,429,c),
(376,450,l),
(594,450,l),
(588,429,l),
(542,429,o),
(520,420,o),
(498,341,cs),
(433,109,ls),
(411,30,o),
(428,21,o),
(474,21,c),
(468,0,l),
(250,0,l),
(256,21,l),
(302,21,o),
(323,30,o),
(345,109,cs),
(399,302,l),
(156,122,l),
(152,109,ls),
(128,31,o),
(147,21,o),
(193,21,c),
(187,0,l),
(-31,0,l),
(-25,21,l),
(21,21,o),
(42,30,o),
(64,109,cs)
);
}
);
width = 563;
}
);
unicode = 1080;
},
{
color = 5;
glyphname = "ka-cy";
lastChange = "2026-06-09 08:17:52 +0000";
layers = (
{
layerId = m01;
shapes = (
{
closed = 1;
nodes = (
(-36,21,l),
(10,21,o),
(31,30,o),
(59,129,cs),
(113,321,ls),
(140,420,o),
(124,429,o),
(78,429,c),
(84,450,l),
(302,450,l),
(296,429,l),
(250,429,o),
(228,420,o),
(201,321,cs),
(179,243,l),
(182,243,o),
(194,245,o),
(221,242,c),
(386,400,ls),
(402,415,o),
(394,429,o),
(370,429,cs),
(346,429,l),
(352,450,l),
(508,450,l),
(502,429,l),
(448,429,o),
(441,422,o),
(404,388,cs),
(244,238,l),
(320,226,o),
(364,196,o),
(360,121,cs),
(357,65,ls),
(355,26,o),
(363,14,o),
(377,14,cs),
(388,14,o),
(396,19,o),
(408,26,c),
(410,5,l),
(391,-4,o),
(373,-10,o),
(347,-10,cs),
(270,-10,o),
(260,38,o),
(265,101,cs),
(267,122,ls),
(272,188,o),
(235,221,o),
(187,221,cs),
(173,221,l),
(147,129,ls),
(119,30,o),
(136,21,o),
(182,21,c),
(176,0,l),
(-42,0,l)
);
}
);
width = 468;
}
);
unicode = 1082;
},
{
color = 5;
glyphname = "el-cy";
lastChange = "2026-06-09 08:17:52 +0000";
layers = (
{
layerId = m01;
shapes = (
{
closed = 1;
nodes = (
(192,210,o),
(208,265,o),
(224,321,cs),
(251,420,o),
(236,429,o),
(190,429,c),
(196,450,l),
(661,450,l),
(655,429,l),
(609,429,o),
(587,420,o),
(560,321,cs),
(506,129,ls),
(478,30,o),
(495,21,o),
(541,21,c),
(535,0,l),
(317,0,l),
(323,21,l),
(369,21,o),
(390,30,o),
(418,129,cs),
(502,430,l),
(318,430,l),
(315,403,o),
(299,343,o),
(288,303,cs),
(273,252,o),
(258,205,o),
(232,141,cs),
(207,79,o),
(154,-10,o),
(59,-10,cs),
(16,-10,o),
(-25,6,o),
(-25,49,cs),
(-25,87,o),
(10,120,o),
(49,120,cs),
(62,120,o),
(74,115,o),
(83,105,c),
(54,78,o),
(43,54,o),
(43,37,cs),
(43,21,o),
(53,11,o),
(69,11,cs),
(109,11,o),
(133,63,o),
(169,154,cs)
);
}
);
width = 621;
}
);
unicode = 1083;
},
{
color = 5;
glyphname = "em-cy";
lastChange = "2026-06-09 08:17:52 +0000";
layers = (
{
layerId = m01;
shapes = (
{
closed = 1;
nodes = (
(154,360,l),
(174,6,l),
(217,6,l),
(447,370,l),
(380,129,ls),
(352,30,o),
(331,21,o),
(285,21,c),
(279,0,l),
(497,0,l),
(503,21,l),
(457,21,o),
(440,30,o),
(468,129,cs),
(522,321,ls),
(549,420,o),
(571,429,o),
(617,429,c),
(623,450,l),
(468,450,l),
(258,120,l),
(237,450,l),
(83,450,l),
(77,429,l),
(123,429,o),
(139,420,o),
(112,321,cs),
(58,129,ls),
(30,30,o),
(9,21,o),
(-37,21,c),
(-43,0,l),
(118,0,l),
(124,21,l),
(78,21,o),
(61,30,o),
(89,129,cs)
);
}
);
width = 578;
}
);
unicode = 1084;
},
{
color = 5;
glyphname = "en-cy";
lastChange = "2026-06-09 08:17:52 +0000";
layers = (
{
layerId = m01;
shapes = (
{
closed = 1;
nodes = (
(115,321,ls),
(142,420,o),
(126,429,o),
(80,429,c),
(86,450,l),
(304,450,l),
(298,429,l),
(252,429,o),
(230,420,o),
(203,321,cs),
(181,245,l),
(374,245,l),
(396,321,ls),
(423,420,o),
(407,429,o),
(361,429,c),
(367,450,l),
(585,450,l),
(579,429,l),
(533,429,o),
(511,420,o),
(484,321,cs),
(430,129,ls),
(402,30,o),
(419,21,o),
(465,21,c),
(459,0,l),
(241,0,l),
(247,21,l),
(293,21,o),
(314,30,o),
(342,129,cs),
(368,222,l),
(175,222,l),
(149,129,ls),
(121,30,o),
(138,21,o),
(184,21,c),
(178,0,l),
(-40,0,l),
(-34,21,l),
(12,21,o),
(33,30,o),
(61,129,cs)
);
}
);
width = 496;
}
);
unicode = 1085;
},
{
color = 5;
glyphname = "o-cy";
lastChange = "2026-06-09 08:17:52 +0000";
layers = (
{
anchors = (
{
name = bottom;
pos = (208,0);
},
{
name = top;
pos = (395,500);
}
);
layerId = m01;
shapes = (
{
closed = 1;
nodes = (
(553,361,o),
(473,465,o),
(350,465,cs),
(209,465,o),
(73,361,o),
(34,222,cs),
(-3,89,o),
(72,-10,o),
(199,-10,cs),
(338,-10,o),
(479,96,o),
(518,235,cs)
);
},
{
closed = 1;
nodes = (
(377,78,o),
(310,12,o),
(227,12,cs),
(137,12,o),
(93,86,o),
(139,250,cs),
(174,376,o),
(237,442,o),
(330,442,cs),
(417,442,o),
(454,355,o),
(414,212,cs)
);
}
);
width = 550;
}
);
unicode = 1086;
},
{
color = 5;
glyphname = "pe-cy";
lastChange = "2026-06-09 08:17:52 +0000";
layers = (
{
layerId = m01;
shapes = (
{
closed = 1;
nodes = (
(570,429,l),
(524,429,o),
(502,420,o),
(475,321,cs),
(421,129,ls),
(393,30,o),
(410,21,o),
(456,21,c),
(450,0,l),
(232,0,l),
(238,21,l),
(284,21,o),
(305,30,o),
(333,129,cs),
(417,430,l),
(238,430,l),
(154,129,ls),
(126,30,o),
(143,21,o),
(189,21,c),
(183,0,l),
(-35,0,l),
(-29,21,l),
(17,21,o),
(38,30,o),
(66,129,cs),
(120,321,ls),
(147,420,o),
(131,429,o),
(85,429,c),
(91,450,l),
(576,450,l)
);
}
);
width = 541;
}
);
unicode = 1087;
},
{
color = 5;
glyphname = "er-cy";
lastChange = "2026-06-09 08:17:52 +0000";
layers = (
{
layerId = m01;
shapes = (
{
closed = 1;
nodes = (
(560,168,o),
(401,-11,o),
(247,-10,cs),
(187,-11,o),
(152,20,o),
(133,45,c),
(89,-114,ls),
(62,-213,o),
(78,-222,o),
(134,-222,c),
(128,-243,l),
(-110,-243,l),
(-104,-222,l),
(-48,-222,o),
(-26,-213,o),
(1,-114,cs),
(139,384,ls),
(143,400,o),
(141,410,o),
(123,410,cs),
(79,409,l),
(76,430,l),
(247,456,l),
(219,359,l),
(221,359,l),
(278,435,o),
(347,460,o),
(410,460,cs),
(495,460,o),
(560,414,o),
(560,320,cs)
);
},
{
closed = 1;
nodes = (
(464,404,o),
(433,442,o),
(389,442,cs),
(320,442,o),
(222,362,o),
(192,255,cs),
(142,74,l),
(160,43,o),
(197,12,o),
(247,12,cs),
(383,12,o),
(464,211,o),
(464,335,cs)
);
}
);
width = 578;
}
);
unicode = 1088;
},
{
color = 5;
glyphname = "es-cy";
lastChange = "2026-06-09 08:17:52 +0000";
layers = (
{
layerId = m01;
shapes = (
{
closed = 1;
nodes = (
(392,442,o),
(418,375,o),
(364,315,c),
(373,308,o),
(383,304,o),
(394,304,cs),
(428,304,o),
(461,330,o),
(470,363,cs),
(493,443,o),
(400,465,o),
(342,465,cs),
(210,465,o),
(73,357,o),
(34,220,cs),
(-4,83,o),
(71,-10,o),
(194,-10,cs),
(267,-10,o),
(336,19,o),
(397,79,c),
(385,92,l),
(332,47,o),
(278,22,o),
(224,22,cs),
(124,22,o),
(97,109,o),
(136,246,cs),
(169,366,o),
(244,442,o),
(326,442,cs)
);
}
);
width = 456;
}
);
unicode = 1089;
},
{
color = 5;
glyphname = "te-cy";
lastChange = "2026-06-09 08:17:52 +0000";
layers = (
{
layerId = m01;
shapes = (
{
closed = 1;
nodes = (
(87,450,l),
(51,322,l),
(74,322,l),
(115,429,o),
(159,427,o),
(249,429,c),
(165,129,ls),
(137,30,o),
(116,21,o),
(70,21,c),
(64,0,l),
(282,0,l),
(288,21,l),
(242,21,o),
(225,30,o),
(253,129,cs),
(337,429,l),
(425,427,o),
(471,429,o),
(452,322,c),
(475,322,l),
(511,450,l)
);
}
);
width = 476;
}
);
unicode = 1090;
},
{
color = 5;
glyphname = "u-cy";
lastChange = "2026-06-09 08:17:52 +0000";
layers = (
{
anchors = (
{
name = top;
pos = (339,500);
}
);
layerId = m01;
shapes = (
{
closed = 1;
nodes = (
(188,456,l),
(42,430,l),
(45,409,l),
(89,410,ls),
(101,410,o),
(105,407,o),
(107,396,cs),
(149,-27,l),
(80,-135,ls),
(39,-198,o),
(2,-228,o),
(-31,-228,cs),
(-53,-228,o),
(-61,-214,o),
(-61,-197,cs),
(-60,-177,o),
(-49,-159,o),
(-19,-139,c),
(-29,-129,o),
(-38,-123,o),
(-59,-123,cs),
(-101,-123,o),
(-129,-159,o),
(-130,-195,cs),
(-131,-230,o),
(-99,-253,o),
(-57,-253,cs),
(-5,-253,o),
(44,-227,o),
(101,-142,cs),
(200,4,ls),
(327,191,o),
(433,325,o),
(436,399,cs),
(438,436,o),
(412,455,o),
(385,455,cs),
(360,455,o),
(339,439,o),
(331,413,c),
(372,411,o),
(380,388,o),
(380,370,cs),
(381,282,o),
(273,152,o),
(222,77,c)
);
}
);
width = 407;
}
);
unicode = 1091;
},
{
color = 5;
glyphname = "ef-cy";
lastChange = "2026-06-09 08:17:52 +0000";
layers = (
{
layerId = m01;
shapes = (
{
closed = 1;
nodes = (
(252,-83,ls),
(223,-186,o),
(207,-226,o),
(168,-226,cs),
(150,-226,o),
(139,-216,o),
(139,-199,cs),
(139,-180,o),
(151,-158,o),
(179,-132,c),
(170,-122,o),
(157,-117,o),
(144,-117,cs),
(106,-117,o),
(71,-153,o),
(71,-189,cs),
(71,-231,o),
(113,-247,o),
(158,-247,cs),
(252,-247,o),
(314,-175,o),
(344,-68,cs),
(375,44,l),
(376,44,l),
(389,14,o),
(411,-10,o),
(467,-10,cs),
(605,-10,o),
(754,168,o),
(754,320,cs),
(754,414,o),
(692,460,o),
(614,460,cs),
(559,460,o),
(518,437,o),
(470,380,c),
(469,380,l),
(520,563,ls),
(552,676,o),
(577,711,o),
(618,711,cs),
(640,711,o),
(652,698,o),
(652,679,cs),
(652,660,o),
(639,633,o),
(611,607,c),
(621,597,o),
(633,592,o),
(646,592,cs),
(684,592,o),
(720,629,o),
(720,667,cs),
(720,708,o),
(676,732,o),
(625,732,cs),
(528,732,o),
(461,666,o),
(428,549,cs),
(387,403,l),
(386,403,l),
(367,436,o),
(335,465,o),
(279,465,cs),
(126,465,o),
(9,266,o),
(10,130,cs),
(10,49,o),
(61,-10,o),
(150,-10,cs),
(218,-10,o),
(271,35,o),
(292,65,c),
(293,65,l)
);
},
{
closed = 1;
nodes = (
(658,211,o),
(587,12,o),
(467,12,cs),
(418,12,o),
(397,39,o),
(388,88,c),
(452,321,l),
(494,377,o),
(546,442,o),
(598,442,cs),
(637,442,o),
(658,404,o),
(658,335,cs)
);
},
{
closed = 1;
nodes = (
(134,12,o),
(107,38,o),
(104,95,cs),
(100,193,o),
(161,442,o),
(289,442,cs),
(333,442,o),
(362,408,o),
(377,366,c),
(309,123,l),
(273,65,o),
(223,12,o),
(171,12,cs)
);
}
);
width = 764;
}
);
unicode = 1092;
},
{
color = 5;
glyphname = "ha-cy";
lastChange = "2026-06-09 08:17:52 +0000";
layers = (
{
layerId = m01;
shapes = (
{
closed = 1;
nodes = (
(262,258,l),
(344,348,ls),
(375,383,o),
(403,401,o),
(422,401,cs),
(437,401,o),
(447,390,o),
(452,364,c),
(471,375,o),
(481,394,o),
(481,413,cs),
(481,438,o),
(465,455,o),
(441,455,cs),
(405,455,o),
(374,414,o),
(352,390,cs),
(255,280,l),
(186,456,l),
(50,430,l),
(53,409,l),
(97,410,ls),
(109,410,o),
(111,406,o),
(115,396,cs),
(185,212,l),
(91,107,ls),
(60,72,o),
(32,54,o),
(13,54,cs),
(-2,54,o),
(-12,65,o),
(-17,91,c),
(-36,80,o),
(-46,61,o),
(-46,42,cs),
(-46,17,o),
(-30,0,o),
(-6,0,cs),
(30,0,o),
(61,41,o),
(83,65,cs),
(194,191,l),
(243,71,l),
(264,8,o),
(299,-10,o),
(335,-10,cs),
(393,-10,o),
(434,38,o),
(456,76,c),
(441,86,l),
(427,62,o),
(400,43,o),
(379,43,cs),
(353,43,o),
(338,72,o),
(326,101,cs)
);
}
);
width = 491;
}
);
unicode = 1093;
},
{
color = 5;
glyphname = "che-cy";
lastChange = "2026-06-09 08:17:52 +0000";
layers = (
{
layerId = m01;
shapes = (
{
closed = 1;
nodes = (
(328,198,l),
(297,160,o),
(253,147,o),
(206,147,cs),
(146,147,o),
(83,167,o),
(107,255,cs),
(126,321,ls),
(153,420,o),
(137,429,o),
(91,429,c),
(97,450,l),
(315,450,l),
(309,429,l),
(263,429,o),
(241,420,o),
(214,321,cs),
(201,274,ls),
(180,201,o),
(218,189,o),
(246,189,cs),
(284,189,o),
(327,206,o),
(347,260,c),
(364,321,ls),
(391,420,o),
(375,429,o),
(329,429,c),
(335,450,l),
(553,450,l),
(547,429,l),
(501,429,o),
(479,420,o),
(452,321,cs),
(398,129,ls),
(370,30,o),
(387,21,o),
(433,21,c),
(427,0,l),
(209,0,l),
(215,21,l),
(261,21,o),
(282,30,o),
(310,129,cs),
(329,198,l)
);
}
);
width = 508;
}
);
unicode = 1095;
},
{
color = 5;
glyphname = "tse-cy";
lastChange = "2026-06-09 08:17:52 +0000";
layers = (
{
layerId = m01;
shapes = (
{
closed = 1;
nodes = (
(-35,0,l),
(-29,21,l),
(17,21,o),
(38,30,o),
(66,129,cs),
(120,321,ls),
(147,420,o),
(131,429,o),
(85,429,c),
(91,450,l),
(309,450,l),
(303,429,l),
(257,429,o),
(235,420,o),
(208,321,cs),
(124,20,l),
(303,20,l),
(387,321,ls),
(414,420,o),
(398,429,o),
(352,429,c),
(358,450,l),
(576,450,l),
(570,429,l),
(524,429,o),
(502,420,o),
(475,321,cs),
(391,21,l),
(456,21,l),
(420,-106,l),
(400,-106,l),
(419,0,o),
(374,0,o),
(281,0,cs)
);
}
);
width = 541;
}
);
unicode = 1094;
},
{
color = 5;
glyphname = "sha-cy";
lastChange = "2026-06-09 08:17:52 +0000";
layers = (
{
layerId = m01;
shapes = (
{
closed = 1;
nodes = (
(-35,0,l),
(-29,21,l),
(17,21,o),
(38,30,o),
(66,129,cs),
(120,321,ls),
(147,420,o),
(131,429,o),
(85,429,c),
(91,450,l),
(309,450,l),
(303,429,l),
(257,429,o),
(235,420,o),
(208,321,cs),
(124,20,l),
(308,20,l),
(392,321,ls),
(419,420,o),
(403,429,o),
(357,429,c),
(363,450,l),
(581,450,l),
(575,429,l),
(529,429,o),
(507,420,o),
(480,321,cs),
(396,20,l),
(580,20,l),
(664,321,ls),
(691,420,o),
(675,429,o),
(629,429,c),
(635,450,l),
(853,450,l),
(847,429,l),
(801,429,o),
(779,420,o),
(752,321,cs),
(698,129,ls),
(670,30,o),
(687,21,o),
(733,21,c),
(727,0,l)
);
}
);
width = 818;
}
);
unicode = 1096;
},
{
color = 5;
glyphname = "shcha-cy";
lastChange = "2026-06-09 08:17:52 +0000";
layers = (
{
layerId = m01;
shapes = (
{
closed = 1;
nodes = (
(733,21,l),
(697,-106,l),
(677,-106,l),
(696,0,o),
(651,0,o),
(558,0,cs),
(-35,0,l),
(-29,21,l),
(17,21,o),
(38,30,o),
(66,129,cs),
(120,321,ls),
(147,420,o),
(131,429,o),
(85,429,c),
(91,450,l),
(309,450,l),
(303,429,l),
(257,429,o),
(235,420,o),
(208,321,cs),
(124,20,l),
(308,20,l),
(392,321,ls),
(419,420,o),
(403,429,o),
(357,429,c),
(363,450,l),
(581,450,l),
(575,429,l),
(529,429,o),
(507,420,o),
(480,321,cs),
(396,20,l),
(580,20,l),
(664,321,ls),
(691,420,o),
(675,429,o),
(629,429,c),
(635,450,l),
(853,450,l),
(847,429,l),
(801,429,o),
(779,420,o),
(752,321,cs),
(668,21,l)
);
}
);
width = 818;
}
);
unicode = 1097;
},
{
color = 5;
glyphname = "dzhe-cy";
lastChange = "2026-06-09 08:17:52 +0000";
layers = (
{
layerId = m01;
shapes = (
{
closed = 1;
nodes = (
(-35,0,l),
(-29,21,l),
(17,21,o),
(38,30,o),
(66,129,cs),
(120,321,ls),
(147,420,o),
(131,429,o),
(85,429,c),
(91,450,l),
(309,450,l),
(303,429,l),
(257,429,o),
(235,420,o),
(208,321,cs),
(124,20,l),
(303,20,l),
(387,321,ls),
(414,420,o),
(398,429,o),
(352,429,c),
(358,450,l),
(576,450,l),
(570,429,l),
(524,429,o),
(502,420,o),
(475,321,cs),
(421,129,ls),
(393,30,o),
(410,21,o),
(456,21,c),
(450,0,l),
(346,0,ls),
(263,0,o),
(214,-10,o),
(187,-106,c),
(167,-106,l),
(194,-10,o),
(151,0,o),
(68,0,cs)
);
}
);
width = 541;
}
);
unicode = 1119;
},
{
color = 5;
glyphname = "softsign-cy";
lastChange = "2026-06-09 08:17:52 +0000";
layers = (
{
layerId = m01;
shapes = (
{
closed = 1;
nodes = (
(213,321,ls),
(240,420,o),
(262,429,o),
(308,429,c),
(314,450,l),
(96,450,l),
(90,429,l),
(136,429,o),
(152,420,o),
(125,321,cs),
(71,129,ls),
(43,30,o),
(22,21,o),
(-24,21,c),
(-30,0,l),
(33,0,o),
(117,-1,o),
(180,-1,cs),
(301,-1,o),
(426,44,o),
(426,157,cs),
(426,241,o),
(318,247,o),
(250,247,cs),
(232,247,o),
(204,245,o),
(191,243,c)
);
},
{
closed = 1;
nodes = (
(169,21,o),
(148,22,o),
(129,23,c),
(185,223,l),
(208,227,o),
(226,227,o),
(239,227,cs),
(286,227,o),
(332,205,o),
(332,149,cs),
(332,74,o),
(269,21,o),
(184,21,cs)
);
}
);
width = 489;
}
);
unicode = 1100;
},
{
color = 5;
glyphname = "yeru-cy";
lastChange = "2026-06-09 08:17:52 +0000";
layers = (
{
layerId = m01;
shapes = (
{
closed = 1;
nodes = (
(540,321,ls),
(567,420,o),
(551,429,o),
(505,429,c),
(511,450,l),
(729,450,l),
(723,429,l),
(677,429,o),
(655,420,o),
(628,321,cs),
(574,129,ls),
(546,30,o),
(563,21,o),
(609,21,c),
(603,0,l),
(385,0,l),
(391,21,l),
(437,21,o),
(458,30,o),
(486,129,cs)
);
},
{
closed = 1;
nodes = (
(219,321,ls),
(246,420,o),
(268,429,o),
(314,429,c),
(320,450,l),
(102,450,l),
(96,429,l),
(142,429,o),
(158,420,o),
(131,321,cs),
(77,129,ls),
(49,30,o),
(28,21,o),
(-18,21,c),
(-24,0,l),
(39,0,o),
(123,-1,o),
(186,-1,cs),
(307,-1,o),
(432,44,o),
(432,157,cs),
(432,241,o),
(324,247,o),
(256,247,cs),
(238,247,o),
(210,245,o),
(197,243,c)
);
},
{
closed = 1;
nodes = (
(175,21,o),
(154,22,o),
(135,23,c),
(191,223,l),
(214,227,o),
(232,227,o),
(245,227,cs),
(292,227,o),
(338,205,o),
(338,149,cs),
(338,74,o),
(275,21,o),
(190,21,cs)
);
}
);
width = 684;
}
);
unicode = 1099;
},
{
color = 5;
glyphname = "hardsign-cy";
lastChange = "2026-06-09 08:17:52 +0000";
layers = (
{
layerId = m01;
shapes = (
{
closed = 1;
nodes = (
(311,321,ls),
(338,420,o),
(360,429,o),
(406,429,c),
(412,450,l),
(91,450,l),
(55,322,l),
(78,322,l),
(119,429,o),
(163,427,o),
(253,429,c),
(169,129,ls),
(141,30,o),
(120,21,o),
(74,21,c),
(68,0,l),
(133,0,ls),
(142,0,o),
(215,-1,o),
(278,-1,cs),
(399,-1,o),
(524,44,o),
(524,157,cs),
(524,241,o),
(416,247,o),
(348,247,cs),
(330,247,o),
(302,245,o),
(289,243,c)
);
},
{
closed = 1;
nodes = (
(267,21,o),
(246,22,o),
(227,23,c),
(283,223,l),
(306,227,o),
(324,227,o),
(337,227,cs),
(384,227,o),
(430,205,o),
(430,149,cs),
(430,74,o),
(367,21,o),
(282,21,cs)
);
}
);
width = 582;
}
);
unicode = 1098;
},
{
color = 5;
glyphname = "lje-cy";
lastChange = "2026-06-09 08:17:52 +0000";
layers = (
{
layerId = m01;
shapes = (
{
closed = 1;
nodes = (
(520,21,o),
(499,22,o),
(480,23,c),
(536,223,l),
(559,227,o),
(577,227,o),
(590,227,cs),
(637,227,o),
(683,205,o),
(683,149,cs),
(683,74,o),
(620,21,o),
(535,21,cs)
);
},
{
closed = 1;
nodes = (
(564,321,ls),
(591,420,o),
(613,429,o),
(659,429,c),
(665,450,l),
(200,450,l),
(194,429,l),
(240,429,o),
(255,420,o),
(228,321,cs),
(212,265,o),
(196,210,o),
(173,154,cs),
(137,63,o),
(113,11,o),
(73,11,cs),
(57,11,o),
(47,21,o),
(47,37,cs),
(47,54,o),
(58,78,o),
(87,105,c),
(78,115,o),
(66,120,o),
(53,120,cs),
(14,120,o),
(-21,82,o),
(-21,46,cs),
(-21,6,o),
(20,-10,o),
(63,-10,cs),
(158,-10,o),
(210,80,o),
(235,142,cs),
(261,206,o),
(277,252,o),
(292,303,cs),
(303,343,o),
(319,403,o),
(322,430,c),
(506,430,l),
(422,129,ls),
(394,30,o),
(373,21,o),
(327,21,c),
(321,0,l),
(386,0,ls),
(395,0,o),
(468,-1,o),
(531,-1,cs),
(652,-1,o),
(777,44,o),
(777,157,cs),
(777,241,o),
(669,247,o),
(601,247,cs),
(583,247,o),
(555,245,o),
(542,243,c)
);
}
);
width = 835;
}
);
unicode = 1113;
},
{
color = 5;
glyphname = "nje-cy";
lastChange = "2026-06-09 08:17:52 +0000";
layers = (
{
layerId = m01;
shapes = (
{
closed = 1;
nodes = (
(440,21,o),
(419,22,o),
(400,23,c),
(456,223,l),
(479,227,o),
(497,227,o),
(510,227,cs),
(557,227,o),
(603,205,o),
(603,149,cs),
(603,74,o),
(540,21,o),
(455,21,cs)
);
},
{
closed = 1;
nodes = (
(484,321,ls),
(511,420,o),
(533,429,o),
(579,429,c),
(585,450,l),
(367,450,l),
(361,429,l),
(407,429,o),
(423,420,o),
(396,321,cs),
(374,245,l),
(181,245,l),
(203,321,ls),
(230,420,o),
(252,429,o),
(298,429,c),
(304,450,l),
(86,450,l),
(80,429,l),
(126,429,o),
(142,420,o),
(115,321,cs),
(61,129,ls),
(33,30,o),
(12,21,o),
(-34,21,c),
(-40,0,l),
(178,0,l),
(184,21,l),
(138,21,o),
(121,30,o),
(149,129,cs),
(175,222,l),
(368,222,l),
(342,129,ls),
(314,30,o),
(293,21,o),
(247,21,c),
(241,0,l),
(451,-1,ls),
(572,-1,o),
(697,44,o),
(697,157,cs),
(697,241,o),
(589,247,o),
(521,247,cs),
(503,247,o),
(475,245,o),
(462,243,c)
);
}
);
width = 755;
}
);
unicode = 1114;
},
{
color = 5;
glyphname = "e-cy";
lastChange = "2026-06-09 08:17:52 +0000";
layers = (
{
layerId = m01;
shapes = (
{
closed = 1;
nodes = (
(127,22,o),
(86,83,o),
(116,211,c),
(317,211,l),
(325,241,l),
(124,241,l),
(163,370,o),
(236,442,o),
(316,442,cs),
(357,442,o),
(383,416,o),
(383,381,cs),
(383,361,o),
(374,337,o),
(354,315,c),
(363,308,o),
(373,304,o),
(384,304,cs),
(428,304,o),
(464,344,o),
(464,387,cs),
(464,447,o),
(384,465,o),
(332,465,cs),
(200,465,o),
(63,357,o),
(24,218,cs),
(-15,78,o),
(57,-10,o),
(194,-10,cs),
(272,-10,o),
(403,32,o),
(403,112,cs),
(403,123,o),
(397,130,o),
(385,130,cs),
(374,130,o),
(364,126,o),
(354,117,c),
(351,62,o),
(281,22,o),
(211,22,cs)
);
}
);
width = 436;
}
);
unicode = 1108;
},
{
color = 5;
glyphname = "ereversed-cy";
lastChange = "2026-06-09 08:17:52 +0000";
layers = (
{
layerId = m01;
shapes = (
{
closed = 1;
nodes = (
(261,-10,o),
(369,80,o),
(416,238,cs),
(457,376,o),
(393,465,o),
(266,465,cs),
(193,465,o),
(63,435,o),
(63,347,cs),
(63,322,o),
(81,304,o),
(109,304,cs),
(120,304,o),
(132,308,o),
(145,315,c),
(143,322,o),
(142,329,o),
(142,336,cs),
(142,390,o),
(205,442,o),
(268,442,cs),
(343,442,o),
(359,380,o),
(323,241,c),
(132,241,l),
(124,211,l),
(315,211,l),
(273,83,o),
(216,13,o),
(136,13,cs),
(82,13,o),
(51,43,o),
(51,81,cs),
(51,101,o),
(60,124,o),
(79,145,c),
(70,152,o),
(61,156,o),
(50,156,cs),
(7,156,o),
(-30,118,o),
(-30,76,cs),
(-30,12,o),
(58,-10,o),
(120,-10,cs)
);
}
);
width = 441;
}
);
unicode = 1101;
},
{
color = 5;
glyphname = "i-cy";
lastChange = "2026-06-09 08:17:52 +0000";
layers = (
{
layerId = m01;
shapes = (
{
closed = 1;
nodes = (
(285,655,o),
(260,678,o),
(231,678,cs),
(202,678,o),
(177,655,o),
(177,624,cs),
(177,593,o),
(201,570,o),
(231,570,cs),
(261,570,o),
(285,593,o),
(285,624,cs)
);
},
{
closed = 1;
nodes = (
(246,456,l),
(75,430,l),
(78,409,l),
(122,410,ls),
(140,410,o),
(142,400,o),
(135,377,cs),
(57,107,ls),
(53,92,o),
(42,61,o),
(42,40,cs),
(42,2,o),
(71,-10,o),
(99,-10,cs),
(158,-10,o),
(204,38,o),
(226,76,c),
(211,86,l),
(197,62,o),
(172,43,o),
(154,43,cs),
(142,43,o),
(135,48,o),
(135,61,cs),
(135,70,o),
(140,89,o),
(144,103,cs)
);
}
);
width = 281;
}
);
unicode = 1110;
},
{
color = 5;
glyphname = "je-cy";
lastChange = "2026-06-09 08:17:52 +0000";
layers = (
{
layerId = m01;
shapes = (
{
closed = 1;
nodes = (
(335,655,o),
(310,678,o),
(281,678,cs),
(252,678,o),
(227,655,o),
(227,624,cs),
(227,593,o),
(251,570,o),
(281,570,cs),
(311,570,o),
(335,593,o),
(335,624,cs)
);
},
{
closed = 1;
nodes = (
(51,-89,ls),
(23,-192,o),
(6,-232,o),
(-33,-232,cs),
(-51,-232,o),
(-62,-222,o),
(-62,-205,cs),
(-62,-186,o),
(-50,-164,o),
(-22,-138,c),
(-31,-128,o),
(-44,-123,o),
(-57,-123,cs),
(-95,-123,o),
(-130,-159,o),
(-130,-195,cs),
(-130,-237,o),
(-88,-253,o),
(-43,-253,cs),
(51,-253,o),
(116,-172,o),
(143,-74,cs),
(290,456,l),
(119,430,l),
(122,409,l),
(166,410,ls),
(184,410,o),
(186,400,o),
(180,377,cs)
);
}
);
width = 250;
}
);
unicode = 1112;
},
{
color = 5;
glyphname = "tshe-cy";
lastChange = "2026-06-09 08:17:52 +0000";
layers = (
{
layerId = m01;
shapes = (
{
closed = 1;
nodes = (
(104,539,l),
(180,539,l),
(30,0,l),
(119,0,l),
(134,52,ls),
(173,195,o),
(285,422,o),
(379,422,cs),
(423,422,o),
(433,375,o),
(414,307,cs),
(359,107,ls),
(355,92,o),
(344,61,o),
(344,40,cs),
(344,2,o),
(373,-10,o),
(401,-10,cs),
(460,-10,o),
(506,38,o),
(528,76,c),
(513,86,l),
(499,62,o),
(474,43,o),
(456,43,cs),
(444,43,o),
(437,48,o),
(437,61,cs),
(437,70,o),
(442,89,o),
(446,103,cs),
(505,317,ls),
(530,407,o),
(503,465,o),
(417,465,cs),
(317,465,o),
(229,351,o),
(183,230,c),
(182,230,l),
(268,539,l),
(405,539,l),
(414,569,l),
(277,569,l),
(317,713,l),
(146,687,l),
(149,666,l),
(193,667,l),
(211,667,o),
(213,657,o),
(207,634,cs),
(189,569,l),
(113,569,l)
);
}
);
width = 583;
}
);
unicode = 1115;
},
{
color = 5;
glyphname = "yu-cy";
lastChange = "2026-06-09 08:17:52 +0000";
layers = (
{
layerId = m01;
shapes = (
{
closed = 1;
nodes = (
(770,361,o),
(690,465,o),
(567,465,cs),
(434,465,o),
(305,372,o),
(258,245,c),
(181,245,l),
(203,321,ls),
(230,420,o),
(252,429,o),
(298,429,c),
(304,450,l),
(86,450,l),
(80,429,l),
(126,429,o),
(142,420,o),
(115,321,cs),
(61,129,ls),
(33,30,o),
(12,21,o),
(-34,21,c),
(-40,0,l),
(178,0,l),
(184,21,l),
(138,21,o),
(121,30,o),
(149,129,cs),
(175,222,l),
(251,222,l),
(214,89,o),
(289,-10,o),
(416,-10,cs),
(555,-10,o),
(696,96,o),
(735,235,cs)
);
},
{
closed = 1;
nodes = (
(391,376,o),
(454,442,o),
(547,442,cs),
(634,442,o),
(671,355,o),
(631,212,cs),
(594,78,o),
(527,12,o),
(444,12,cs),
(354,12,o),
(310,86,o),
(356,250,cs)
);
}
);
width = 705;
}
);
unicode = 1102;
},
{
color = 5;
glyphname = "ya-cy";
lastChange = "2026-06-09 08:17:52 +0000";
layers = (
{
layerId = m01;
shapes = (
{
closed = 1;
nodes = (
(226,128,ls),
(198,29,o),
(177,20,o),
(131,20,c),
(125,-1,l),
(343,-1,l),
(349,20,l),
(303,20,o),
(286,29,o),
(314,128,cs),
(367,320,ls),
(395,419,o),
(416,428,o),
(462,428,c),
(468,449,l),
(259,450,ls),
(164,450,o),
(49,434,o),
(21,334,cs),
(1,262,o),
(56,228,o),
(129,222,c),
(67,205,o),
(23,164,o),
(-13,101,cs),
(-33,65,ls),
(-55,26,o),
(-67,14,o),
(-81,14,cs),
(-92,14,o),
(-98,19,o),
(-106,26,c),
(-120,5,l),
(-105,-4,o),
(-91,-10,o),
(-65,-10,cs),
(12,-10,o),
(50,38,o),
(79,101,cs),
(89,122,ls),
(114,175,o),
(156,206,o),
(195,217,c),
(213,217,o),
(239,219,o),
(252,221,c)
);
},
{
closed = 1;
nodes = (
(131,394,o),
(187,428,o),
(254,428,cs),
(269,428,o),
(290,427,o),
(309,426,c),
(257,241,l),
(234,237,o),
(216,237,o),
(203,237,cs),
(144,237,o),
(94,264,o),
(114,335,cs)
);
}
);
width = 465;
}
);
unicode = 1103;
},
{
color = 5;
glyphname = "dje-cy";
lastChange = "2026-06-09 08:17:52 +0000";
layers = (
{
layerId = m01;
shapes = (
{
closed = 1;
nodes = (
(405,539,l),
(414,569,l),
(278,569,l),
(318,713,l),
(147,687,l),
(150,666,l),
(194,667,l),
(212,667,o),
(214,657,o),
(208,634,cs),
(190,569,l),
(113,569,l),
(104,539,l),
(181,539,l),
(31,0,l),
(120,0,l),
(135,52,ls),
(176,194,o),
(286,422,o),
(380,422,cs),
(424,422,o),
(434,375,o),
(415,307,cs),
(320,-35,ls),
(300,-108,o),
(258,-166,o),
(194,-166,c),
(188,-187,l),
(281,-187,o),
(376,-154,o),
(410,-31,cs),
(506,317,ls),
(531,407,o),
(504,465,o),
(418,465,cs),
(318,465,o),
(230,351,o),
(184,230,c),
(183,230,l),
(269,539,l)
);
}
);
width = 496;
}
);
unicode = 1106;
},
{
color = 5;
glyphname = "zhedescender-cy";
lastChange = "2026-06-09 08:17:52 +0000";
layers = (
{
layerId = m01;
shapes = (
{
closed = 1;
nodes = (
(149,101,ls),
(120,38,o),
(82,-10,o),
(5,-10,cs),
(-21,-10,o),
(-35,-4,o),
(-50,5,c),
(-36,26,l),
(-28,19,o),
(-22,14,o),
(-11,14,cs),
(3,14,o),
(17,26,o),
(37,65,cs),
(66,121,ls),
(104,196,o),
(167,226,o),
(249,238,c),
(173,388,ls),
(156,422,o),
(153,429,o),
(99,429,c),
(105,450,l),
(261,450,l),
(255,429,l),
(231,429,ls),
(207,429,o),
(191,415,o),
(199,400,cs),
(276,242,l),
(303,245,o),
(315,243,o),
(318,243,c),
(340,321,ls),
(367,420,o),
(351,429,o),
(305,429,c),
(311,450,l),
(529,450,l),
(523,429,l),
(477,429,o),
(455,420,o),
(428,321,cs),
(406,243,l),
(409,243,o),
(421,245,o),
(448,242,c),
(613,400,ls),
(629,415,o),
(621,429,o),
(597,429,cs),
(573,429,l),
(579,450,l),
(735,450,l),
(729,429,l),
(675,429,o),
(668,422,o),
(631,388,cs),
(471,238,l),
(547,226,o),
(594,196,o),
(590,121,cs),
(587,65,ls),
(585,26,o),
(593,14,o),
(607,14,cs),
(618,14,o),
(626,19,o),
(638,26,c),
(601,-106,l),
(581,-106,l),
(595,-34,o),
(587,-18,o),
(546,-6,cs),
(496,8,o),
(491,52,o),
(495,101,cs),
(497,122,ls),
(502,188,o),
(462,221,o),
(414,221,cs),
(400,221,l),
(374,129,ls),
(346,30,o),
(363,21,o),
(409,21,c),
(403,0,l),
(185,0,l),
(191,21,l),
(237,21,o),
(258,30,o),
(286,129,cs),
(312,221,l),
(298,221,ls),
(250,221,o),
(190,188,o),
(159,122,cs)
);
}
);
width = 700;
}
);
unicode = 1175;
},
{
color = 5;
glyphname = "kadescender-cy";
lastChange = "2026-06-09 08:17:52 +0000";
layers = (
{
layerId = m01;
shapes = (
{
closed = 1;
nodes = (
(348,65,ls),
(346,26,o),
(354,14,o),
(368,14,cs),
(379,14,o),
(387,19,o),
(399,26,c),
(362,-106,l),
(342,-106,l),
(356,-34,o),
(348,-18,o),
(307,-6,cs),
(257,8,o),
(252,52,o),
(256,101,cs),
(258,122,ls),
(263,188,o),
(226,221,o),
(178,221,cs),
(164,221,l),
(138,129,ls),
(110,30,o),
(127,21,o),
(173,21,c),
(167,0,l),
(-51,0,l),
(-45,21,l),
(1,21,o),
(22,30,o),
(50,129,cs),
(104,321,ls),
(131,420,o),
(115,429,o),
(69,429,c),
(75,450,l),
(293,450,l),
(287,429,l),
(241,429,o),
(219,420,o),
(192,321,cs),
(170,243,l),
(173,243,o),
(185,245,o),
(212,242,c),
(377,400,ls),
(393,415,o),
(385,429,o),
(361,429,cs),
(337,429,l),
(343,450,l),
(499,450,l),
(493,429,l),
(439,429,o),
(432,422,o),
(395,388,cs),
(235,238,l),
(311,226,o),
(355,196,o),
(351,121,cs)
);
}
);
width = 461;
}
);
unicode = 1179;
},
{
color = 5;
glyphname = "endescender-cy";
lastChange = "2026-06-09 08:17:52 +0000";
layers = (
{
layerId = m01;
shapes = (
{
closed = 1;
nodes = (
(241,0,l),
(247,21,l),
(293,21,o),
(314,30,o),
(342,129,cs),
(368,222,l),
(175,222,l),
(149,129,ls),
(121,30,o),
(138,21,o),
(184,21,c),
(178,0,l),
(-40,0,l),
(-34,21,l),
(12,21,o),
(33,30,o),
(61,129,cs),
(115,321,ls),
(142,420,o),
(126,429,o),
(80,429,c),
(86,450,l),
(304,450,l),
(298,429,l),
(252,429,o),
(230,420,o),
(203,321,cs),
(181,245,l),
(374,245,l),
(396,321,ls),
(423,420,o),
(407,429,o),
(361,429,c),
(367,450,l),
(585,450,l),
(579,429,l),
(533,429,o),
(511,420,o),
(484,321,cs),
(430,129,ls),
(402,30,o),
(419,21,o),
(465,21,c),
(429,-106,l),
(409,-106,l),
(428,0,o),
(383,0,o),
(290,0,cs)
);
}
);
width = 496;
}
);
unicode = 1187;
},
{
color = 5;
glyphname = "ustraight-cy";
lastChange = "2026-06-09 08:17:52 +0000";
layers = (
{
layerId = m01;
shapes = (
{
closed = 1;
nodes = (
(123,-114,ls),
(94,-212,o),
(74,-222,o),
(18,-222,c),
(12,-243,l),
(250,-243,l),
(256,-222,l),
(200,-222,o),
(182,-212,o),
(211,-114,cs),
(264,64,l),
(492,398,ls),
(509,423,o),
(518,429,o),
(572,429,c),
(578,450,l),
(414,450,l),
(408,429,l),
(448,429,ls),
(479,429,o),
(483,423,o),
(469,402,cs),
(274,115,l),
(260,92,l),
(257,92,l),
(257,100,o),
(257,107,o),
(256,115,cs),
(228,405,ls),
(226,426,o),
(237,429,o),
(249,429,cs),
(301,429,l),
(307,450,l),
(76,450,l),
(70,429,l),
(124,429,o),
(133,421,o),
(136,398,cs),
(176,64,l)
);
}
);
width = 533;
}
);
unicode = 1199;
},
{
color = 5;
glyphname = "ustraightstroke-cy";
lastChange = "2026-06-09 08:17:52 +0000";
layers = (
{
layerId = m01;
shapes = (
{
closed = 1;
nodes = (
(52,0,l),
(158,0,l),
(123,-124,ls),
(96,-223,o),
(74,-232,o),
(18,-232,c),
(12,-253,l),
(250,-253,l),
(256,-232,l),
(200,-232,o),
(184,-223,o),
(211,-124,cs),
(246,0,l),
(353,0,l),
(361,30,l),
(254,30,l),
(264,64,l),
(492,398,ls),
(509,423,o),
(518,429,o),
(572,429,c),
(578,450,l),
(414,450,l),
(408,429,l),
(448,429,ls),
(479,429,o),
(483,423,o),
(469,402,cs),
(274,115,l),
(260,92,l),
(257,92,l),
(257,100,o),
(257,107,o),
(256,115,cs),
(228,405,ls),
(226,426,o),
(237,429,o),
(249,429,cs),
(301,429,l),
(307,450,l),
(76,450,l),
(70,429,l),
(124,429,o),
(134,421,o),
(136,398,cs),
(176,64,l),
(166,30,l),
(60,30,l)
);
}
);
width = 533;
}
);
unicode = 1201;
},
{
color = 5;
glyphname = "hadescender-cy";
lastChange = "2026-06-09 08:17:52 +0000";
layers = (
{
layerId = m01;
shapes = (
{
closed = 1;
nodes = (
(160,0,l),
(166,21,l),
(198,21,ls),
(227,21,o),
(242,27,o),
(235,41,cs),
(174,191,l),
(11,39,ls),
(0,29,o),
(4,21,o),
(22,21,cs),
(69,21,l),
(63,0,l),
(-96,0,l),
(-90,21,l),
(-36,21,o),
(-29,28,o),
(-6,50,cs),
(165,212,l),
(95,398,ls),
(87,419,o),
(81,429,o),
(27,429,c),
(33,450,l),
(266,450,l),
(260,429,l),
(212,429,ls),
(191,429,o),
(186,421,o),
(188,413,c),
(244,280,l),
(371,400,ls),
(387,415,o),
(379,429,o),
(355,429,c),
(331,429,l),
(337,450,l),
(493,450,l),
(487,429,l),
(433,429,o),
(426,422,o),
(403,400,cs),
(251,258,l),
(331,52,ls),
(339,31,o),
(341,21,o),
(395,21,c),
(359,-106,l),
(339,-106,l),
(358,0,o),
(313,0,o),
(220,0,cs)
);
}
);
width = 444;
}
);
unicode = 1203;
},
{
color = 5;
glyphname = "chedescender-cy";
lastChange = "2026-06-09 08:17:52 +0000";
layers = (
{
layerId = m01;
shapes = (
{
closed = 1;
nodes = (
(209,0,l),
(215,21,l),
(261,21,o),
(282,30,o),
(310,129,cs),
(329,198,l),
(328,198,l),
(297,160,o),
(253,147,o),
(206,147,cs),
(146,147,o),
(83,167,o),
(107,255,cs),
(126,321,ls),
(153,420,o),
(137,429,o),
(91,429,c),
(97,450,l),
(315,450,l),
(309,429,l),
(263,429,o),
(241,420,o),
(214,321,cs),
(201,274,ls),
(180,201,o),
(218,189,o),
(246,189,cs),
(284,189,o),
(327,206,o),
(347,260,c),
(364,321,ls),
(391,420,o),
(375,429,o),
(329,429,c),
(335,450,l),
(553,450,l),
(547,429,l),
(501,429,o),
(479,420,o),
(452,321,cs),
(368,21,l),
(433,21,l),
(397,-106,l),
(377,-106,l),
(396,0,o),
(351,0,o),
(258,0,cs)
);
}
);
width = 508;
}
);
unicode = 1207;
},
{
color = 5;
glyphname = "shha-cy";
lastChange = "2026-06-09 08:17:52 +0000";
layers = (
{
anchors = (
{
name = bottom;
pos = (226,0);
},
{
name = top;
pos = (442,500);
}
);
layerId = m01;
shapes = (
{
closed = 1;
nodes = (
(28,0,l),
(117,0,l),
(132,52,ls),
(173,194,o),
(283,422,o),
(377,422,cs),
(421,422,o),
(431,375,o),
(412,307,cs),
(357,107,ls),
(353,92,o),
(342,61,o),
(342,40,cs),
(342,2,o),
(371,-10,o),
(399,-10,cs),
(458,-10,o),
(504,38,o),
(526,76,c),
(511,86,l),
(497,62,o),
(472,43,o),
(454,43,cs),
(442,43,o),
(435,48,o),
(435,61,cs),
(435,70,o),
(440,89,o),
(444,103,cs),
(503,317,ls),
(528,407,o),
(501,465,o),
(415,465,cs),
(315,465,o),
(227,351,o),
(181,230,c),
(180,230,l),
(315,713,l),
(144,687,l),
(147,666,l),
(191,667,ls),
(209,667,o),
(211,657,o),
(205,634,cs)
);
}
);
width = 581;
}
);
unicode = 1211;
},
{
color = 5;
glyphname = "schwa-cy";
lastChange = "2026-06-09 08:17:52 +0000";
layers = (
{
layerId = m01;
shapes = (
{
closed = 1;
nodes = (
(-16,22,o),
(43,-10,o),
(126,-10,cs),
(282,-10,o),
(430,153,o),
(430,307,cs),
(430,405,o),
(362,465,o),
(258,465,cs),
(185,465,o),
(116,436,o),
(55,376,c),
(67,363,l),
(120,408,o),
(174,433,o),
(228,433,cs),
(307,433,o),
(340,389,o),
(340,326,cs),
(340,306,o),
(336,284,o),
(330,261,c),
(116,245,o),
(-16,163,o),
(-16,76,cs)
);
},
{
closed = 1;
nodes = (
(282,88,o),
(213,13,o),
(136,13,cs),
(87,13,o),
(67,42,o),
(67,83,cs),
(67,179,o),
(182,224,o),
(323,235,c)
);
}
);
width = 452;
}
);
unicode = 1241;
},
{
color = 5;
glyphname = "obarred-cy";
lastChange = "2026-06-09 08:17:52 +0000";
layers = (
{
layerId = m01;
shapes = (
{
closed = 1;
nodes = (
(521,392,o),
(448,465,o),
(345,465,cs),
(183,465,o),
(20,321,o),
(20,156,cs),
(20,58,o),
(89,-10,o),
(194,-10,cs),
(350,-10,o),
(521,132,o),
(521,294,cs)
);
},
{
closed = 1;
nodes = (
(134,250,ls),
(169,376,o),
(232,442,o),
(325,442,cs),
(389,442,o),
(426,396,o),
(426,315,cs),
(426,294,o),
(423,271,o),
(418,246,c),
(133,246,l)
);
},
{
closed = 1;
nodes = (
(410,216,l),
(409,212,ls),
(372,78,o),
(305,12,o),
(222,12,cs),
(156,12,o),
(115,51,o),
(115,135,cs),
(115,159,o),
(118,186,o),
(125,216,c)
);
}
);
width = 500;
}
);
unicode = 1257;
},
{
color = 5;
glyphname = Alpha;
lastChange = "2026-06-09 07:54:44 +0000";
layers = (
{
anchors = (
{
name = bottom;
pos = (253,0);
},
{
name = ogonek;
pos = (508,0);
},
{
name = side;
pos = (646,200);
},
{
name = tonos;
pos = (306,492);
},
{
name = top;
pos = (626,760);
}
);
layerId = m01;
shapes = (
{
closed = 1;
nodes = (
(260,273,l),
(491,560,l),
(466,273,l)
);
},
{
closed = 1;
nodes = (
(454,139,ls),
(445,38,o),
(428,23,o),
(357,23,c),
(347,0,l),
(615,0,l),
(625,23,l),
(559,23,o),
(558,43,o),
(568,161,cs),
(613,718,l),
(586,718,l),
(127,145,ls),
(38,33,o),
(19,23,o),
(-52,23,c),
(-62,0,l),
(138,0,l),
(148,23,l),
(77,23,o),
(70,45,o),
(162,155,cs),
(238,246,l),
(464,246,l)
);
}
);
width = 677;
}
);
unicode = 913;
},
{
color = 5;
glyphname = Beta;
lastChange = "2026-06-09 07:54:44 +0000";
layers = (
{
layerId = m01;
shapes = (
{
closed = 1;
nodes = (
(331,375,o),
(306,376,o),
(281,379,c),
(371,675,l),
(394,676,o),
(423,678,o),
(443,678,cs),
(522,678,o),
(563,658,o),
(563,587,cs),
(563,477,o),
(482,375,o),
(356,375,cs)
);
},
{
closed = 1;
nodes = (
(243,19,o),
(209,21,o),
(179,32,c),
(187,60,o),
(193,84,o),
(202,113,cs),
(274,355,l),
(312,353,o),
(355,352,o),
(401,354,c),
(452,346,o),
(484,303,o),
(484,233,cs),
(484,129,o),
(402,19,o),
(281,19,cs)
);
},
{
closed = 1;
nodes = (
(183,676,l),
(254,676,o),
(264,645,o),
(237,556,cs),
(113,143,ls),
(86,54,o),
(58,23,o),
(-13,23,c),
(-20,0,l),
(27,0,o),
(75,1,o),
(118,1,cs),
(156,1,o),
(255,-2,o),
(292,-2,cs),
(440,-2,o),
(597,81,o),
(597,237,cs),
(597,317,o),
(544,361,o),
(455,367,c),
(561,386,o),
(673,466,o),
(673,573,cs),
(673,661,o),
(607,701,o),
(504,701,cs),
(450,701,o),
(395,698,o),
(329,698,cs),
(275,698,o),
(232,700,o),
(190,700,c)
);
}
);
width = 652;
}
);
unicode = 914;
},
{
color = 5;
glyphname = Gamma;
lastChange = "2026-06-09 07:54:44 +0000";
layers = (
{
layerId = m01;
shapes = (
{
closed = 1;
nodes = (
(367,677,l),
(568,671,o),
(673,693,o),
(636,507,c),
(663,507,l),
(721,700,l),
(188,700,l),
(180,676,l),
(251,676,o),
(261,645,o),
(235,556,cs),
(112,143,ls),
(86,54,o),
(58,23,o),
(-13,23,c),
(-20,0,l),
(256,0,l),
(263,23,l),
(192,23,o),
(182,54,o),
(208,143,cs)
);
}
);
width = 624;
}
);
unicode = 915;
},
{
color = 5;
glyphname = Delta;
lastChange = "2026-06-13 19:24:52 +0000";
layers = (
{
layerId = m01;
shapes = (
{
closed = 1;
nodes = (
(502,0,l),
(556,718,l),
(529,718,l),
(-62,0,l)
);
},
{
closed = 1;
nodes = (
(439,570,l),
(398,90,l),
(137,90,ls),
(101,90,o),
(64,90,o),
(44,92,c),
(83,140,o),
(118,183,o),
(162,236,cs)
);
}
);
width = 572;
}
);
unicode = 916;
},
{
color = 5;
glyphname = Epsilon;
lastChange = "2026-06-09 07:54:44 +0000";
layers = (
{
anchors = (
{
name = side;
pos = (600,200);
},
{
name = tonos;
pos = (-4,492);
}
);
layerId = m01;
shapes = (
{
closed = 1;
nodes = (
(-20,0,l),
(527,0,l),
(590,223,l),
(564,223,l),
(515,74,o),
(429,23,o),
(269,23,cs),
(235,23,o),
(209,24,o),
(177,25,c),
(185,65,o),
(196,105,o),
(209,150,cs),
(264,346,l),
(311,346,ls),
(398,346,o),
(443,336,o),
(415,222,c),
(441,222,l),
(518,491,l),
(492,491,l),
(465,407,o),
(428,371,o),
(360,371,cs),
(272,371,l),
(358,677,l),
(556,671,o),
(656,693,o),
(621,507,c),
(647,507,l),
(664,572,o),
(683,636,o),
(700,700,c),
(178,700,l),
(172,676,l),
(243,676,o),
(253,645,o),
(228,556,cs),
(110,143,ls),
(85,54,o),
(57,23,o),
(-14,23,c)
);
}
);
width = 621;
}
);
unicode = 917;
},
{
color = 5;
glyphname = Zeta;
lastChange = "2026-06-09 07:54:44 +0000";
layers = (
{
layerId = m01;
shapes = (
{
closed = 1;
nodes = (
(556,223,l),
(511,52,o),
(391,23,o),
(247,23,cs),
(204,23,o),
(161,22,o),
(118,23,c),
(657,700,l),
(167,700,l),
(126,506,l),
(152,506,l),
(184,619,o),
(239,672,o),
(372,675,cs),
(424,676,o),
(475,677,o),
(527,676,c),
(-15,0,l),
(529,0,l),
(582,223,l)
);
}
);
width = 629;
}
);
unicode = 918;
},
{
color = 5;
glyphname = Eta;
lastChange = "2026-06-09 07:54:44 +0000";
layers = (
{
anchors = (
{
name = bottom;
pos = (312,0);
},
{
name = side;
pos = (667,200);
},
{
name = tonos;
pos = (-8,492);
}
);
layerId = m01;
shapes = (
{
closed = 1;
nodes = (
(257,348,l),
(553,348,l),
(493,143,ls),
(467,54,o),
(439,23,o),
(368,23,c),
(362,0,l),
(639,0,l),
(645,23,l),
(574,23,o),
(564,54,o),
(590,143,cs),
(710,556,ls),
(736,645,o),
(765,676,o),
(836,676,c),
(842,700,l),
(565,700,l),
(559,676,l),
(630,676,o),
(638,645,o),
(613,556,cs),
(561,374,l),
(265,374,l),
(317,556,l),
(343,645,o),
(372,676,o),
(443,676,c),
(449,700,l),
(173,700,l),
(167,676,l),
(238,676,o),
(247,645,o),
(221,556,cs),
(101,143,ls),
(75,54,o),
(47,23,o),
(-24,23,c),
(-30,0,l),
(246,0,l),
(252,23,l),
(181,23,o),
(171,54,o),
(197,143,cs)
);
}
);
width = 745;
}
);
unicode = 919;
},
{
color = 5;
glyphname = Theta;
lastChange = "2026-06-13 19:26:23 +0000";
layers = (
{
layerId = m01;
shapes = (
{
closed = 1;
nodes = (
(390,316,ls),
(343,316,o),
(295,318,o),
(263,224,c),
(237,224,l),
(267,312,o),
(292,393,o),
(316,485,c),
(342,485,l),
(320,404,o),
(345,397,o),
(413,397,cs),
(497,397,ls),
(565,397,o),
(596,404,o),
(622,485,c),
(648,485,l),
(616,393,o),
(593,312,o),
(569,224,c),
(543,224,l),
(567,318,o),
(519,316,o),
(472,316,cs)
);
},
{
closed = 1;
nodes = (
(806,603,o),
(700,714,o),
(548,714,cs),
(304,714,o),
(64,493,o),
(64,245,cs),
(64,92,o),
(171,-13,o),
(328,-13,cs),
(566,-13,o),
(806,213,o),
(806,454,cs)
);
},
{
closed = 1;
nodes = (
(253,12,o),
(179,78,o),
(179,222,cs),
(179,425,o),
(283,690,o),
(521,690,cs),
(630,690,o),
(692,614,o),
(692,483,cs),
(692,294,o),
(590,12,o),
(368,12,cs)
);
}
);
width = 803;
}
);
unicode = 920;
},
{
color = 5;
glyphname = Iota;
lastChange = "2026-06-09 07:54:44 +0000";
layers = (
{
anchors = (
{
name = tonos;
pos = (-18,492);
},
{
name = top;
pos = (358,760);
}
);
layerId = m01;
shapes = (
{
closed = 1;
nodes = (
(164,676,l),
(235,676,o),
(246,645,o),
(220,556,cs),
(101,143,ls),
(75,54,o),
(48,23,o),
(-23,23,c),
(-30,0,l),
(251,0,l),
(258,23,l),
(187,23,o),
(176,54,o),
(202,143,cs),
(321,556,ls),
(347,645,o),
(374,676,o),
(445,676,c),
(452,700,l),
(171,700,l)
);
}
);
width = 355;
}
);
unicode = 921;
},
{
color = 5;
glyphname = Kappa;
lastChange = "2026-06-09 07:54:44 +0000";
layers = (
{
layerId = m01;
shapes = (
{
closed = 1;
nodes = (
(237,271,l),
(321,343,l),
(444,71,ls),
(457,43,o),
(436,23,o),
(377,23,c),
(370,0,l),
(654,0,l),
(661,23,l),
(585,23,o),
(577,44,o),
(560,84,cs),
(415,426,l),
(596,584,l),
(687,667,o),
(706,676,o),
(786,676,c),
(793,700,l),
(575,700,l),
(568,676,l),
(634,676,o),
(638,648,o),
(587,604,cs),
(250,312,l),
(322,556,ls),
(348,645,o),
(375,676,o),
(446,676,c),
(453,700,l),
(176,700,l),
(169,676,l),
(240,676,o),
(249,645,o),
(223,556,cs),
(101,143,ls),
(75,54,o),
(48,23,o),
(-23,23,c),
(-30,0,l),
(246,0,l),
(253,23,l),
(182,23,o),
(173,54,o),
(199,143,cs)
);
}
);
width = 760;
}
);
unicode = 922;
},
{
color = 5;
glyphname = Lambda;
lastChange = "2026-06-09 07:54:44 +0000";
layers = (
{
layerId = m01;
shapes = (
{
closed = 1;
nodes = (
(485,569,l),
(444,139,ls),
(434,37,o),
(419,23,o),
(348,23,c),
(338,0,l),
(606,0,l),
(616,23,l),
(550,23,o),
(548,43,o),
(557,161,cs),
(601,718,l),
(574,718,l),
(125,145,ls),
(38,34,o),
(19,23,o),
(-52,23,c),
(-62,0,l),
(138,0,l),
(148,23,l),
(77,23,o),
(73,44,o),
(160,155,cs)
);
}
);
width = 668;
}
);
unicode = 923;
},
{
color = 5;
glyphname = Mu;
lastChange = "2026-06-09 07:54:44 +0000";
layers = (
{
layerId = m01;
shapes = (
{
closed = 1;
nodes = (
(114,143,ls),
(88,54,o),
(58,23,o),
(-13,23,c),
(-20,0,l),
(188,0,l),
(195,23,l),
(124,23,o),
(113,54,o),
(139,143,cs),
(281,624,l),
(321,3,l),
(337,3,l),
(755,644,l),
(607,143,ls),
(581,54,o),
(553,23,o),
(482,23,c),
(475,0,l),
(752,0,l),
(759,23,l),
(688,23,o),
(678,54,o),
(704,143,cs),
(825,556,ls),
(851,645,o),
(879,676,o),
(951,676,c),
(959,700,l),
(766,700,l),
(418,170,l),
(382,700,l),
(189,700,l),
(181,676,l),
(253,676,o),
(261,645,o),
(235,556,cs)
);
}
);
width = 872;
}
);
unicode = 924;
},
